SplineFontDB: 3.0
FontName: CarterOne
FullName: CarterOne
FamilyName: Carter One
Weight: Book
Copyright: Copyright (c) 2011 by vernon adams. All rights reserved.
Version: 1.000
ItalicAngle: 0
UnderlinePosition: -103
UnderlineWidth: 102
Ascent: 1638
Descent: 410
sfntRevision: 0x00010000
LayerCount: 2
Layer: 0 1 "Back"  1
Layer: 1 1 "Fore"  0
XUID: [1021 759 1887733602 6764076]
FSType: 0
OS2Version: 2
OS2_WeightWidthSlopeOnly: 0
OS2_UseTypoMetrics: 1
CreationTime: 1302377126
ModificationTime: 1304093147
PfmFamily: 65
TTFWeight: 400
TTFWidth: 5
LineGap: 0
VLineGap: 0
Panose: 3 8 8 2 4 4 5 6 0 5
OS2TypoAscent: 2264
OS2TypoAOffset: 0
OS2TypoDescent: -890
OS2TypoDOffset: 0
OS2TypoLinegap: 0
OS2WinAscent: 2264
OS2WinAOffset: 0
OS2WinDescent: 890
OS2WinDOffset: 0
HheadAscent: 2264
HheadAOffset: 0
HheadDescent: -890
HheadDOffset: 0
OS2SubXSize: 1434
OS2SubYSize: 1331
OS2SubXOff: 0
OS2SubYOff: 287
OS2SupXSize: 1434
OS2SupYSize: 1331
OS2SupXOff: 0
OS2SupYOff: 977
OS2StrikeYSize: 102
OS2StrikeYPos: 512
OS2FamilyClass: 2562
OS2Vendor: 'newt'
OS2CodePages: 20000111.41000000
OS2UnicodeRanges: 800000ef.4800004b.14200000.00000000
Lookup: 258 0 0 "'kern' Horizontal Kerning in Latin lookup 0"  {"'kern' Horizontal Kerning in Latin lookup 0 per glyph data 0"  "'kern' Horizontal Kerning in Latin lookup 0 kerning class 1"  } ['kern' ('latn' <'dflt' > ) ]
MarkAttachClasses: 1
DEI: 91125
KernClass2: 35+ 37 "'kern' Horizontal Kerning in Latin lookup 0 kerning class 1" 
 20 quotedbl quotesingle
 20 hyphen endash emdash
 50 A Agrave Aacute Acircumflex Atilde Adieresis Aring
 10 C Ccedilla
 5 D Eth
 43 E AE Egrave Eacute Ecircumflex Edieresis OE
 8 G Gbreve
 48 I Igrave Iacute Icircumflex Idieresis Idotaccent
 8 L Lslash
 8 N Ntilde
 51 O Ograve Oacute Ocircumflex Otilde Odieresis Oslash
 25 S Scedilla Scaron uni0218
 9 T uni021A
 37 U Ugrave Uacute Ucircumflex Udieresis
 18 Y Yacute Ydieresis
 8 Z Zcaron
 50 a agrave aacute acircumflex atilde adieresis aring
 10 c ccedilla

StartChar: exclam
Encoding: 33 33 4
Width: 550
GlyphClass: 2
Flags: W
LayerCount: 2
Fore
SplineSet
534 1170 m 1,0,1
 502 1014 502 1014 471.5 858.5 c 128,-1,2
 441 703 441 703 415 544 c 1,3,4
 413 511 413 511 408.5 498 c 128,-1,5
 404 485 404 485 386 482 c 0,6,7
 347 475 347 475 309 467 c 128,-1,8
 271 459 271 459 229 448 c 1,9,10
 221 448 221 448 219.5 450.5 c 128,-1,11
 218 453 218 453 218 458 c 2,12,-1
 208 1446 l 1,13,14
 210 1478 210 1478 215 1491 c 128,-1,15
 220 1504 220 1504 237 1508 c 0,16,17
 322 1527 322 1527 409 1551.5 c 128,-1,18
 496 1576 496 1576 593 1601 c 0,19,20
 596 1602 596 1602 602 1602 c 0,21,22
 613 1602 613 1602 613 1592 c 0,23,24
 613 1591 613 1591 609 1567.5 c 128,-1,25
 605 1544 605 1544 598.5 1507 c 128,-1,26
 592 1470 592 1470 584 1423.5 c 128,-1,27
 576 1377 576 1377 567 1330.5 c 128,-1,28
 558 1284 558 1284 549.5 1241.5 c 128,-1,29
 541 1199 541 1199 534 1170 c 1,0,1
499 342 m 0,30,31
 496 299 496 299 494.5 276 c 128,-1,32
 493 253 493 253 492 241.5 c 128,-1,33
 491 230 491 230 491 227 c 128,-1,34
 491 224 491 224 490.5 222.5 c 128,-1,35
 490 221 490 221 489.5 216.5 c 128,-1,36
 489 212 489 212 488 197.5 c 128,-1,37
 487 183 487 183 485 155 c 128,-1,38
 483 127 483 127 479 78 c 0,39,40
 477 45 477 45 472.5 32.5 c 128,-1,41
 468 20 468 20 450 16 c 0,42,43
 365 -1 365 -1 272 -19.5 c 128,-1,44
 179 -38 179 -38 92 -67 c 0,45,46
 89 -68 89 -68 83 -68 c 1,47,-1
 74 -60 l 2,48,49
 72 -58 72 -58 72 -58 c 1,50,-1
 94 216 l 2,51,52
 96 248 96 248 100.5 261 c 128,-1,53
 105 274 105 274 123 278 c 0,54,55
 208 293 208 293 295 312 c 128,-1,56
 382 331 382 331 479 351 c 0,57,58
 482 352 482 352 488 352 c 0,59,60
 499 352 499 352 499 342 c 0,30,31
EndSplineSet
EndChar

StartChar: quotedbl
Encoding: 34 34 5
Width: 1101
GlyphClass: 2
Flags: W
LayerCount: 2
Fore
SplineSet
200 785 m 0,0,1
 193 926 193 926 187 1081 c 128,-1,2
 181 1236 181 1236 174 1387 c 1,3,-1
 174 1400 l 2,4,5
 174 1426 174 1426 180 1435.5 c 128,-1,6
 186 1445 186 1445 203 1448 c 1,7,8
 251 1448 251 1448 303 1448.5 c 128,-1,9
 355 1449 355 1449 407.5 1449 c 128,-1,10
 460 1449 460 1449 511 1449.5 c 128,-1,11
 562 1450 562 1450 608 1450 c 0,12,13
 617 1450 617 1450 623 1445 c 128,-1,14
 629 1440 629 1440 629 1426 c 2,15,-1
 629 1420 l 1,16,-1
 473 783 l 2,17,18
 469 767 469 767 466.5 755.5 c 128,-1,19
 464 744 464 744 460.5 737 c 128,-1,20
 457 730 457 730 451.5 726.5 c 128,-1,21
 446 723 446 723 437 723 c 0,22,23
 383 723 383 723 332 722 c 128,-1,24
 281 721 281 721 221 721 c 0,25,26
 213 721 213 721 209 729 c 128,-1,27
 205 737 205 737 203 747.5 c 128,-1,28
 201 758 201 758 200.5 769 c 128,-1,29
 200 780 200 780 200 785 c 0,0,1
753 785 m 0,30,31
 746 926 746 926 740 1081 c 128,-1,32
 734 1236 734 1236 727 1387 c 1,33,-1
 727 1400 l 2,34,35
 727 1426 727 1426 733 1435.5 c 128,-1,36
 739 1445 739 1445 756 1448 c 1,37,38
 804 1448 804 1448 856 1448.5 c 128,-1,39
 908 1449 908 1449 960.5 1449 c 128,-1,40
 1013 1449 1013 1449 1064 1449.5 c 128,-1,41
 1115 1450 1115 1450 1161 1450 c 0,42,43
 1170 1450 1170 1450 1176 1445 c 128,-1,44
 1182 1440 1182 1440 1182 1426 c 2,45,-1
 1182 1420 l 1,46,-1
 1026 783 l 2,47,48
 1022 767 1022 767 1019.5 755.5 c 128,-1,49
 1017 744 1017 744 1013.5 737 c 128,-1,50
 1010 730 1010 730 1004.5 726.5 c 128,-1,51
 999 723 999 723 990 723 c 0,52,53
 936 723 936 723 885 722 c 128,-1,54
 834 721 834 721 774 721 c 0,55,56
 766 721 766 721 762 729 c 128,-1,57
 758 737 758 737 756 747.5 c 128,-1,58
 754 758 754 758 753.5 769 c 128,-1,59
 753 780 753 780 753 785 c 0,30,31
EndSplineSet
EndChar

StartChar: numbersign
Encoding: 35 35 6
Width: 1643
GlyphClass: 2
Flags: W
LayerCount: 2
Fore
SplineSet
405 699 m 1,0,-1
 437 827 l 1,1,-1
 298 827 l 2,2,3
 238 827 238 827 208.5 832 c 128,-1,4
 179 837 179 837 179 852 c 0,5,6
 179 860 179 860 188.5 885.5 c 128,-1,7
 198 911 198 911 212 943 c 128,-1,8
 226 975 226 975 243 1009 c 128,-1,9
 260 1043 260 1043 275 1068 c 1,10,11
 286 1078 286 1078 295 1087 c 128,-1,12
 304 1096 304 1096 326 1097 c 1,13,-1
 503 1094 l 1,14,15
 526 1190 526 1190 546.5 1284.5 c 128,-1,16
 567 1379 567 1379 589 1476 c 0,17,18
 596 1505 596 1505 601 1516.5 c 128,-1,19
 606 1528 606 1528 620 1528 c 2,20,-1
 627 1528 l 1,21,22
 665 1516 665 1516 704.5 1502 c 128,-1,23
 744 1488 744 1488 783.5 1475.5 c 128,-1,24
 823 1463 823 1463 861.5 1452 c 128,-1,25
 900 1441 900 1441 936 1435 c 0,26,27
 943 1433 943 1433 948.5 1429.5 c 128,-1,28
 954 1426 954 1426 954 1419 c 1,29,-1
 872 1089 l 1,30,-1
 1046 1086 l 1,31,32
 1068 1183 1068 1183 1090 1279.5 c 128,-1,33
 1112 1376 1112 1376 1134 1476 c 0,34,35
 1141 1505 1141 1505 1146 1516.5 c 128,-1,36
 1151 1528 1151 1528 1165 1528 c 2,37,-1
 1172 1528 l 1,38,39
 1210 1516 1210 1516 1249.5 1502 c 128,-1,40
 1289 1488 1289 1488 1328.5 1475.5 c 128,-1,41
 1368 1463 1368 1463 1406.5 1452 c 128,-1,42
 1445 1441 1445 1441 1481 1435 c 0,43,44
 1488 1433 1488 1433 1493.5 1429.5 c 128,-1,45
 1499 1426 1499 1426 1499 1419 c 1,46,-1
 1417 1089 l 1,47,48
 1460 1095 1460 1095 1500 1100.5 c 128,-1,49
 1540 1106 1540 1106 1573 1109.5 c 128,-1,50
 1606 1113 1606 1113 1629.5 1115.5 c 128,-1,51
 1653 1118 1653 1118 1664 1118 c 0,52,53
 1672 1118 1672 1118 1682 1113 c 128,-1,54
 1692 1108 1692 1108 1692 1092 c 1,55,56
 1691 1084 1691 1084 1675 1048.5 c 128,-1,57
 1659 1013 1659 1013 1632 959 c 2,58,-1
 1585 866 l 2,59,60
 1578 851 1578 851 1564 844 c 128,-1,61
 1550 837 1550 837 1524 835 c 128,-1,62
 1498 833 1498 833 1456.5 833.5 c 128,-1,63
 1415 834 1415 834 1354 834 c 1,64,-1
 1321 698 l 1,65,66
 1390 709 1390 709 1444.5 715.5 c 128,-1,67
 1499 722 1499 722 1517 722 c 0,68,69
 1525 722 1525 722 1535 717 c 128,-1,70
 1545 712 1545 712 1545 696 c 0,71,72
 1545 690 1545 690 1537 667 c 128,-1,73
 1529 644 1529 644 1516.5 610 c 128,-1,74
 1504 576 1504 576 1488.5 534.5 c 128,-1,75
 1473 493 1473 493 1458 450 c 1,76,77
 1451 435 1451 435 1441.5 427.5 c 128,-1,78
 1432 420 1432 420 1403 420 c 2,79,-1
 1362 420 l 2,80,81
 1342 420 1342 420 1314.5 420 c 128,-1,82
 1287 420 1287 420 1253 421 c 1,83,-1
 1150 5 l 2,84,85
 1146 -11 1146 -11 1145.5 -25 c 128,-1,86
 1145 -39 1145 -39 1130 -39 c 0,87,88
 1118 -39 1118 -39 1103 -32 c 1,89,-1
 913 20 l 2,90,91
 905 23 905 23 886.5 28.5 c 128,-1,92
 868 34 868 34 849 42 c 128,-1,93
 830 50 830 50 815.5 62 c 128,-1,94
 801 74 801 74 801 89 c 0,95,96
 801 91 801 91 803 101 c 0,97,98
 815 146 815 146 825.5 186.5 c 128,-1,99
 836 227 836 227 846 266.5 c 128,-1,100
 856 306 856 306 866 345 c 128,-1,101
 876 384 876 384 886 425 c 1,102,103
 841 425 841 425 797.5 425.5 c 128,-1,104
 754 426 754 426 709 427 c 1,105,-1
 605 5 l 2,106,107
 601 -11 601 -11 600.5 -25 c 128,-1,108
 600 -39 600 -39 585 -39 c 0,109,110
 573 -39 573 -39 558 -32 c 1,111,-1
 368 20 l 2,112,113
 360 23 360 23 341.5 28.5 c 128,-1,114
 323 34 323 34 304 42 c 128,-1,115
 285 50 285 50 270.5 62 c 128,-1,116
 256 74 256 74 256 89 c 0,117,118
 256 91 256 91 258 101 c 0,119,120
 282 191 282 191 302 269 c 128,-1,121
 322 347 322 347 342 430 c 1,122,123
 276 431 276 431 230.5 431 c 128,-1,124
 185 431 185 431 156.5 433 c 128,-1,125
 128 435 128 435 115 440 c 128,-1,126
 102 445 102 445 102 456 c 0,127,128
 102 464 102 464 113 489.5 c 128,-1,129
 124 515 124 515 141.5 547 c 128,-1,130
 159 579 159 579 179.5 612.5 c 128,-1,131
 200 646 200 646 218 672 c 1,132,133
 229 682 229 682 238 691 c 128,-1,134
 247 700 247 700 269 701 c 1,135,-1
 405 699 l 1,0,-1
949 690 m 1,136,137
 957 725 957 725 965.5 760.5 c 128,-1,138
 974 796 974 796 983 831 c 1,139,140
 938 831 938 831 895 830.5 c 128,-1,141
 852 830 852 830 809 830 c 1,142,-1
 775 693 l 1,143,-1
 949 690 l 1,136,137
EndSplineSet
EndChar

StartChar: dollar
Encoding: 36 36 7
Width: 993
GlyphClass: 2
Flags: W
LayerCount: 2
Fore
SplineSet
762 1367 m 1,0,1
 834 1362 834 1362 887.5 1357 c 128,-1,2
 941 1352 941 1352 970 1348 c 1,3,-1
 997 1054 l 1,4,5
 995 1054 995 1054 976.5 1056.5 c 128,-1,6
 958 1059 958 1059 933 1061.5 c 128,-1,7
 908 1064 908 1064 882 1066.5 c 128,-1,8
 856 1069 856 1069 839 1069 c 0,9,10
 818 1069 818 1069 784.5 1065.5 c 128,-1,11
 751 1062 751 1062 718.5 1051.5 c 128,-1,12
 686 1041 686 1041 663 1021.5 c 128,-1,13
 640 1002 640 1002 640 970 c 0,14,15
 640 931 640 931 664.5 899.5 c 128,-1,16
 689 868 689 868 726 837.5 c 128,-1,17
 763 807 763 807 806 774.5 c 128,-1,18
 849 742 849 742 886 702 c 128,-1,19
 923 662 923 662 947.5 611.5 c 128,-1,20
 972 561 972 561 972 495 c 0,21,22
 972 439 972 439 949 390.5 c 128,-1,23
 926 342 926 342 886 300.5 c 128,-1,24
 846 259 846 259 793.5 225.5 c 128,-1,25
 741 192 741 192 683 167 c 1,26,27
 682 150 682 150 679.5 117 c 128,-1,28
 677 84 677 84 674 43.5 c 128,-1,29
 671 3 671 3 668 -40 c 128,-1,30
 665 -83 665 -83 663 -120 c 1,31,-1
 584 -118 l 2,32,33
 571 -118 571 -118 542.5 -119.5 c 128,-1,34
 514 -121 514 -121 479.5 -123.5 c 128,-1,35
 445 -126 445 -126 409.5 -127.5 c 128,-1,36
 374 -129 374 -129 346 -129 c 1,37,-1
 357 62 l 1,38,-1
 278 59 l 2,39,40
 243 57 243 57 202 55.5 c 128,-1,41
 161 54 161 54 123 55 c 1,42,43
 138 133 138 133 156 206.5 c 128,-1,44
 174 280 174 280 191 358 c 1,45,46
 258 364 258 364 319.5 378.5 c 128,-1,47
 381 393 381 393 428.5 414.5 c 128,-1,48
 476 436 476 436 504 463 c 128,-1,49
 532 490 532 490 532 520 c 0,50,51
 532 538 532 538 524.5 558.5 c 128,-1,52
 517 579 517 579 494 605 c 128,-1,53
 471 631 471 631 428.5 664.5 c 128,-1,54
 386 698 386 698 315 742 c 0,55,56
 227 796 227 796 189 859 c 128,-1,57
 151 922 151 922 151 997 c 0,58,59
 151 1047 151 1047 178 1098.5 c 128,-1,60
 205 1150 205 1150 247.5 1193.5 c 128,-1,61
 290 1237 290 1237 343.5 1268 c 128,-1,62
 397 1299 397 1299 451 1309 c 1,63,-1
 482 1500 l 2,64,65
 484 1513 484 1513 484.5 1522 c 128,-1,66
 485 1531 485 1531 486 1536.5 c 128,-1,67
 487 1542 487 1542 490 1545 c 128,-1,68
 493 1548 493 1548 501 1549 c 0,69,70
 571 1554 571 1554 646.5 1560.5 c 128,-1,71
 722 1567 722 1567 794 1578 c 0,72,73
 800 1578 800 1578 801.5 1576 c 128,-1,74
 803 1574 803 1574 803 1571 c 0,75,76
 803 1569 803 1569 799 1548.5 c 128,-1,77
 795 1528 795 1528 788.5 1498 c 128,-1,78
 782 1468 782 1468 775 1433 c 128,-1,79
 768 1398 768 1398 762 1367 c 1,0,1
EndSplineSet
EndChar

StartChar: percent
Encoding: 37 37 8
Width: 2193
GlyphClass: 2
Flags: W
LayerCount: 2
Fore
SplineSet
1057 864 m 0,0,1
 1136 961 1136 961 1219 1062 c 128,-1,2
 1302 1163 1302 1163 1383 1263 c 0,3,4
 1395 1278 1395 1278 1401 1285 c 128,-1,5
 1407 1292 1407 1292 1417 1292 c 0,6,7
 1424 1292 1424 1292 1426 1291 c 0,8,9
 1475 1252 1475 1252 1521.5 1217 c 128,-1,10
 1568 1182 1568 1182 1616 1153 c 1,11,12
 1624 1150 1624 1150 1636.5 1143.5 c 128,-1,13
 1649 1137 1649 1137 1649 1129 c 0,14,15
 1649 1125 1649 1125 1646 1122 c 2,16,-1
 858 167 l 2,17,18
 850 157 850 157 848.5 152.5 c 128,-1,19
 847 148 847 148 838 148 c 0,20,21
 833 148 833 148 826.5 149.5 c 128,-1,22
 820 151 820 151 809 153 c 1,23,24
 752 200 752 200 717.5 226 c 128,-1,25
 683 252 683 252 663.5 266 c 128,-1,26
 644 280 644 280 636 285 c 128,-1,27
 628 290 628 290 623 295 c 1,28,29
 615 300 615 300 614 308 c 128,-1,30
 613 316 613 316 613 328 c 1,31,32
 672 395 672 395 726.5 460 c 128,-1,33
 781 525 781 525 834.5 590.5 c 128,-1,34
 888 656 888 656 942.5 723.5 c 128,-1,35
 997 791 997 791 1057 864 c 0,0,1
152 1127 m 0,36,37
 152 1226 152 1226 178.5 1311 c 128,-1,38
 205 1396 205 1396 258 1458.5 c 128,-1,39
 311 1521 311 1521 390.5 1557 c 128,-1,40
 470 1593 470 1593 576 1593 c 0,41,42
 676 1593 676 1593 749.5 1557 c 128,-1,43
 823 1521 823 1521 871 1461.5 c 128,-1,44
 919 1402 919 1402 942 1325 c 128,-1,45
 965 1248 965 1248 965 1166 c 0,46,47
 965 1059 965 1059 935 974.5 c 128,-1,48
 905 890 905 890 850 831.5 c 128,-1,49
 795 773 795 773 718 742 c 128,-1,50
 641 711 641 711 548 711 c 0,51,52
 461 711 461 711 388 740.5 c 128,-1,53
 315 770 315 770 262.5 824 c 128,-1,54
 210 878 210 878 181 955 c 128,-1,55
 152 1032 152 1032 152 1127 c 0,36,37
408 1147 m 0,56,57
 408 1108 408 1108 414 1068 c 128,-1,58
 420 1028 420 1028 436.5 995.5 c 128,-1,59
 453 963 453 963 481 942.5 c 128,-1,60
 509 922 509 922 553 922 c 0,61,62
 600 922 600 922 631 945.5 c 128,-1,63
 662 969 662 969 680.5 1005 c 128,-1,64
 699 1041 699 1041 706.5 1084.5 c 128,-1,65
 714 1128 714 1128 714 1169 c 0,66,67
 714 1203 714 1203 706.5 1241.5 c 128,-1,68
 699 1280 699 1280 682.5 1313 c 128,-1,69
 666 1346 666 1346 638.5 1367.5 c 128,-1,70
 611 1389 611 1389 571 1389 c 0,71,72
 523 1389 523 1389 492 1367 c 128,-1,73
 461 1345 461 1345 442 1310 c 128,-1,74
 423 1275 423 1275 415.5 1232 c 128,-1,75
 408 1189 408 1189 408 1147 c 0,56,57
1363 364 m 0,76,77
 1363 463 1363 463 1389.5 548 c 128,-1,78
 1416 633 1416 633 1469 695.5 c 128,-1,79
 1522 758 1522 758 1601.5 794 c 128,-1,80
 1681 830 1681 830 1787 830 c 0,81,82
 1887 830 1887 830 1960.5 794 c 128,-1,83
 2034 758 2034 758 2082 698.5 c 128,-1,84
 2130 639 2130 639 2153 562 c 128,-1,85
 2176 485 2176 485 2176 403 c 0,86,87
 2176 296 2176 296 2146 211.5 c 128,-1,88
 2116 127 2116 127 2061 68.5 c 128,-1,89
 2006 10 2006 10 1929 -21 c 128,-1,90
 1852 -52 1852 -52 1759 -52 c 0,91,92
 1672 -52 1672 -52 1599 -22.5 c 128,-1,93
 1526 7 1526 7 1473.5 61 c 128,-1,94
 1421 115 1421 115 1392 192 c 128,-1,95
 1363 269 1363 269 1363 364 c 0,76,77
1619 384 m 0,96,97
 1619 345 1619 345 1625 305 c 128,-1,98
 1631 265 1631 265 1647.5 232.5 c 128,-1,99
 1664 200 1664 200 1692 179.5 c 128,-1,100
 1720 159 1720 159 1764 159 c 0,101,102
 1811 159 1811 159 1842 182.5 c 128,-1,103
 1873 206 1873 206 1891.5 242 c 128,-1,104
 1910 278 1910 278 1917.5 321.5 c 128,-1,105
 1925 365 1925 365 1925 406 c 0,106,107
 1925 440 1925 440 1917.5 478.5 c 128,-1,108
 1910 517 1910 517 1893.5 550 c 128,-1,109
 1877 583 1877 583 1849.5 604.5 c 128,-1,110
 1822 626 1822 626 1782 626 c 0,111,112
 1734 626 1734 626 1703 604 c 128,-1,113
 1672 582 1672 582 1653 547 c 128,-1,114
 1634 512 1634 512 1626.5 469 c 128,-1,115
 1619 426 1619 426 1619 384 c 0,96,97
EndSplineSet
EndChar

StartChar: ampersand
Encoding: 38 38 9
Width: 1560
GlyphClass: 2
Flags: W
LayerCount: 2
Fore
SplineSet
80 297 m 0,0,1
 80 328 80 328 82.5 356.5 c 128,-1,2
 85 385 85 385 96 415 c 128,-1,3
 107 445 107 445 130.5 477.5 c 128,-1,4
 154 510 154 510 195 550 c 128,-1,5
 236 590 236 590 298.5 639 c 128,-1,6
 361 688 361 688 451 750 c 1,7,8
 388 834 388 834 358 919 c 128,-1,9
 328 1004 328 1004 328 1085 c 0,10,11
 328 1160 328 1160 363.5 1226 c 128,-1,12
 399 1292 399 1292 468 1341.5 c 128,-1,13
 537 1391 537 1391 637.5 1419.5 c 128,-1,14
 738 1448 738 1448 869 1448 c 0,15,16
 896 1448 896 1448 930.5 1441.5 c 128,-1,17
 965 1435 965 1435 1000.5 1421 c 128,-1,18
 1036 1407 1036 1407 1070 1384 c 128,-1,19
 1104 1361 1104 1361 1130.5 1327.5 c 128,-1,20
 1157 1294 1157 1294 1173.5 1250 c 128,-1,21
 1190 1206 1190 1206 1190 1149 c 0,22,23
 1190 1096 1190 1096 1172.5 1053.5 c 128,-1,24
 1155 1011 1155 1011 1119.5 967.5 c 128,-1,25
 1084 924 1084 924 1029.5 874.5 c 128,-1,26
 975 825 975 825 901 759 c 1,27,-1
 1139 568 l 2,28,29
 1150 558 1150 558 1160.5 549 c 128,-1,30
 1171 540 1171 540 1183 541 c 1,31,32
 1188 549 1188 549 1193.5 550 c 128,-1,33
 1199 551 1199 551 1205 551 c 1,34,-1
 1432 762 l 1,35,36
 1450 755 1450 755 1477.5 734 c 128,-1,37
 1505 713 1505 713 1530.5 687 c 128,-1,38
 1556 661 1556 661 1574 633.5 c 128,-1,39
 1592 606 1592 606 1592 587 c 0,40,41
 1592 575 1592 575 1588 568 c 1,42,-1
 1407 377 l 1,43,-1
 1418 368 l 1,44,45
 1427 362 1427 362 1439.5 352.5 c 128,-1,46
 1452 343 1452 343 1467.5 331.5 c 128,-1,47
 1483 320 1483 320 1500.5 307.5 c 128,-1,48
 1518 295 1518 295 1536 283 c 0,49,50
 1546 276 1546 276 1548 268 c 128,-1,51
 1550 260 1550 260 1550 258 c 0,52,53
 1550 244 1550 244 1538 223 c 128,-1,54
 1526 202 1526 202 1507.5 178 c 128,-1,55
 1489 154 1489 154 1466.5 128.5 c 128,-1,56
 1444 103 1444 103 1422 80.5 c 128,-1,57
 1400 58 1400 58 1381 39.5 c 128,-1,58
 1362 21 1362 21 1352 12 c 0,59,60
 1342 2 1342 2 1331 2 c 0,61,62
 1323 2 1323 2 1317 8 c 1,63,-1
 1116 131 l 1,64,65
 1015 77 1015 77 938.5 42 c 128,-1,66
 862 7 862 7 795.5 -14 c 128,-1,67
 729 -35 729 -35 665.5 -43 c 128,-1,68
 602 -51 602 -51 526 -51 c 0,69,70
 442 -51 442 -51 362 -30 c 128,-1,71
 282 -9 282 -9 219.5 34.5 c 128,-1,72
 157 78 157 78 118.5 143 c 128,-1,73
 80 208 80 208 80 297 c 0,0,1
514 361 m 0,74,75
 514 339 514 339 520 316.5 c 128,-1,76
 526 294 526 294 541 275.5 c 128,-1,77
 556 257 556 257 582 245 c 128,-1,78
 608 233 608 233 649 233 c 0,79,80
 662 233 662 233 685 235 c 128,-1,81
 708 237 708 237 737 246 c 128,-1,82
 766 255 766 255 801.5 273.5 c 128,-1,83
 837 292 837 292 876 325 c 1,84,-1
 638 556 l 1,85,86
 616 544 616 544 594 529 c 128,-1,87
 572 514 572 514 554 491.5 c 128,-1,88
 536 469 536 469 525 437.5 c 128,-1,89
 514 406 514 406 514 361 c 0,74,75
791 1214 m 0,90,91
 759 1214 759 1214 735.5 1204 c 128,-1,92
 712 1194 712 1194 697 1177.5 c 128,-1,93
 682 1161 682 1161 674.5 1139.5 c 128,-1,94
 667 1118 667 1118 667 1094 c 0,95,96
 667 1057 667 1057 683.5 1018.5 c 128,-1,97
 700 980 700 980 732 951 c 1,98,99
 810 1003 810 1003 843.5 1052.5 c 128,-1,100
 877 1102 877 1102 877 1140 c 0,101,102
 877 1174 877 1174 854 1194 c 128,-1,103
 831 1214 831 1214 791 1214 c 0,90,91
EndSplineSet
EndChar

StartChar: quotesingle
Encoding: 39 39 10
Width: 548
GlyphClass: 2
Flags: W
LayerCount: 2
Fore
SplineSet
200 784 m 0,0,1
 193 925 193 925 187 1080 c 128,-1,2
 181 1235 181 1235 174 1386 c 1,3,-1
 174 1399 l 2,4,5
 174 1425 174 1425 180 1434.5 c 128,-1,6
 186 1444 186 1444 203 1447 c 1,7,8
 251 1447 251 1447 303 1447.5 c 128,-1,9
 355 1448 355 1448 407.5 1448 c 128,-1,10
 460 1448 460 1448 511 1448.5 c 128,-1,11
 562 1449 562 1449 608 1449 c 0,12,13
 617 1449 617 1449 623 1444 c 128,-1,14
 629 1439 629 1439 629 1425 c 2,15,-1
 629 1419 l 1,16,-1
 473 782 l 2,17,18
 469 766 469 766 466.5 754.5 c 128,-1,19
 464 743 464 743 460.5 736 c 128,-1,20
 457 729 457 729 451.5 725.5 c 128,-1,21
 446 722 446 722 437 722 c 0,22,23
 383 722 383 722 332 721 c 128,-1,24
 281 720 281 720 221 720 c 0,25,26
 213 720 213 720 209 728 c 128,-1,27
 205 736 205 736 203 746.5 c 128,-1,28
 201 757 201 757 200.5 768 c 128,-1,29
 200 779 200 779 200 784 c 0,0,1
EndSplineSet
EndChar

StartChar: parenleft
Encoding: 40 40 11
Width: 837
GlyphClass: 2
Flags: W
LayerCount: 2
Fore
SplineSet
773 93 m 0,0,1
 767 51 767 51 760.5 18.5 c 128,-1,2
 754 -14 754 -14 747 -44.5 c 128,-1,3
 740 -75 740 -75 733 -107 c 128,-1,4
 726 -139 726 -139 718 -181 c 0,5,6
 714 -200 714 -200 697 -200 c 0,7,8
 695 -200 695 -200 694 -199.5 c 128,-1,9
 693 -199 693 -199 691 -199 c 0,10,11
 535 -175 535 -175 423 -108.5 c 128,-1,12
 311 -42 311 -42 239 54.5 c 128,-1,13
 167 151 167 151 133.5 271 c 128,-1,14
 100 391 100 391 100 522 c 0,15,16
 100 581 100 581 109 660.5 c 128,-1,17
 118 740 118 740 141.5 827 c 128,-1,18
 165 914 165 914 205.5 1003 c 128,-1,19
 246 1092 246 1092 310 1170 c 0,20,21
 349 1218 349 1218 407 1272 c 128,-1,22
 465 1326 465 1326 537 1373 c 128,-1,23
 609 1420 609 1420 693.5 1454 c 128,-1,24
 778 1488 778 1488 870 1497 c 0,25,26
 875 1497 875 1497 881.5 1491.5 c 128,-1,27
 888 1486 888 1486 890 1467 c 2,28,29
 890 1467 890 1467 893 1435.5 c 128,-1,30
 896 1404 896 1404 899.5 1360.5 c 128,-1,31
 903 1317 903 1317 906 1270 c 128,-1,32
 909 1223 909 1223 909 1191 c 0,33,34
 909 1174 909 1174 902 1168 c 128,-1,35
 895 1162 895 1162 879 1157 c 0,36,37
 801 1135 801 1135 735 1075.5 c 128,-1,38
 669 1016 669 1016 621 933.5 c 128,-1,39
 573 851 573 851 545.5 751.5 c 128,-1,40
 518 652 518 652 518 550 c 0,41,42
 518 482 518 482 531 417 c 128,-1,43
 544 352 544 352 572.5 297 c 128,-1,44
 601 242 601 242 646 201.5 c 128,-1,45
 691 161 691 161 754 142 c 0,46,47
 762 140 762 140 768 133 c 128,-1,48
 774 126 774 126 774 109 c 0,49,50
 774 105 774 105 774 101.5 c 128,-1,51
 774 98 774 98 773 93 c 0,0,1
EndSplineSet
EndChar

StartChar: parenright
Encoding: 41 41 12
Width: 839
GlyphClass: 2
Flags: W
LayerCount: 2
Fore
SplineSet
85 93 m 1,0,1
 86 120 86 120 94 129.5 c 128,-1,2
 102 139 102 139 112 142 c 0,3,4
 193 166 193 166 252.5 221 c 128,-1,5
 312 276 312 276 350.5 349.5 c 128,-1,6
 389 423 389 423 408 508 c 128,-1,7
 427 593 427 593 427 677 c 0,8,9
 427 762 427 762 408.5 840.5 c 128,-1,10
 390 919 390 919 355 983 c 128,-1,11
 320 1047 320 1047 270 1092.5 c 128,-1,12
 220 1138 220 1138 158 1157 c 0,13,14
 145 1161 145 1161 139 1165 c 128,-1,15
 133 1169 133 1169 133 1180 c 0,16,17
 133 1188 133 1188 134 1191 c 0,18,19
 140 1223 140 1223 150.5 1270 c 128,-1,20
 161 1317 161 1317 171.5 1360.5 c 128,-1,21
 182 1404 182 1404 190.5 1435 c 128,-1,22
 199 1466 199 1466 199 1467 c 0,23,24
 204 1486 204 1486 212 1491.5 c 128,-1,25
 220 1497 220 1497 225 1497 c 0,26,27
 316 1488 316 1488 394.5 1454 c 128,-1,28
 473 1420 473 1420 537 1373 c 128,-1,29
 601 1326 601 1326 649.5 1272 c 128,-1,30
 698 1218 698 1218 729 1170 c 0,31,32
 762 1118 762 1118 784.5 1061 c 128,-1,33
 807 1004 807 1004 820.5 945.5 c 128,-1,34
 834 887 834 887 840 828.5 c 128,-1,35
 846 770 846 770 846 716 c 0,36,37
 846 611 846 611 827.5 508 c 128,-1,38
 809 405 809 405 770.5 309.5 c 128,-1,39
 732 214 732 214 673 130 c 128,-1,40
 614 46 614 46 533 -21 c 128,-1,41
 452 -88 452 -88 348.5 -134 c 128,-1,42
 245 -180 245 -180 118 -199 c 0,43,44
 116 -199 116 -199 115 -199.5 c 128,-1,45
 114 -200 114 -200 112 -200 c 0,46,47
 94 -200 94 -200 94 -181 c 0,48,49
 94 -147 94 -147 92.5 -119 c 128,-1,50
 91 -91 91 -91 89.5 -65.5 c 128,-1,51
 88 -40 88 -40 86.5 -15 c 128,-1,52
 85 10 85 10 85 39 c 2,53,-1
 85 93 l 1,54,-1
 85 93 l 1,0,1
EndSplineSet
EndChar

StartChar: asterisk
Encoding: 42 42 13
Width: 1275
GlyphClass: 2
Flags: W
LayerCount: 2
Fore
SplineSet
434 512 m 1,0,-1
 330 585 l 1,1,2
 224 654 224 654 170 690.5 c 128,-1,3
 116 727 116 727 116 748 c 0,4,5
 116 753 116 753 120.5 762.5 c 128,-1,6
 125 772 125 772 135 787.5 c 128,-1,7
 145 803 145 803 161 826.5 c 128,-1,8
 177 850 177 850 200 883 c 2,9,-1
 256 965 l 1,10,11
 262 970 262 970 267.5 973.5 c 128,-1,12
 273 977 273 977 280 977 c 0,13,14
 293 977 293 977 314 959 c 2,15,-1
 384 900 l 2,16,17
 416 873 416 873 456 840 c 128,-1,18
 496 807 496 807 538 772 c 1,19,-1
 542 816 l 2,20,21
 552 927 552 927 558.5 989 c 128,-1,22
 565 1051 565 1051 571 1082 c 128,-1,23
 577 1113 577 1113 584 1121.5 c 128,-1,24
 591 1130 591 1130 603 1132 c 1,25,-1
 621 1132 l 2,26,27
 633 1132 633 1132 664 1131 c 128,-1,28
 695 1130 695 1130 729.5 1129.5 c 128,-1,29
 764 1129 764 1129 795.5 1128.5 c 128,-1,30
 827 1128 827 1128 839 1128 c 2,31,-1
 845 1128 l 1,32,33
 859 1124 859 1124 866 1117.5 c 128,-1,34
 873 1111 873 1111 873 1093 c 0,35,36
 873 1089 873 1089 873 1085 c 128,-1,37
 873 1081 873 1081 872 1076 c 2,38,-1
 857 987 l 2,39,40
 850 945 850 945 843.5 893 c 128,-1,41
 837 841 837 841 831 784 c 1,42,43
 867 818 867 818 904 854 c 128,-1,44
 941 890 941 890 973 919.5 c 128,-1,45
 1005 949 1005 949 1030 968 c 128,-1,46
 1055 987 1055 987 1067 987 c 0,47,48
 1074 987 1074 987 1079.5 983.5 c 128,-1,49
 1085 980 1085 980 1091 975 c 1,50,-1
 1147 893 l 2,51,52
 1169 861 1169 861 1184.5 838 c 128,-1,53
 1200 815 1200 815 1210.5 799 c 128,-1,54
 1221 783 1221 783 1226 773.5 c 128,-1,55
 1231 764 1231 764 1231 758 c 0,56,57
 1231 750 1231 750 1227.5 743 c 128,-1,58
 1224 736 1224 736 1212.5 726.5 c 128,-1,59
 1201 717 1201 717 1180 702 c 128,-1,60
 1159 687 1159 687 1123.5 662.5 c 128,-1,61
 1088 638 1088 638 1036 601.5 c 128,-1,62
 984 565 984 565 912 512 c 1,63,-1
 1176 307 l 2,64,65
 1199 288 1199 288 1208 277.5 c 128,-1,66
 1217 267 1217 267 1218 259 c 0,67,68
 1218 251 1218 251 1210 241 c 128,-1,69
 1202 231 1202 231 1191 212 c 0,70,71
 1180 194 1180 194 1152 157 c 128,-1,72
 1124 120 1124 120 1071 47 c 0,73,74
 1063 36 1063 36 1050 36 c 0,75,76
 1034 36 1034 36 1016 51 c 2,77,-1
 795 226 l 1,78,-1
 776 -19 l 2,79,80
 774 -41 774 -41 771.5 -54 c 128,-1,81
 769 -67 769 -67 765.5 -73.5 c 128,-1,82
 762 -80 762 -80 756.5 -82 c 128,-1,83
 751 -84 751 -84 742 -84 c 2,84,-1
 722 -84 l 2,85,86
 716 -84 716 -84 709 -84.5 c 128,-1,87
 702 -85 702 -85 692 -85 c 0,88,89
 669 -85 669 -85 624 -81.5 c 128,-1,90
 579 -78 579 -78 501 -74 c 0,91,92
 489 -73 489 -73 481.5 -62.5 c 128,-1,93
 474 -52 474 -52 474 -32 c 1,94,-1
 502 219 l 1,95,-1
 321 91 l 2,96,97
 311 84 311 84 303 80 c 128,-1,98
 295 76 295 76 287 76 c 0,99,100
 274 76 274 76 266 87 c 1,101,102
 217 142 217 142 190.5 170 c 128,-1,103
 164 198 164 198 156 212 c 0,104,105
 145 231 145 231 137 241 c 128,-1,106
 129 251 129 251 129 259 c 256,107,108
 129 267 129 267 138 277.5 c 128,-1,109
 147 288 147 288 171 307 c 2,110,-1
 434 512 l 1,0,-1
EndSplineSet
EndChar

StartChar: plus
Encoding: 43 43 14
Width: 961
GlyphClass: 2
Flags: W
LayerCount: 2
Fore
SplineSet
378 527 m 1,0,1
 327 526 327 526 288.5 526 c 128,-1,2
 250 526 250 526 227 526 c 0,3,4
 167 526 167 526 137.5 531.5 c 128,-1,5
 108 537 108 537 108 554 c 0,6,7
 108 563 108 563 113.5 591.5 c 128,-1,8
 119 620 119 620 126.5 655.5 c 128,-1,9
 134 691 134 691 141.5 727.5 c 128,-1,10
 149 764 149 764 154 789 c 0,11,12
 156 801 156 801 169.5 811 c 128,-1,13
 183 821 183 821 205 822 c 2,14,-1
 406 825 l 1,15,-1
 408 846 l 1,16,17
 413 914 413 914 415 963 c 128,-1,18
 417 1012 417 1012 421.5 1043 c 128,-1,19
 426 1074 426 1074 436 1088.5 c 128,-1,20
 446 1103 446 1103 467 1103 c 0,21,22
 469 1103 469 1103 471.5 1102.5 c 128,-1,23
 474 1102 474 1102 477 1102 c 0,24,25
 483 1102 483 1102 495.5 1102.5 c 128,-1,26
 508 1103 508 1103 524 1103.5 c 128,-1,27
 540 1104 540 1104 559 1104.5 c 128,-1,28
 578 1105 578 1105 596 1105 c 2,29,-1
 691 1108 l 1,30,31
 705 1104 705 1104 712 1097.5 c 128,-1,32
 719 1091 719 1091 719 1073 c 0,33,34
 719 1071 719 1071 719 1070 c 128,-1,35
 719 1069 719 1069 718.5 1063 c 128,-1,36
 718 1057 718 1057 717 1044 c 128,-1,37
 716 1031 716 1031 714 1005 c 128,-1,38
 712 979 712 979 708.5 936.5 c 128,-1,39
 705 894 705 894 700 830 c 1,40,-1
 717 831 l 1,41,42
 754 832 754 832 789.5 833 c 128,-1,43
 825 834 825 834 854.5 834.5 c 128,-1,44
 884 835 884 835 905.5 835.5 c 128,-1,45
 927 836 927 836 936 836 c 0,46,47
 944 836 944 836 954 830 c 128,-1,48
 964 824 964 824 964 807 c 1,49,50
 963 805 963 805 959 768 c 128,-1,51
 955 731 955 731 948 667 c 2,52,-1
 937 570 l 1,53,54
 931 556 931 556 925.5 549.5 c 128,-1,55
 920 543 920 543 909 540 c 128,-1,56
 898 537 898 537 877.5 536.5 c 128,-1,57
 857 536 857 536 822 535 c 2,58,-1
 676 532 l 1,59,-1
 663 386 l 2,60,61
 660 348 660 348 655.5 323.5 c 128,-1,62
 651 299 651 299 645 285 c 128,-1,63
 639 271 639 271 630.5 265.5 c 128,-1,64
 622 260 622 260 611 260 c 0,65,66
 594 260 594 260 565 260.5 c 128,-1,67
 536 261 536 261 503.5 262 c 128,-1,68
 471 263 471 263 439 263.5 c 128,-1,69
 407 264 407 264 385 264 c 1,70,71
 373 266 373 266 365.5 276 c 128,-1,72
 358 286 358 286 358 306 c 2,73,-1
 358 312 l 1,74,-1
 378 527 l 1,0,1
EndSplineSet
EndChar

StartChar: comma
Encoding: 44 44 15
Width: 587
GlyphClass: 2
Flags: W
LayerCount: 2
Fore
SplineSet
260 -332 m 0,0,1
 249 -326 249 -326 242.5 -323.5 c 128,-1,2
 236 -321 236 -321 224.5 -315 c 128,-1,3
 213 -309 213 -309 190.5 -297.5 c 128,-1,4
 168 -286 168 -286 125 -262 c 0,5,6
 93 -245 93 -245 93 -234 c 0,7,8
 93 -231 93 -231 96 -226 c 0,9,10
 125 -181 125 -181 156.5 -131.5 c 128,-1,11
 188 -82 188 -82 217 -31 c 1,12,-1
 132 -30 l 1,13,-1
 114 -30 l 2,14,15
 100 -30 100 -30 91 -28.5 c 128,-1,16
 82 -27 82 -27 82 -20 c 2,17,-1
 82 -18 l 1,18,19
 86 25 86 25 88.5 49.5 c 128,-1,20
 91 74 91 74 92 87.5 c 128,-1,21
 93 101 93 101 93.5 107 c 128,-1,22
 94 113 94 113 94.5 118 c 128,-1,23
 95 123 95 123 95.5 130 c 128,-1,24
 96 137 96 137 97 154 c 128,-1,25
 98 171 98 171 100.5 200.5 c 128,-1,26
 103 230 103 230 107 279 c 0,27,28
 109 312 109 312 113.5 325 c 128,-1,29
 118 338 118 338 136 340 c 1,30,31
 181 340 181 340 230 340.5 c 128,-1,32
 279 341 279 341 327.5 341.5 c 128,-1,33
 376 342 376 342 423.5 342 c 128,-1,34
 471 342 471 342 515 342 c 0,35,36
 532 342 532 342 532 318 c 1,37,-1
 514 74 l 1,38,39
 511 51 511 51 508.5 36 c 128,-1,40
 506 21 506 21 503.5 8.5 c 128,-1,41
 501 -4 501 -4 497.5 -16 c 128,-1,42
 494 -28 494 -28 489 -44 c 1,43,44
 483 -58 483 -58 469 -80.5 c 128,-1,45
 455 -103 455 -103 437 -129 c 128,-1,46
 419 -155 419 -155 399.5 -181.5 c 128,-1,47
 380 -208 380 -208 363 -231.5 c 128,-1,48
 346 -255 346 -255 333 -272 c 128,-1,49
 320 -289 320 -289 316 -295 c 0,50,51
 313 -299 313 -299 308.5 -305.5 c 128,-1,52
 304 -312 304 -312 298 -318.5 c 128,-1,53
 292 -325 292 -325 285 -330 c 128,-1,54
 278 -335 278 -335 271 -335 c 0,55,56
 266 -335 266 -335 260 -332 c 0,0,1
EndSplineSet
EndChar

StartChar: hyphen
Encoding: 45 45 16
Width: 958
GlyphClass: 2
Flags: W
LayerCount: 2
Fore
SplineSet
645 845 m 2,0,1
 696 847 696 847 744.5 848.5 c 128,-1,2
 793 850 793 850 833 851.5 c 128,-1,3
 873 853 873 853 902.5 854.5 c 128,-1,4
 932 856 932 856 944 856 c 0,5,6
 952 856 952 856 962 850 c 128,-1,7
 972 844 972 844 972 827 c 0,8,9
 972 818 972 818 962.5 794 c 128,-1,10
 953 770 953 770 938 735.5 c 128,-1,11
 923 701 923 701 904 658.5 c 128,-1,12
 885 616 885 616 865 570 c 0,13,14
 861 561 861 561 857.5 555 c 128,-1,15
 854 549 854 549 848.5 544.5 c 128,-1,16
 843 540 843 540 834 538 c 128,-1,17
 825 536 825 536 810 536 c 0,18,19
 720 534 720 534 630 532.5 c 128,-1,20
 540 531 540 531 460.5 529.5 c 128,-1,21
 381 528 381 528 317 527 c 128,-1,22
 253 526 253 526 215 526 c 0,23,24
 155 526 155 526 125.5 531.5 c 128,-1,25
 96 537 96 537 96 554 c 0,26,27
 96 559 96 559 108.5 581.5 c 128,-1,28
 121 604 121 604 141 634.5 c 128,-1,29
 161 665 161 665 186.5 699.5 c 128,-1,30
 212 734 212 734 237 763 c 128,-1,31
 262 792 262 792 285 811.5 c 128,-1,32
 308 831 308 831 323 832 c 2,33,-1
 645 845 l 2,0,1
EndSplineSet
EndChar

StartChar: period
Encoding: 46 46 17
Width: 573
GlyphClass: 2
Flags: W
LayerCount: 2
Fore
SplineSet
90 -38 m 1,0,1
 92 9 92 9 93 36.5 c 128,-1,2
 94 64 94 64 94.5 79 c 128,-1,3
 95 94 95 94 95 100 c 128,-1,4
 95 106 95 106 95 111.5 c 128,-1,5
 95 117 95 117 95.5 125 c 128,-1,6
 96 133 96 133 97 151.5 c 128,-1,7
 98 170 98 170 100 202.5 c 128,-1,8
 102 235 102 235 105 289 c 0,9,10
 107 322 107 322 111.5 334.5 c 128,-1,11
 116 347 116 347 134 350 c 1,12,13
 222 350 222 350 318 350.5 c 128,-1,14
 414 351 414 351 499 352 c 0,15,16
 508 352 508 352 514 347 c 128,-1,17
 520 342 520 342 520 328 c 1,18,-1
 492 14 l 1,19,20
 488 -19 488 -19 484.5 -31.5 c 128,-1,21
 481 -44 481 -44 462 -46 c 1,22,23
 377 -47 377 -47 287.5 -48 c 128,-1,24
 198 -49 198 -49 101 -49 c 0,25,26
 95 -49 95 -49 92.5 -48 c 128,-1,27
 90 -47 90 -47 90 -42 c 2,28,-1
 90 -38 l 1,0,1
EndSplineSet
EndChar

StartChar: slash
Encoding: 47 47 18
Width: 872
GlyphClass: 2
Flags: W
LayerCount: 2
Fore
SplineSet
444 943 m 0,0,1
 505 1075 505 1075 561 1207 c 128,-1,2
 617 1339 617 1339 677 1476 c 0,3,4
 690 1505 690 1505 697 1516.5 c 128,-1,5
 704 1528 704 1528 718 1528 c 2,6,-1
 725 1528 l 1,7,8
 779 1506 779 1506 831.5 1480.5 c 128,-1,9
 884 1455 884 1455 937 1445 c 0,10,11
 943 1443 943 1443 947.5 1440 c 128,-1,12
 952 1437 952 1437 952 1432 c 2,13,-1
 952 1429 l 1,14,-1
 311 15 l 2,15,16
 307 6 307 6 305 -2 c 128,-1,17
 303 -10 303 -10 300.5 -16 c 128,-1,18
 298 -22 298 -22 294 -25.5 c 128,-1,19
 290 -29 290 -29 282 -29 c 0,20,21
 270 -29 270 -29 256 -22 c 1,22,-1
 155 20 l 2,23,24
 147 23 147 23 131 28.5 c 128,-1,25
 115 34 115 34 98.5 41.5 c 128,-1,26
 82 49 82 49 69.5 59 c 128,-1,27
 57 69 57 69 57 82 c 0,28,29
 57 91 57 91 62 101 c 0,30,31
 108 198 108 198 150.5 291.5 c 128,-1,32
 193 385 193 385 237.5 485.5 c 128,-1,33
 282 586 282 586 332 697.5 c 128,-1,34
 382 809 382 809 444 943 c 0,0,1
EndSplineSet
EndChar

StartChar: zero
Encoding: 48 48 19
Width: 1629
GlyphClass: 2
Flags: W
LayerCount: 2
Fore
SplineSet
138 678 m 0,0,1
 138 849 138 849 186.5 998 c 128,-1,2
 235 1147 235 1147 331.5 1257.5 c 128,-1,3
 428 1368 428 1368 572.5 1431 c 128,-1,4
 717 1494 717 1494 910 1494 c 0,5,6
 1031 1494 1031 1494 1131 1465.5 c 128,-1,7
 1231 1437 1231 1437 1309 1386.5 c 128,-1,8
 1387 1336 1387 1336 1445 1266 c 128,-1,9
 1503 1196 1503 1196 1541 1113.5 c 128,-1,10
 1579 1031 1579 1031 1597.5 939 c 128,-1,11
 1616 847 1616 847 1616 752 c 0,12,13
 1616 563 1616 563 1561 413.5 c 128,-1,14
 1506 264 1506 264 1406 160.5 c 128,-1,15
 1306 57 1306 57 1166 2.5 c 128,-1,16
 1026 -52 1026 -52 856 -52 c 0,17,18
 698 -52 698 -52 566 -0.5 c 128,-1,19
 434 51 434 51 339 146.5 c 128,-1,20
 244 242 244 242 191 376.5 c 128,-1,21
 138 511 138 511 138 678 c 0,0,1
570 717 m 0,22,23
 570 637 570 637 582.5 555 c 128,-1,24
 595 473 595 473 628 406 c 128,-1,25
 661 339 661 339 718.5 297 c 128,-1,26
 776 255 776 255 865 255 c 0,27,28
 929 255 929 255 978 277 c 128,-1,29
 1027 299 1027 299 1063 336.5 c 128,-1,30
 1099 374 1099 374 1124 423.5 c 128,-1,31
 1149 473 1149 473 1164 529 c 128,-1,32
 1179 585 1179 585 1185.5 644 c 128,-1,33
 1192 703 1192 703 1192 758 c 0,34,35
 1192 803 1192 803 1185.5 853 c 128,-1,36
 1179 903 1179 903 1165 952.5 c 128,-1,37
 1151 1002 1151 1002 1128 1046.5 c 128,-1,38
 1105 1091 1105 1091 1073 1125.5 c 128,-1,39
 1041 1160 1041 1160 998 1180 c 128,-1,40
 955 1200 955 1200 900 1200 c 0,41,42
 835 1200 835 1200 785.5 1179.5 c 128,-1,43
 736 1159 736 1159 699 1124 c 128,-1,44
 662 1089 662 1089 637.5 1042 c 128,-1,45
 613 995 613 995 598 941.5 c 128,-1,46
 583 888 583 888 576.5 830.5 c 128,-1,47
 570 773 570 773 570 717 c 0,22,23
EndSplineSet
EndChar

StartChar: one
Encoding: 49 49 20
Width: 690
GlyphClass: 2
Flags: W
LayerCount: 2
Fore
SplineSet
225 1292 m 0,0,1
 227 1327 227 1327 230.5 1341.5 c 128,-1,2
 234 1356 234 1356 254 1360 c 2,3,-1
 600 1443 l 2,4,5
 615 1447 615 1447 626 1447 c 0,6,7
 640 1447 640 1447 645.5 1438 c 128,-1,8
 651 1429 651 1429 651 1404 c 1,9,-1
 592 167 l 2,10,11
 591 144 591 144 588 129 c 128,-1,12
 585 114 585 114 579.5 104.5 c 128,-1,13
 574 95 574 95 565 89.5 c 128,-1,14
 556 84 556 84 544 80 c 2,15,-1
 231 -12 l 2,16,17
 219 -15 219 -15 208 -15 c 0,18,19
 191 -15 191 -15 178 -5.5 c 128,-1,20
 165 4 165 4 165 30 c 2,21,22
 165 30 165 30 165 33 c 128,-1,23
 165 36 165 36 166 51.5 c 128,-1,24
 167 67 167 67 168.5 99.5 c 128,-1,25
 170 132 170 132 172.5 191.5 c 128,-1,26
 175 251 175 251 179.5 342 c 128,-1,27
 184 433 184 433 190.5 566 c 128,-1,28
 197 699 197 699 205.5 878 c 128,-1,29
 214 1057 214 1057 225 1292 c 0,0,1
EndSplineSet
EndChar

StartChar: two
Encoding: 50 50 21
Width: 1132
GlyphClass: 2
Flags: W
LayerCount: 2
Fore
SplineSet
1005 904 m 1,0,1
 997 887 997 887 978 854 c 128,-1,2
 959 821 959 821 933 778.5 c 128,-1,3
 907 736 907 736 877 687 c 128,-1,4
 847 638 847 638 816.5 589.5 c 128,-1,5
 786 541 786 541 757.5 496 c 128,-1,6
 729 451 729 451 707.5 416.5 c 128,-1,7
 686 382 686 382 673 361.5 c 128,-1,8
 660 341 660 341 660 341 c 2,9,10
 660 340 660 340 668 340 c 0,11,12
 680 340 680 340 707.5 342.5 c 128,-1,13
 735 345 735 345 771 348 c 128,-1,14
 807 351 807 351 848.5 355.5 c 128,-1,15
 890 360 890 360 930.5 363 c 128,-1,16
 971 366 971 366 1006.5 368.5 c 128,-1,17
 1042 371 1042 371 1066 371 c 0,18,19
 1117 371 1117 371 1117 349 c 0,20,21
 1117 335 1117 335 1109.5 321 c 128,-1,22
 1102 307 1102 307 1102 305 c 2,23,-1
 958 36 l 1,24,25
 956 36 956 36 955.5 31.5 c 128,-1,26
 955 27 955 27 953 27 c 1,27,28
 933 7 933 7 916 5 c 128,-1,29
 899 3 899 3 887 1 c 1,30,31
 802 0 802 0 737 -1 c 128,-1,32
 672 -2 672 -2 619.5 -2.5 c 128,-1,33
 567 -3 567 -3 524.5 -3.5 c 128,-1,34
 482 -4 482 -4 441.5 -4.5 c 128,-1,35
 401 -5 401 -5 360 -5 c 128,-1,36
 319 -5 319 -5 270 -5 c 0,37,38
 174 -5 174 -5 136.5 10 c 128,-1,39
 99 25 99 25 99 54 c 0,40,41
 99 74 99 74 112.5 99 c 128,-1,42
 126 124 126 124 147 156 c 1,43,44
 211 247 211 247 277 340.5 c 128,-1,45
 343 434 343 434 403 520 c 128,-1,46
 463 606 463 606 513 679.5 c 128,-1,47
 563 753 563 753 596 804 c 0,48,49
 622 846 622 846 634 882.5 c 128,-1,50
 646 919 646 919 646 951 c 0,51,52
 646 991 646 991 629.5 1022 c 128,-1,53
 613 1053 613 1053 583.5 1074.5 c 128,-1,54
 554 1096 554 1096 515 1107 c 128,-1,55
 476 1118 476 1118 431 1118 c 0,56,57
 374 1118 374 1118 315 1100.5 c 128,-1,58
 256 1083 256 1083 199 1046 c 0,59,60
 179 1033 179 1033 167 1033 c 0,61,62
 156 1033 156 1033 152.5 1042 c 128,-1,63
 149 1051 149 1051 149 1059 c 0,64,65
 149 1098 149 1098 159 1150 c 128,-1,66
 169 1202 169 1202 181.5 1250 c 128,-1,67
 194 1298 194 1298 204 1333 c 128,-1,68
 214 1368 214 1368 214 1373 c 1,69,70
 216 1373 216 1373 241 1391.5 c 128,-1,71
 266 1410 266 1410 319 1432.5 c 128,-1,72
 372 1455 372 1455 456.5 1474 c 128,-1,73
 541 1493 541 1493 663 1493 c 0,74,75
 735 1493 735 1493 807.5 1463.5 c 128,-1,76
 880 1434 880 1434 937.5 1382 c 128,-1,77
 995 1330 995 1330 1031 1259.5 c 128,-1,78
 1067 1189 1067 1189 1067 1108 c 0,79,80
 1067 1059 1067 1059 1052 1008.5 c 128,-1,81
 1037 958 1037 958 1005 904 c 1,0,1
EndSplineSet
EndChar

StartChar: three
Encoding: 51 51 22
Width: 1109
GlyphClass: 2
Flags: W
LayerCount: 2
Fore
SplineSet
650 -48 m 0,0,1
 629 -50 629 -50 609 -51 c 128,-1,2
 589 -52 589 -52 570 -52 c 0,3,4
 514 -52 514 -52 464.5 -45 c 128,-1,5
 415 -38 415 -38 367 -24.5 c 128,-1,6
 319 -11 319 -11 269.5 8.5 c 128,-1,7
 220 28 220 28 163 52 c 1,8,9
 150 55 150 55 143.5 64.5 c 128,-1,10
 137 74 137 74 134.5 86 c 128,-1,11
 132 98 132 98 131.5 110.5 c 128,-1,12
 131 123 131 123 130 132 c 0,13,14
 128 145 128 145 124 177.5 c 128,-1,15
 120 210 120 210 115 246 c 128,-1,16
 110 282 110 282 105 314.5 c 128,-1,17
 100 347 100 347 97 359 c 0,18,19
 96 361 96 361 96 367 c 0,20,21
 96 381 96 381 106.5 389.5 c 128,-1,22
 117 398 117 398 128 398 c 0,23,24
 133 398 133 398 137 396 c 0,25,26
 172 374 172 374 209 350 c 128,-1,27
 246 326 246 326 288 306.5 c 128,-1,28
 330 287 330 287 378 274 c 128,-1,29
 426 261 426 261 485 261 c 0,30,31
 560 261 560 261 598 292.5 c 128,-1,32
 636 324 636 324 636 400 c 0,33,34
 636 424 636 424 631 453.5 c 128,-1,35
 626 483 626 483 610.5 508.5 c 128,-1,36
 595 534 595 534 565 551.5 c 128,-1,37
 535 569 535 569 486 569 c 2,38,-1
 306 569 l 1,39,40
 306 574 306 574 309 597 c 128,-1,41
 312 620 312 620 316.5 652.5 c 128,-1,42
 321 685 321 685 326 721.5 c 128,-1,43
 331 758 331 758 335.5 789.5 c 128,-1,44
 340 821 340 821 343.5 843 c 128,-1,45
 347 865 347 865 348 867 c 0,46,47
 354 899 354 899 360.5 910.5 c 128,-1,48
 367 922 367 922 373 922 c 1,49,50
 391 915 391 915 410 913.5 c 128,-1,51
 429 912 429 912 448 912 c 0,52,53
 517 912 517 912 556 949 c 128,-1,54
 595 986 595 986 595 1057 c 0,55,56
 595 1081 595 1081 588 1104 c 128,-1,57
 581 1127 581 1127 565.5 1144.5 c 128,-1,58
 550 1162 550 1162 526.5 1173 c 128,-1,59
 503 1184 503 1184 470 1184 c 0,60,61
 434 1184 434 1184 396.5 1179.5 c 128,-1,62
 359 1175 359 1175 322.5 1167.5 c 128,-1,63
 286 1160 286 1160 252 1151 c 128,-1,64
 218 1142 218 1142 190 1133 c 1,65,66
 193 1151 193 1151 193 1183 c 0,67,68
 193 1197 193 1197 192.5 1213 c 128,-1,69
 192 1229 192 1229 192 1246 c 0,70,71
 192 1277 192 1277 194 1309 c 128,-1,72
 196 1341 196 1341 203 1368 c 128,-1,73
 210 1395 210 1395 223 1415 c 128,-1,74
 236 1435 236 1435 259 1442 c 0,75,76
 315 1460 315 1460 355.5 1470 c 128,-1,77
 396 1480 396 1480 431 1485 c 128,-1,78
 466 1490 466 1490 501 1491.5 c 128,-1,79
 536 1493 536 1493 581 1493 c 0,80,81
 663 1493 663 1493 747.5 1471 c 128,-1,82
 832 1449 832 1449 900.5 1403 c 128,-1,83
 969 1357 969 1357 1012.5 1286.5 c 128,-1,84
 1056 1216 1056 1216 1056 1119 c 0,85,86
 1056 1056 1056 1056 1038.5 1004 c 128,-1,87
 1021 952 1021 952 994 911 c 128,-1,88
 967 870 967 870 936 839.5 c 128,-1,89
 905 809 905 809 878 788 c 1,90,91
 908 771 908 771 943 743.5 c 128,-1,92
 978 716 978 716 1007.5 672.5 c 128,-1,93
 1037 629 1037 629 1056.5 569 c 128,-1,94
 1076 509 1076 509 1076 428 c 0,95,96
 1076 343 1076 343 1043.5 261 c 128,-1,97
 1011 179 1011 179 954 113 c 128,-1,98
 897 47 897 47 819 3.5 c 128,-1,99
 741 -40 741 -40 650 -48 c 0,0,1
EndSplineSet
EndChar

StartChar: four
Encoding: 52 52 23
Width: 1352
GlyphClass: 2
Flags: W
LayerCount: 2
Fore
SplineSet
1347 571 m 0,0,1
 1345 563 1345 563 1341.5 548 c 128,-1,2
 1338 533 1338 533 1334.5 513.5 c 128,-1,3
 1331 494 1331 494 1326.5 471 c 128,-1,4
 1322 448 1322 448 1318 426 c 2,5,-1
 1295 312 l 2,6,7
 1292 297 1292 297 1287 289.5 c 128,-1,8
 1282 282 1282 282 1264.5 279 c 128,-1,9
 1247 276 1247 276 1213 276 c 128,-1,10
 1179 276 1179 276 1118 276 c 1,11,-1
 1100 93 l 2,12,13
 1099 84 1099 84 1096 75 c 128,-1,14
 1093 66 1093 66 1083 62 c 0,15,16
 1076 59 1076 59 1050.5 49 c 128,-1,17
 1025 39 1025 39 990 26 c 128,-1,18
 955 13 955 13 915 -1.5 c 128,-1,19
 875 -16 875 -16 839 -28 c 128,-1,20
 803 -40 803 -40 775 -48 c 128,-1,21
 747 -56 747 -56 737 -56 c 0,22,23
 723 -56 723 -56 712.5 -48.5 c 128,-1,24
 702 -41 702 -41 702 -20 c 0,25,26
 702 28 702 28 706.5 101.5 c 128,-1,27
 711 175 711 175 719 272 c 1,28,29
 634 271 634 271 551 270 c 128,-1,30
 468 269 468 269 396.5 268.5 c 128,-1,31
 325 268 325 268 271 268 c 128,-1,32
 217 268 217 268 190 268 c 0,33,34
 102 268 102 268 63 274 c 128,-1,35
 24 280 24 280 24 302 c 0,36,37
 24 314 24 314 34 330 c 0,38,39
 43 345 43 345 67 385 c 128,-1,40
 91 425 91 425 124.5 480.5 c 128,-1,41
 158 536 158 536 197.5 601.5 c 128,-1,42
 237 667 237 667 277 733 c 2,43,-1
 485 1076 l 2,44,45
 523 1139 523 1139 552.5 1199.5 c 128,-1,46
 582 1260 582 1260 617.5 1310 c 128,-1,47
 653 1360 653 1360 702.5 1397 c 128,-1,48
 752 1434 752 1434 832 1450 c 1,49,-1
 1148 1533 l 2,50,51
 1163 1537 1163 1537 1175 1537 c 0,52,53
 1186 1537 1186 1537 1192.5 1530.5 c 128,-1,54
 1199 1524 1199 1524 1199 1505 c 2,55,-1
 1199 1494 l 1,56,57
 1195 1401 1195 1401 1191 1326 c 128,-1,58
 1187 1251 1187 1251 1183 1184 c 128,-1,59
 1179 1117 1179 1117 1174.5 1054.5 c 128,-1,60
 1170 992 1170 992 1166 925 c 128,-1,61
 1162 858 1162 858 1158 782.5 c 128,-1,62
 1154 707 1154 707 1150 614 c 1,63,64
 1217 616 1217 616 1260.5 617 c 128,-1,65
 1304 618 1304 618 1312 618 c 1,66,67
 1324 616 1324 616 1336 609.5 c 128,-1,68
 1348 603 1348 603 1348 582 c 0,69,70
 1348 574 1348 574 1347 571 c 0,0,1
747 601 m 1,71,72
 759 670 759 670 768 746.5 c 128,-1,73
 777 823 777 823 783 902 c 128,-1,74
 789 981 789 981 793.5 1059 c 128,-1,75
 798 1137 798 1137 801 1210 c 1,76,-1
 437 601 l 1,77,-1
 747 601 l 1,71,72
EndSplineSet
EndChar

StartChar: five
Encoding: 53 53 24
Width: 1079
GlyphClass: 2
Flags: W
LayerCount: 2
Fore
SplineSet
142 277 m 2,0,1
 144 282 144 282 151.5 288 c 128,-1,2
 159 294 159 294 171 294 c 2,3,-1
 177 294 l 1,4,5
 216 288 216 288 249.5 286.5 c 128,-1,6
 283 285 283 285 329 285 c 0,7,8
 380 285 380 285 428.5 292 c 128,-1,9
 477 299 477 299 515 319 c 128,-1,10
 553 339 553 339 576 376 c 128,-1,11
 599 413 599 413 599 472 c 0,12,13
 599 541 599 541 572 580.5 c 128,-1,14
 545 620 545 620 502 639 c 128,-1,15
 459 658 459 658 407 662.5 c 128,-1,16
 355 667 355 667 304 667 c 0,17,18
 284 667 284 667 268.5 666.5 c 128,-1,19
 253 666 253 666 240 666 c 0,20,21
 209 666 209 666 197.5 671 c 128,-1,22
 186 676 186 676 186 695 c 0,23,24
 186 702 186 702 187 711 c 128,-1,25
 188 720 188 720 190 732 c 1,26,27
 193 822 193 822 204.5 912.5 c 128,-1,28
 216 1003 216 1003 231 1093.5 c 128,-1,29
 246 1184 246 1184 262.5 1274 c 128,-1,30
 279 1364 279 1364 292 1454 c 1,31,32
 482 1476 482 1476 666 1496.5 c 128,-1,33
 850 1517 850 1517 1042 1542 c 1,34,35
 1055 1542 1055 1542 1055 1521 c 0,36,37
 1055 1510 1055 1510 1052 1503 c 0,38,39
 1051 1500 1051 1500 1046 1482.5 c 128,-1,40
 1041 1465 1041 1465 1034 1439 c 128,-1,41
 1027 1413 1027 1413 1018 1381 c 128,-1,42
 1009 1349 1009 1349 1000.5 1317.5 c 128,-1,43
 992 1286 992 1286 984 1257.5 c 128,-1,44
 976 1229 976 1229 970 1210 c 0,45,46
 960 1177 960 1177 936 1158 c 128,-1,47
 912 1139 912 1139 879.5 1129 c 128,-1,48
 847 1119 847 1119 809 1116 c 128,-1,49
 771 1113 771 1113 732 1113 c 0,50,51
 700 1113 700 1113 666.5 1113.5 c 128,-1,52
 633 1114 633 1114 603 1114 c 0,53,54
 580 1114 580 1114 563.5 1111 c 128,-1,55
 547 1108 547 1108 536 1097 c 128,-1,56
 525 1086 525 1086 520 1065 c 128,-1,57
 515 1044 515 1044 515 1009 c 1,58,59
 629 1003 629 1003 727 973.5 c 128,-1,60
 825 944 825 944 898 886.5 c 128,-1,61
 971 829 971 829 1012.5 741.5 c 128,-1,62
 1054 654 1054 654 1054 531 c 0,63,64
 1054 417 1054 417 1022 329.5 c 128,-1,65
 990 242 990 242 935.5 177 c 128,-1,66
 881 112 881 112 807.5 68 c 128,-1,67
 734 24 734 24 650.5 -2.5 c 128,-1,68
 567 -29 567 -29 478 -40.5 c 128,-1,69
 389 -52 389 -52 304 -52 c 0,70,71
 241 -52 241 -52 181.5 -45.5 c 128,-1,72
 122 -39 122 -39 77 -15 c 0,73,74
 72 -13 72 -13 66.5 -7 c 128,-1,75
 61 -1 61 -1 61 1 c 2,76,-1
 142 277 l 2,0,1
EndSplineSet
EndChar

StartChar: six
Encoding: 54 54 25
Width: 1288
GlyphClass: 2
Flags: W
LayerCount: 2
Fore
SplineSet
663 -51 m 0,0,1
 525 -51 525 -51 422.5 -5 c 128,-1,2
 320 41 320 41 251.5 120.5 c 128,-1,3
 183 200 183 200 149.5 306.5 c 128,-1,4
 116 413 116 413 116 533 c 0,5,6
 116 627 116 627 140 713 c 128,-1,7
 164 799 164 799 204.5 879 c 128,-1,8
 245 959 245 959 298.5 1034.5 c 128,-1,9
 352 1110 352 1110 409.5 1182.5 c 128,-1,10
 467 1255 467 1255 526 1325 c 128,-1,11
 585 1395 585 1395 637 1465 c 0,12,13
 645 1475 645 1475 653.5 1486.5 c 128,-1,14
 662 1498 662 1498 672 1507.5 c 128,-1,15
 682 1517 682 1517 693 1523.5 c 128,-1,16
 704 1530 704 1530 718 1530 c 2,17,-1
 969 1530 l 2,18,19
 994 1530 994 1530 1012 1523 c 128,-1,20
 1030 1516 1030 1516 1030 1501 c 0,21,22
 1030 1487 1030 1487 1014 1468 c 0,23,24
 926 1365 926 1365 853.5 1250.5 c 128,-1,25
 781 1136 781 1136 718 1010 c 1,26,27
 754 1020 754 1020 787 1024 c 128,-1,28
 820 1028 820 1028 857 1028 c 0,29,30
 967 1028 967 1028 1048.5 985 c 128,-1,31
 1130 942 1130 942 1183.5 873.5 c 128,-1,32
 1237 805 1237 805 1263.5 719.5 c 128,-1,33
 1290 634 1290 634 1290 549 c 0,34,35
 1290 414 1290 414 1250 303.5 c 128,-1,36
 1210 193 1210 193 1131 114.5 c 128,-1,37
 1052 36 1052 36 934.5 -7.5 c 128,-1,38
 817 -51 817 -51 663 -51 c 0,0,1
571 479 m 0,39,40
 571 450 571 450 576 412.5 c 128,-1,41
 581 375 581 375 595.5 341 c 128,-1,42
 610 307 610 307 634.5 283.5 c 128,-1,43
 659 260 659 260 698 260 c 0,44,45
 736 260 736 260 763.5 276 c 128,-1,46
 791 292 791 292 810 318 c 128,-1,47
 829 344 829 344 840 377.5 c 128,-1,48
 851 411 851 411 857 446.5 c 128,-1,49
 863 482 863 482 864.5 517 c 128,-1,50
 866 552 866 552 866 580 c 0,51,52
 866 614 866 614 863 650.5 c 128,-1,53
 860 687 860 687 847.5 716 c 128,-1,54
 835 745 835 745 810.5 764 c 128,-1,55
 786 783 786 783 743 783 c 0,56,57
 686 783 686 783 652 752 c 128,-1,58
 618 721 618 721 600 675 c 128,-1,59
 582 629 582 629 576.5 576 c 128,-1,60
 571 523 571 523 571 479 c 0,39,40
EndSplineSet
EndChar

StartChar: seven
Encoding: 55 55 26
Width: 1066
GlyphClass: 2
Flags: W
LayerCount: 2
Fore
SplineSet
1136 1323 m 1,0,-1
 915 762 l 2,1,2
 871 651 871 651 827 539 c 128,-1,3
 783 427 783 427 744 328 c 128,-1,4
 705 229 705 229 674 151 c 128,-1,5
 643 73 643 73 626 31 c 0,6,7
 611 -5 611 -5 604 -24.5 c 128,-1,8
 597 -44 597 -44 591.5 -53.5 c 128,-1,9
 586 -63 586 -63 579.5 -66 c 128,-1,10
 573 -69 573 -69 560 -72 c 0,11,12
 522 -81 522 -81 481 -89.5 c 128,-1,13
 440 -98 440 -98 400 -105 c 128,-1,14
 360 -112 360 -112 323 -118 c 128,-1,15
 286 -124 286 -124 256 -128 c 0,16,17
 253 -129 253 -129 246 -129 c 0,18,19
 229 -129 229 -129 221 -119 c 128,-1,20
 213 -109 213 -109 213 -94 c 256,21,22
 213 -79 213 -79 222 -59 c 0,23,24
 232 -36 232 -36 257 23 c 128,-1,25
 282 82 282 82 316 163.5 c 128,-1,26
 350 245 350 245 390 341 c 128,-1,27
 430 437 430 437 470 534 c 2,28,-1
 676 1034 l 1,29,-1
 473 1032 l 2,30,31
 432 1032 432 1032 388.5 1031.5 c 128,-1,32
 345 1031 345 1031 304 1031 c 128,-1,33
 263 1031 263 1031 226.5 1031 c 128,-1,34
 190 1031 190 1031 163 1031 c 0,35,36
 133 1031 133 1031 117.5 1035 c 128,-1,37
 102 1039 102 1039 102 1053 c 0,38,39
 102 1066 102 1066 108 1079 c 128,-1,40
 114 1092 114 1092 114 1094 c 0,41,42
 133 1137 133 1137 152 1176.5 c 128,-1,43
 171 1216 171 1216 189.5 1254 c 128,-1,44
 208 1292 208 1292 226.5 1331 c 128,-1,45
 245 1370 245 1370 264 1413 c 1,46,47
 266 1415 266 1415 266.5 1417.5 c 128,-1,48
 267 1420 267 1420 269 1422 c 0,49,50
 286 1441 286 1441 302.5 1444.5 c 128,-1,51
 319 1448 319 1448 332 1448 c 0,52,53
 442 1449 442 1449 526.5 1450 c 128,-1,54
 611 1451 611 1451 679 1451.5 c 128,-1,55
 747 1452 747 1452 802.5 1452.5 c 128,-1,56
 858 1453 858 1453 910 1453.5 c 128,-1,57
 962 1454 962 1454 1014.5 1454 c 128,-1,58
 1067 1454 1067 1454 1129 1454 c 0,59,60
 1167 1454 1167 1454 1167 1422 c 0,61,62
 1167 1406 1167 1406 1159 1382 c 128,-1,63
 1151 1358 1151 1358 1136 1323 c 1,0,-1
EndSplineSet
EndChar

StartChar: eight
Encoding: 56 56 27
Width: 1280
GlyphClass: 2
Flags: W
LayerCount: 2
Fore
SplineSet
626 -52 m 0,0,1
 565 -52 565 -52 503.5 -41.5 c 128,-1,2
 442 -31 442 -31 385 -9 c 128,-1,3
 328 13 328 13 278 47 c 128,-1,4
 228 81 228 81 191 128 c 128,-1,5
 154 175 154 175 133 235 c 128,-1,6
 112 295 112 295 112 370 c 0,7,8
 112 442 112 442 130.5 499.5 c 128,-1,9
 149 557 149 557 181 606.5 c 128,-1,10
 213 656 213 656 255.5 700.5 c 128,-1,11
 298 745 298 745 345 790 c 1,12,13
 270 842 270 842 236 912.5 c 128,-1,14
 202 983 202 983 202 1071 c 0,15,16
 202 1145 202 1145 224.5 1205 c 128,-1,17
 247 1265 247 1265 287 1312 c 128,-1,18
 327 1359 327 1359 381.5 1393 c 128,-1,19
 436 1427 436 1427 499.5 1449.5 c 128,-1,20
 563 1472 563 1472 633 1483 c 128,-1,21
 703 1494 703 1494 775 1494 c 0,22,23
 848 1494 848 1494 922.5 1469.5 c 128,-1,24
 997 1445 997 1445 1056.5 1398 c 128,-1,25
 1116 1351 1116 1351 1153.5 1283 c 128,-1,26
 1191 1215 1191 1215 1191 1128 c 0,27,28
 1191 1079 1191 1079 1178.5 1035.5 c 128,-1,29
 1166 992 1166 992 1146 953.5 c 128,-1,30
 1126 915 1126 915 1100 882.5 c 128,-1,31
 1074 850 1074 850 1047 822 c 1,32,33
 1089 792 1089 792 1126.5 755 c 128,-1,34
 1164 718 1164 718 1191.5 670.5 c 128,-1,35
 1219 623 1219 623 1235 563 c 128,-1,36
 1251 503 1251 503 1251 427 c 0,37,38
 1251 347 1251 347 1224 280.5 c 128,-1,39
 1197 214 1197 214 1151 161 c 128,-1,40
 1105 108 1105 108 1043 68 c 128,-1,41
 981 28 981 28 912 1.5 c 128,-1,42
 843 -25 843 -25 769.5 -38.5 c 128,-1,43
 696 -52 696 -52 626 -52 c 0,0,1
562 396 m 0,44,45
 562 359 562 359 567 314 c 128,-1,46
 572 269 572 269 587.5 229.5 c 128,-1,47
 603 190 603 190 631 163.5 c 128,-1,48
 659 137 659 137 705 137 c 0,49,50
 732 137 732 137 751.5 153.5 c 128,-1,51
 771 170 771 170 785 196 c 128,-1,52
 799 222 799 222 808 254.5 c 128,-1,53
 817 287 817 287 822 319 c 128,-1,54
 827 351 827 351 829 379 c 128,-1,55
 831 407 831 407 831 424 c 0,56,57
 831 458 831 458 823 500 c 128,-1,58
 815 542 815 542 798 579 c 128,-1,59
 781 616 781 616 754 641 c 128,-1,60
 727 666 727 666 690 666 c 0,61,62
 661 666 661 666 640.5 652 c 128,-1,63
 620 638 620 638 606 615.5 c 128,-1,64
 592 593 592 593 583.5 564 c 128,-1,65
 575 535 575 535 570 505 c 128,-1,66
 565 475 565 475 563.5 446.5 c 128,-1,67
 562 418 562 418 562 396 c 0,44,45
577 1094 m 256,68,69
 577 1065 577 1065 584.5 1031 c 128,-1,70
 592 997 592 997 608.5 967.5 c 128,-1,71
 625 938 625 938 650.5 918.5 c 128,-1,72
 676 899 676 899 713 899 c 0,73,74
 749 899 749 899 770 923.5 c 128,-1,75
 791 948 791 948 801 982.5 c 128,-1,76
 811 1017 811 1017 813.5 1054 c 128,-1,77
 816 1091 816 1091 816 1115 c 0,78,79
 816 1143 816 1143 810 1173.5 c 128,-1,80
 804 1204 804 1204 790.5 1229.5 c 128,-1,81
 777 1255 777 1255 754 1272 c 128,-1,82
 731 1289 731 1289 697 1289 c 0,83,84
 662 1289 662 1289 638.5 1269.5 c 128,-1,85
 615 1250 615 1250 601.5 1220.5 c 128,-1,86
 588 1191 588 1191 582.5 1157 c 128,-1,87
 577 1123 577 1123 577 1094 c 256,68,69
EndSplineSet
EndChar

StartChar: nine
Encoding: 57 57 28
Width: 1326
GlyphClass: 2
Flags: W
LayerCount: 2
Fore
SplineSet
615 -20 m 0,0,1
 588 -13 588 -13 588 3 c 0,2,3
 588 14 588 14 598 27 c 0,4,5
 628 69 628 69 655 118 c 128,-1,6
 682 167 682 167 704.5 219 c 128,-1,7
 727 271 727 271 745.5 322 c 128,-1,8
 764 373 764 373 777 418 c 1,9,10
 726 403 726 403 672 394 c 128,-1,11
 618 385 618 385 566 385 c 0,12,13
 469 385 469 385 385.5 425.5 c 128,-1,14
 302 466 302 466 240.5 533.5 c 128,-1,15
 179 601 179 601 144 689.5 c 128,-1,16
 109 778 109 778 109 873 c 0,17,18
 109 969 109 969 137.5 1052.5 c 128,-1,19
 166 1136 166 1136 216.5 1204.5 c 128,-1,20
 267 1273 267 1273 335.5 1327 c 128,-1,21
 404 1381 404 1381 483 1417.5 c 128,-1,22
 562 1454 562 1454 648 1473.5 c 128,-1,23
 734 1493 734 1493 821 1493 c 0,24,25
 938 1493 938 1493 1032.5 1440.5 c 128,-1,26
 1127 1388 1127 1388 1194 1304 c 128,-1,27
 1261 1220 1261 1220 1297.5 1115 c 128,-1,28
 1334 1010 1334 1010 1334 905 c 0,29,30
 1334 806 1334 806 1311 713 c 128,-1,31
 1288 620 1288 620 1249 531.5 c 128,-1,32
 1210 443 1210 443 1159 360 c 128,-1,33
 1108 277 1108 277 1051 199 c 128,-1,34
 994 121 994 121 935.5 48.5 c 128,-1,35
 877 -24 877 -24 823 -92 c 0,36,37
 820 -95 820 -95 815.5 -98 c 128,-1,38
 811 -101 811 -101 804 -101 c 256,39,40
 797 -101 797 -101 790 -97 c 0,41,42
 764 -83 764 -83 743 -72 c 128,-1,43
 722 -61 722 -61 702 -52 c 128,-1,44
 682 -43 682 -43 661 -35 c 128,-1,45
 640 -27 640 -27 615 -20 c 0,0,1
547 946 m 0,46,47
 547 894 547 894 559 845.5 c 128,-1,48
 571 797 571 797 596.5 760 c 128,-1,49
 622 723 622 723 663 700.5 c 128,-1,50
 704 678 704 678 762 678 c 0,51,52
 784 678 784 678 800 681.5 c 128,-1,53
 816 685 816 685 842 694 c 1,54,55
 853 739 853 739 860 771 c 128,-1,56
 867 803 867 803 870.5 831 c 128,-1,57
 874 859 874 859 875.5 887.5 c 128,-1,58
 877 916 877 916 877 953 c 0,59,60
 877 975 877 975 875.5 1004.5 c 128,-1,61
 874 1034 874 1034 869 1065 c 128,-1,62
 864 1096 864 1096 855 1126 c 128,-1,63
 846 1156 846 1156 830.5 1179 c 128,-1,64
 815 1202 815 1202 792.5 1216.5 c 128,-1,65
 770 1231 770 1231 738 1231 c 0,66,67
 682 1231 682 1231 645 1203.5 c 128,-1,68
 608 1176 608 1176 586 1134 c 128,-1,69
 564 1092 564 1092 555.5 1041.5 c 128,-1,70
 547 991 547 991 547 946 c 0,46,47
EndSplineSet
EndChar

StartChar: colon
Encoding: 58 58 29
Width: 668
GlyphClass: 2
Flags: W
LayerCount: 2
Fore
SplineSet
179 727 m 1,0,1
 181 774 181 774 182 801.5 c 128,-1,2
 183 829 183 829 183.5 844 c 128,-1,3
 184 859 184 859 184 865 c 128,-1,4
 184 871 184 871 184 876.5 c 128,-1,5
 184 882 184 882 184.5 890 c 128,-1,6
 185 898 185 898 186 916.5 c 128,-1,7
 187 935 187 935 189 967.5 c 128,-1,8
 191 1000 191 1000 194 1054 c 0,9,10
 196 1087 196 1087 200.5 1099.5 c 128,-1,11
 205 1112 205 1112 223 1115 c 1,12,13
 311 1115 311 1115 407 1115.5 c 128,-1,14
 503 1116 503 1116 588 1117 c 0,15,16
 597 1117 597 1117 603 1112 c 128,-1,17
 609 1107 609 1107 609 1093 c 1,18,-1
 581 779 l 1,19,20
 577 746 577 746 573.5 733.5 c 128,-1,21
 570 721 570 721 551 719 c 1,22,23
 466 718 466 718 376.5 717 c 128,-1,24
 287 716 287 716 190 716 c 0,25,26
 184 716 184 716 181.5 717 c 128,-1,27
 179 718 179 718 179 723 c 2,28,-1
 179 727 l 1,0,1
159 -38 m 1,29,30
 161 9 161 9 162 36.5 c 128,-1,31
 163 64 163 64 163.5 79 c 128,-1,32
 164 94 164 94 164 100 c 128,-1,33
 164 106 164 106 164 111.5 c 128,-1,34
 164 117 164 117 164.5 125 c 128,-1,35
 165 133 165 133 166 151.5 c 128,-1,36
 167 170 167 170 169 202.5 c 128,-1,37
 171 235 171 235 174 289 c 0,38,39
 176 322 176 322 180.5 334.5 c 128,-1,40
 185 347 185 347 203 350 c 1,41,42
 291 350 291 350 387 350.5 c 128,-1,43
 483 351 483 351 568 352 c 0,44,45
 577 352 577 352 583 347 c 128,-1,46
 589 342 589 342 589 328 c 1,47,-1
 561 14 l 1,48,49
 557 -19 557 -19 553.5 -31.5 c 128,-1,50
 550 -44 550 -44 531 -46 c 1,51,52
 446 -47 446 -47 356.5 -48 c 128,-1,53
 267 -49 267 -49 170 -49 c 0,54,55
 164 -49 164 -49 161.5 -48 c 128,-1,56
 159 -47 159 -47 159 -42 c 2,57,-1
 159 -38 l 1,29,30
EndSplineSet
EndChar

StartChar: less
Encoding: 60 60 31
Width: 1076
GlyphClass: 2
Flags: W
LayerCount: 2
Fore
SplineSet
1028 324 m 0,0,1
 1036 319 1036 319 1036 313 c 256,2,3
 1036 307 1036 307 1034 301 c 1,4,5
 992 226 992 226 964.5 147 c 128,-1,6
 937 68 937 68 909 -10 c 0,7,8
 902 -29 902 -29 884 -29 c 0,9,10
 876 -29 876 -29 868 -26 c 128,-1,11
 860 -23 860 -23 846 -17 c 1,12,-1
 190 365 l 1,13,14
 158 381 158 381 147 391 c 128,-1,15
 136 401 136 401 136 421 c 0,16,17
 133 497 133 497 129 575 c 128,-1,18
 125 653 125 653 116 737 c 0,19,20
 116 739 116 739 115.5 740 c 128,-1,21
 115 741 115 741 115 742 c 2,22,-1
 116 749 l 2,23,24
 117 754 117 754 121 757.5 c 128,-1,25
 125 761 125 761 128 761 c 1,26,27
 161 777 161 777 213.5 798.5 c 128,-1,28
 266 820 266 820 331 845.5 c 128,-1,29
 396 871 396 871 470.5 898.5 c 128,-1,30
 545 926 545 926 622.5 955 c 128,-1,31
 700 984 700 984 777 1012.5 c 128,-1,32
 854 1041 854 1041 924 1068 c 1,33,34
 955 1077 955 1077 969 1077 c 0,35,36
 982 1077 982 1077 985 1061 c 1,37,38
 991 984 991 984 998.5 899.5 c 128,-1,39
 1006 815 1006 815 1024 740 c 1,40,41
 1024 718 1024 718 1012 717 c 1,42,-1
 572 555 l 1,43,44
 583 549 583 549 616.5 532 c 128,-1,45
 650 515 650 515 695 492.5 c 128,-1,46
 740 470 740 470 791 444 c 128,-1,47
 842 418 842 418 889 394.5 c 128,-1,48
 936 371 936 371 973.5 352 c 128,-1,49
 1011 333 1011 333 1028 324 c 0,0,1
EndSplineSet
EndChar

StartChar: equal
Encoding: 61 61 32
Width: 1062
GlyphClass: 2
Flags: W
LayerCount: 2
Fore
SplineSet
573 887 m 1,0,1
 641 887 641 887 704.5 888.5 c 128,-1,2
 768 890 768 890 820 891.5 c 128,-1,3
 872 893 872 893 909 894.5 c 128,-1,4
 946 896 946 896 962 896 c 0,5,6
 970 896 970 896 980 890 c 128,-1,7
 990 884 990 884 990 867 c 1,8,9
 991 860 991 860 981.5 830 c 128,-1,10
 972 800 972 800 957 749 c 2,11,-1
 933 670 l 1,12,13
 926 653 926 653 916.5 644.5 c 128,-1,14
 907 636 907 636 878 636 c 0,15,16
 788 634 788 634 698 632.5 c 128,-1,17
 608 631 608 631 528.5 629.5 c 128,-1,18
 449 628 449 628 385 627 c 128,-1,19
 321 626 321 626 283 626 c 0,20,21
 223 626 223 626 193.5 631.5 c 128,-1,22
 164 637 164 637 164 654 c 0,23,24
 164 661 164 661 169.5 684 c 128,-1,25
 175 707 175 707 183 736 c 128,-1,26
 191 765 191 765 201 795.5 c 128,-1,27
 211 826 211 826 220 849 c 1,28,29
 231 859 231 859 240 870 c 128,-1,30
 249 881 249 881 271 882 c 2,31,-1
 573 887 l 1,0,1
573 418 m 1,32,33
 641 418 641 418 704.5 419.5 c 128,-1,34
 768 421 768 421 820 422.5 c 128,-1,35
 872 424 872 424 909 425.5 c 128,-1,36
 946 427 946 427 962 427 c 0,37,38
 970 427 970 427 980 421 c 128,-1,39
 990 415 990 415 990 398 c 1,40,41
 991 391 991 391 981.5 361 c 128,-1,42
 972 331 972 331 957 280 c 2,43,-1
 933 201 l 1,44,45
 926 184 926 184 916.5 175.5 c 128,-1,46
 907 167 907 167 878 167 c 0,47,48
 788 165 788 165 698 163.5 c 128,-1,49
 608 162 608 162 528.5 160.5 c 128,-1,50
 449 159 449 159 385 158 c 128,-1,51
 321 157 321 157 283 157 c 0,52,53
 223 157 223 157 193.5 162.5 c 128,-1,54
 164 168 164 168 164 185 c 0,55,56
 164 192 164 192 169.5 215 c 128,-1,57
 175 238 175 238 183 267 c 128,-1,58
 191 296 191 296 201 326.5 c 128,-1,59
 211 357 211 357 220 380 c 1,60,61
 231 389 231 389 240 400.5 c 128,-1,62
 249 412 249 412 271 413 c 2,63,-1
 573 418 l 1,32,33
EndSplineSet
EndChar

StartChar: greater
Encoding: 62 62 33
Width: 1051
GlyphClass: 2
Flags: W
LayerCount: 2
Fore
SplineSet
140 324 m 0,0,1
 157 333 157 333 194.5 352 c 128,-1,2
 232 371 232 371 279 394.5 c 128,-1,3
 326 418 326 418 377 444 c 128,-1,4
 428 470 428 470 473 492.5 c 128,-1,5
 518 515 518 515 551.5 532 c 128,-1,6
 585 549 585 549 596 555 c 1,7,-1
 156 717 l 1,8,9
 144 718 144 718 144 740 c 1,10,11
 162 815 162 815 169.5 899.5 c 128,-1,12
 177 984 177 984 183 1061 c 1,13,14
 186 1077 186 1077 199 1077 c 256,15,16
 212 1077 212 1077 244 1068 c 1,17,18
 314 1041 314 1041 391 1012.5 c 128,-1,19
 468 984 468 984 545.5 955 c 128,-1,20
 623 926 623 926 697.5 898.5 c 128,-1,21
 772 871 772 871 837 845.5 c 128,-1,22
 902 820 902 820 954.5 798.5 c 128,-1,23
 1007 777 1007 777 1040 761 c 1,24,25
 1043 761 1043 761 1047 757.5 c 128,-1,26
 1051 754 1051 754 1052 749 c 2,27,-1
 1053 742 l 2,28,29
 1053 741 1053 741 1052.5 740 c 128,-1,30
 1052 739 1052 739 1052 737 c 0,31,32
 1043 653 1043 653 1039 575 c 128,-1,33
 1035 497 1035 497 1032 421 c 0,34,35
 1032 401 1032 401 1021 391 c 128,-1,36
 1010 381 1010 381 978 365 c 1,37,-1
 322 -17 l 1,38,39
 308 -23 308 -23 300 -26 c 128,-1,40
 292 -29 292 -29 284 -29 c 0,41,42
 273 -29 273 -29 268 -24.5 c 128,-1,43
 263 -20 263 -20 259 -10 c 0,44,45
 230 68 230 68 201.5 147 c 128,-1,46
 173 226 173 226 134 301 c 0,47,48
 132 307 132 307 132 313 c 0,49,50
 132 317 132 317 133.5 319.5 c 128,-1,51
 135 322 135 322 140 324 c 0,0,1
EndSplineSet
EndChar

StartChar: question
Encoding: 63 63 34
Width: 1166
GlyphClass: 2
Flags: W
LayerCount: 2
Fore
SplineSet
433 599 m 1,0,1
 502 636 502 636 564.5 691.5 c 128,-1,2
 627 747 627 747 674 809.5 c 128,-1,3
 721 872 721 872 748.5 934.5 c 128,-1,4
 776 997 776 997 776 1049 c 0,5,6
 776 1105 776 1105 745 1140 c 128,-1,7
 714 1175 714 1175 643 1175 c 0,8,9
 603 1175 603 1175 577 1165.5 c 128,-1,10
 551 1156 551 1156 535.5 1141 c 128,-1,11
 520 1126 520 1126 514 1108 c 128,-1,12
 508 1090 508 1090 508 1073 c 0,13,14
 508 1050 508 1050 515 1031 c 128,-1,15
 522 1012 522 1012 522 1006 c 0,16,17
 522 998 522 998 508 995 c 128,-1,18
 494 992 494 992 462.5 987 c 128,-1,19
 431 982 431 982 379 972.5 c 128,-1,20
 327 963 327 963 251 942 c 0,21,22
 222 934 222 934 206 931 c 128,-1,23
 190 928 190 928 181 928 c 0,24,25
 170 928 170 928 162.5 943 c 128,-1,26
 155 958 155 958 151 978.5 c 128,-1,27
 147 999 147 999 145.5 1021 c 128,-1,28
 144 1043 144 1043 144 1057 c 0,29,30
 144 1149 144 1149 189.5 1221.5 c 128,-1,31
 235 1294 235 1294 308 1344 c 128,-1,32
 381 1394 381 1394 472.5 1420.5 c 128,-1,33
 564 1447 564 1447 656 1447 c 0,34,35
 775 1447 775 1447 871.5 1410.5 c 128,-1,36
 968 1374 968 1374 1036.5 1316.5 c 128,-1,37
 1105 1259 1105 1259 1142 1187.5 c 128,-1,38
 1179 1116 1179 1116 1179 1047 c 0,39,40
 1179 990 1179 990 1159.5 934.5 c 128,-1,41
 1140 879 1140 879 1106.5 826 c 128,-1,42
 1073 773 1073 773 1028.5 723 c 128,-1,43
 984 673 984 673 935 627 c 128,-1,44
 886 581 886 581 835.5 539 c 128,-1,45
 785 497 785 497 738 460 c 1,46,47
 736 457 736 457 730.5 454 c 128,-1,48
 725 451 725 451 719 451 c 0,49,50
 716 451 716 451 711.5 452 c 128,-1,51
 707 453 707 453 705 455 c 0,52,53
 667 473 667 473 636.5 487 c 128,-1,54
 606 501 606 501 577 513 c 128,-1,55
 548 525 548 525 517.5 534.5 c 128,-1,56
 487 544 487 544 450 552 c 0,57,58
 436 555 436 555 429.5 561.5 c 128,-1,59
 423 568 423 568 423 575 c 1,60,61
 431 580 431 580 432 587.5 c 128,-1,62
 433 595 433 595 433 599 c 1,0,1
437 -38 m 0,63,64
 439 9 439 9 440 36.5 c 128,-1,65
 441 64 441 64 441.5 79 c 128,-1,66
 442 94 442 94 442 100 c 128,-1,67
 442 106 442 106 442 111.5 c 128,-1,68
 442 117 442 117 442.5 125 c 128,-1,69
 443 133 443 133 444 151.5 c 128,-1,70
 445 170 445 170 447 202.5 c 128,-1,71
 449 235 449 235 452 289 c 0,72,73
 454 322 454 322 458.5 334.5 c 128,-1,74
 463 347 463 347 481 350 c 1,75,76
 569 350 569 350 665 350.5 c 128,-1,77
 761 351 761 351 846 352 c 0,78,79
 857 352 857 352 862 345.5 c 128,-1,80
 867 339 867 339 867 322 c 1,81,-1
 839 14 l 2,82,83
 835 -19 835 -19 831.5 -31.5 c 128,-1,84
 828 -44 828 -44 809 -46 c 1,85,86
 724 -47 724 -47 634.5 -48 c 128,-1,87
 545 -49 545 -49 448 -49 c 0,88,89
 440 -49 440 -49 438.5 -47.5 c 128,-1,90
 437 -46 437 -46 437 -38 c 0,63,64
EndSplineSet
EndChar

StartChar: at
Encoding: 64 64 35
Width: 1780
GlyphClass: 2
Flags: W
LayerCount: 2
Fore
SplineSet
1047 486 m 1,0,1
 1058 558 1058 558 1065.5 608.5 c 128,-1,2
 1073 659 1073 659 1077.5 694 c 128,-1,3
 1082 729 1082 729 1084.5 752 c 128,-1,4
 1087 775 1087 775 1088 791 c 1,5,6
 1073 805 1073 805 1049 820.5 c 128,-1,7
 1025 836 1025 836 997 836 c 0,8,9
 970 836 970 836 950.5 822.5 c 128,-1,10
 931 809 931 809 917 788 c 128,-1,11
 903 767 903 767 894 741 c 128,-1,12
 885 715 885 715 879.5 689.5 c 128,-1,13
 874 664 874 664 872 641.5 c 128,-1,14
 870 619 870 619 870 605 c 0,15,16
 870 523 870 523 893 485.5 c 128,-1,17
 916 448 916 448 958 448 c 0,18,19
 976 448 976 448 999 458.5 c 128,-1,20
 1022 469 1022 469 1047 486 c 1,0,1
1079 348 m 1,21,22
 1031 293 1031 293 981 267.5 c 128,-1,23
 931 242 931 242 882 242 c 0,24,25
 822 242 822 242 767 266 c 128,-1,26
 712 290 712 290 669 334.5 c 128,-1,27
 626 379 626 379 600.5 442.5 c 128,-1,28
 575 506 575 506 575 585 c 0,29,30
 575 685 575 685 608 768.5 c 128,-1,31
 641 852 641 852 696.5 911.5 c 128,-1,32
 752 971 752 971 823.5 1004 c 128,-1,33
 895 1037 895 1037 972 1037 c 0,34,35
 1017 1037 1017 1037 1055 1018.5 c 128,-1,36
 1093 1000 1093 1000 1125 971 c 1,37,38
 1129 990 1129 990 1130.5 1001 c 128,-1,39
 1132 1012 1132 1012 1134.5 1018 c 128,-1,40
 1137 1024 1137 1024 1143.5 1026 c 128,-1,41
 1150 1028 1150 1028 1164 1029 c 1,42,43
 1216 1021 1216 1021 1269 1020 c 128,-1,44
 1322 1019 1322 1019 1382 1019 c 1,45,-1
 1316 537 l 2,46,47
 1315 532 1315 532 1315 525 c 128,-1,48
 1315 518 1315 518 1315 511 c 0,49,50
 1315 484 1315 484 1320.5 461 c 128,-1,51
 1326 438 1326 438 1335.5 420.5 c 128,-1,52
 1345 403 1345 403 1358 393.5 c 128,-1,53
 1371 384 1371 384 1385 384 c 0,54,55
 1405 384 1405 384 1428.5 401.5 c 128,-1,56
 1452 419 1452 419 1472.5 460.5 c 128,-1,57
 1493 502 1493 502 1506.5 569.5 c 128,-1,58
 1520 637 1520 637 1520 738 c 0,59,60
 1520 825 1520 825 1490.5 905.5 c 128,-1,61
 1461 986 1461 986 1400.5 1047 c 128,-1,62
 1340 1108 1340 1108 1246.5 1144.5 c 128,-1,63
 1153 1181 1153 1181 1026 1181 c 0,64,65
 920 1181 920 1181 836 1150 c 128,-1,66
 752 1119 752 1119 688.5 1068 c 128,-1,67
 625 1017 625 1017 580.5 951.5 c 128,-1,68
 536 886 536 886 508 818 c 128,-1,69
 480 750 480 750 467 685 c 128,-1,70
 454 620 454 620 454 569 c 0,71,72
 454 446 454 446 493 359 c 128,-1,73
 532 272 532 272 609 216.5 c 128,-1,74
 686 161 686 161 800.5 135.5 c 128,-1,75
 915 110 915 110 1066 110 c 0,76,77
 1083 110 1083 110 1092.5 101.5 c 128,-1,78
 1102 93 1102 93 1102 64 c 0,79,80
 1102 46 1102 46 1097.5 20 c 128,-1,81
 1093 -6 1093 -6 1085 -44 c 0,82,83
 1076 -89 1076 -89 1068.5 -115.5 c 128,-1,84
 1061 -142 1061 -142 1052.5 -155.5 c 128,-1,85
 1044 -169 1044 -169 1033.5 -172.5 c 128,-1,86
 1023 -176 1023 -176 1008 -176 c 0,87,88
 802 -176 802 -176 637.5 -135 c 128,-1,89
 473 -94 473 -94 358.5 -10 c 128,-1,90
 244 74 244 74 182.5 201 c 128,-1,91
 121 328 121 328 121 499 c 0,92,93
 121 645 121 645 157.5 774.5 c 128,-1,94
 194 904 194 904 259.5 1012.5 c 128,-1,95
 325 1121 325 1121 416.5 1207.5 c 128,-1,96
 508 1294 508 1294 618.5 1354 c 128,-1,97
 729 1414 729 1414 855 1446 c 128,-1,98
 981 1478 981 1478 1115 1478 c 0,99,100
 1275 1478 1275 1478 1400.5 1418.5 c 128,-1,101
 1526 1359 1526 1359 1612.5 1258 c 128,-1,102
 1699 1157 1699 1157 1744 1022 c 128,-1,103
 1789 887 1789 887 1789 737 c 0,104,105
 1789 632 1789 632 1755.5 532.5 c 128,-1,106
 1722 433 1722 433 1665 355.5 c 128,-1,107
 1608 278 1608 278 1533.5 231 c 128,-1,108
 1459 184 1459 184 1377 184 c 0,109,110
 1292 184 1292 184 1217.5 222 c 128,-1,111
 1143 260 1143 260 1079 348 c 1,21,22
EndSplineSet
EndChar

StartChar: A
Encoding: 65 65 36
Width: 1386
GlyphClass: 2
Flags: W
LayerCount: 2
Fore
SplineSet
67 73 m 1,0,1
 80 99 80 99 94 131.5 c 128,-1,2
 108 164 108 164 120 202 c 1,3,-1
 147 268 l 1,4,5
 129 295 129 295 110.5 326.5 c 128,-1,6
 92 358 92 358 77 391 c 128,-1,7
 62 424 62 424 52.5 457 c 128,-1,8
 43 490 43 490 43 521 c 0,9,10
 43 523 43 523 58.5 524.5 c 128,-1,11
 74 526 74 526 97.5 527 c 128,-1,12
 121 528 121 528 148.5 528.5 c 128,-1,13
 176 529 176 529 199.5 529.5 c 128,-1,14
 223 530 223 530 238.5 530.5 c 128,-1,15
 254 531 254 531 254 531 c 1,16,17
 277 591 277 591 299 645 c 128,-1,18
 321 699 321 699 343 754 c 128,-1,19
 365 809 365 809 387 866.5 c 128,-1,20
 409 924 409 924 431 990 c 0,21,22
 473 1114 473 1114 513 1208 c 128,-1,23
 553 1302 553 1302 588 1383 c 0,24,25
 592 1393 592 1393 601.5 1401.5 c 128,-1,26
 611 1410 611 1410 622 1416 c 128,-1,27
 633 1422 633 1422 643.5 1426 c 128,-1,28
 654 1430 654 1430 660 1432 c 0,29,30
 664 1433 664 1433 690.5 1441 c 128,-1,31
 717 1449 717 1449 751 1458 c 128,-1,32
 785 1467 785 1467 818.5 1474 c 128,-1,33
 852 1481 852 1481 872 1481 c 2,34,-1
 890 1481 l 2,35,36
 906 1481 906 1481 920.5 1473.5 c 128,-1,37
 935 1466 935 1466 940 1444 c 1,38,39
 988 1321 988 1321 1042.5 1175.5 c 128,-1,40
 1097 1030 1097 1030 1149 855 c 0,41,42
 1177 761 1177 761 1204 677 c 128,-1,43
 1231 593 1231 593 1258 513 c 128,-1,44
 1285 433 1285 433 1312.5 353 c 128,-1,45
 1340 273 1340 273 1369 188 c 1,46,47
 1378 152 1378 152 1387.5 131 c 128,-1,48
 1397 110 1397 110 1405 98 c 128,-1,49
 1413 86 1413 86 1418 80.5 c 128,-1,50
 1423 75 1423 75 1423 69 c 256,51,52
 1423 63 1423 63 1404 57 c 2,53,-1
 1189 -13 l 1,54,55
 1165 -22 1165 -22 1140 -31 c 128,-1,56
 1115 -40 1115 -40 1093 -47 c 128,-1,57
 1071 -54 1071 -54 1054.5 -58.5 c 128,-1,58
 1038 -63 1038 -63 1031 -63 c 2,59,-1
 1025 -63 l 2,60,61
 1011 -63 1011 -63 1005 -54.5 c 128,-1,62
 999 -46 999 -46 997 -38 c 0,63,64
 987 -5 987 -5 977 21.5 c 128,-1,65
 967 48 967 48 957.5 74.5 c 128,-1,66
 948 101 948 101 938.5 131 c 128,-1,67
 929 161 929 161 920 202 c 0,68,69
 918 207 918 207 909 210.5 c 128,-1,70
 900 214 900 214 887.5 216 c 128,-1,71
 875 218 875 218 861 218.5 c 128,-1,72
 847 219 847 219 835 219 c 0,73,74
 797 219 797 219 773.5 218.5 c 128,-1,75
 750 218 750 218 732 217.5 c 128,-1,76
 714 217 714 217 697.5 216.5 c 128,-1,77
 681 216 681 216 657 216 c 0,78,79
 628 216 628 216 597.5 216.5 c 128,-1,80
 567 217 567 217 542 218 c 2,81,-1
 485 220 l 1,82,83
 459 148 459 148 433 85 c 128,-1,84
 407 22 407 22 377 -45 c 1,85,86
 375 -53 375 -53 367.5 -58 c 128,-1,87
 360 -63 360 -63 352 -63 c 0,88,89
 346 -63 346 -63 345 -62 c 0,90,91
 248 -27 248 -27 182 7 c 128,-1,92
 116 41 116 41 67 73 c 1,0,1
741 972 m 1,93,94
 717 883 717 883 693.5 810.5 c 128,-1,95
 670 738 670 738 650.5 682 c 128,-1,96
 631 626 631 626 617 587.5 c 128,-1,97
 603 549 603 549 597 528 c 1,98,-1
 597 519 l 2,99,100
 597 513 597 513 596 511 c 1,101,-1
 836 511 l 1,102,103
 825 560 825 560 812.5 610 c 128,-1,104
 800 660 800 660 788 715 c 128,-1,105
 776 770 776 770 764 833 c 128,-1,106
 752 896 752 896 741 972 c 1,93,94
EndSplineSet
EndChar

StartChar: B
Encoding: 66 66 37
Width: 1431
GlyphClass: 2
Flags: W
LayerCount: 2
Fore
SplineSet
253 13 m 0,0,1
 233 18 233 18 226 28.5 c 128,-1,2
 219 39 219 39 219 52 c 0,3,4
 219 55 219 55 219.5 56 c 128,-1,5
 220 57 220 57 220 60 c 0,6,7
 228 168 228 168 237.5 286.5 c 128,-1,8
 247 405 247 405 258 527.5 c 128,-1,9
 269 650 269 650 280 772 c 128,-1,10
 291 894 291 894 302 1009 c 1,11,-1
 301 1009 l 2,12,13
 297 1009 297 1009 278.5 1002.5 c 128,-1,14
 260 996 260 996 236.5 988.5 c 128,-1,15
 213 981 213 981 189 975 c 128,-1,16
 165 969 165 969 150 969 c 0,17,18
 137 969 137 969 131.5 979 c 128,-1,19
 126 989 126 989 126 1001 c 0,20,21
 126 1010 126 1010 129 1018 c 0,22,23
 156 1096 156 1096 185 1164 c 128,-1,24
 214 1232 214 1232 243 1304 c 1,25,26
 319 1345 319 1345 401 1375.5 c 128,-1,27
 483 1406 483 1406 566.5 1426.5 c 128,-1,28
 650 1447 650 1447 733 1457.5 c 128,-1,29
 816 1468 816 1468 894 1468 c 0,30,31
 1003 1468 1003 1468 1099.5 1445 c 128,-1,32
 1196 1422 1196 1422 1267.5 1375.5 c 128,-1,33
 1339 1329 1339 1329 1380.5 1258.5 c 128,-1,34
 1422 1188 1422 1188 1422 1093 c 0,35,36
 1422 1052 1422 1052 1404 1014 c 128,-1,37
 1386 976 1386 976 1357.5 941.5 c 128,-1,38
 1329 907 1329 907 1294 877.5 c 128,-1,39
 1259 848 1259 848 1225 824 c 1,40,41
 1273 789 1273 789 1311.5 760.5 c 128,-1,42
 1350 732 1350 732 1377 701 c 128,-1,43
 1404 670 1404 670 1418 631.5 c 128,-1,44
 1432 593 1432 593 1432 538 c 0,45,46
 1432 454 1432 454 1402.5 377.5 c 128,-1,47
 1373 301 1373 301 1321.5 235.5 c 128,-1,48
 1270 170 1270 170 1199.5 117 c 128,-1,49
 1129 64 1129 64 1046.5 26.5 c 128,-1,50
 964 -11 964 -11 872.5 -31.5 c 128,-1,51
 781 -52 781 -52 688 -52 c 0,52,53
 654 -52 654 -52 597 -45 c 128,-1,54
 540 -38 540 -38 477.5 -28.5 c 128,-1,55
 415 -19 415 -19 354.5 -7.5 c 128,-1,56
 294 4 294 4 253 13 c 0,0,1
714 1110 m 1,57,58
 695 992 695 992 682 870.5 c 128,-1,59
 669 749 669 749 659.5 634.5 c 128,-1,60
 650 520 650 520 643 417 c 128,-1,61
 636 314 636 314 629 233 c 1,62,63
 669 233 669 233 715.5 237.5 c 128,-1,64
 762 242 762 242 808 253 c 128,-1,65
 854 264 854 264 897.5 281.5 c 128,-1,66
 941 299 941 299 974 325 c 128,-1,67
 1007 351 1007 351 1027 386.5 c 128,-1,68
 1047 422 1047 422 1047 468 c 0,69,70
 1047 496 1047 496 1030 517.5 c 128,-1,71
 1013 539 1013 539 986.5 554.5 c 128,-1,72
 960 570 960 570 928 580.5 c 128,-1,73
 896 591 896 591 865.5 597.5 c 128,-1,74
 835 604 835 604 809.5 607.5 c 128,-1,75
 784 611 784 611 771 613 c 0,76,77
 757 615 757 615 753 623 c 128,-1,78
 749 631 749 631 749 643 c 0,79,80
 749 656 749 656 765 682 c 128,-1,81
 781 708 781 708 809 753 c 2,82,-1
 851 820 l 1,83,84
 878 830 878 830 909.5 845 c 128,-1,85
 941 860 941 860 968 879.5 c 128,-1,86
 995 899 995 899 1013 923.5 c 128,-1,87
 1031 948 1031 948 1031 977 c 0,88,89
 1031 1059 1031 1059 995.5 1102.5 c 128,-1,90
 960 1146 960 1146 893 1146 c 0,91,92
 817 1146 817 1146 714 1110 c 1,57,58
EndSplineSet
EndChar

StartChar: C
Encoding: 67 67 38
Width: 1294
GlyphClass: 2
Flags: W
LayerCount: 2
Fore
SplineSet
126 676 m 0,0,1
 126 786 126 786 152.5 887.5 c 128,-1,2
 179 989 179 989 228 1077 c 128,-1,3
 277 1165 277 1165 346.5 1237 c 128,-1,4
 416 1309 416 1309 502 1360.5 c 128,-1,5
 588 1412 588 1412 688.5 1440 c 128,-1,6
 789 1468 789 1468 900 1468 c 0,7,8
 988 1468 988 1468 1054.5 1456.5 c 128,-1,9
 1121 1445 1121 1445 1170.5 1427.5 c 128,-1,10
 1220 1410 1220 1410 1253.5 1389 c 128,-1,11
 1287 1368 1287 1368 1309 1349 c 1,12,13
 1308 1349 1308 1349 1308 1342 c 0,14,15
 1308 1327 1308 1327 1310.5 1287 c 128,-1,16
 1313 1247 1313 1247 1316.5 1198 c 128,-1,17
 1320 1149 1320 1149 1322.5 1098.5 c 128,-1,18
 1325 1048 1325 1048 1325 1011 c 0,19,20
 1325 1005 1325 1005 1321 997.5 c 128,-1,21
 1317 990 1317 990 1301 990 c 0,22,23
 1292 990 1292 990 1279 993 c 0,24,25
 1258 999 1258 999 1226 1020.5 c 128,-1,26
 1194 1042 1194 1042 1151.5 1065.5 c 128,-1,27
 1109 1089 1109 1089 1056.5 1107.5 c 128,-1,28
 1004 1126 1004 1126 942 1126 c 0,29,30
 860 1126 860 1126 793 1093.5 c 128,-1,31
 726 1061 726 1061 679 1004 c 128,-1,32
 632 947 632 947 606 868.5 c 128,-1,33
 580 790 580 790 580 697 c 0,34,35
 580 615 580 615 598 540.5 c 128,-1,36
 616 466 616 466 652.5 410 c 128,-1,37
 689 354 689 354 743.5 320.5 c 128,-1,38
 798 287 798 287 870 287 c 0,39,40
 927 287 927 287 971 291 c 128,-1,41
 1015 295 1015 295 1053 304 c 128,-1,42
 1091 313 1091 313 1127.5 328 c 128,-1,43
 1164 343 1164 343 1206 366 c 0,44,45
 1208 367 1208 367 1216 367 c 0,46,47
 1223 367 1223 367 1225.5 361.5 c 128,-1,48
 1228 356 1228 356 1228 339 c 2,49,-1
 1228 219 l 2,50,51
 1228 186 1228 186 1227.5 154.5 c 128,-1,52
 1227 123 1227 123 1226.5 98 c 128,-1,53
 1226 73 1226 73 1225.5 57.5 c 128,-1,54
 1225 42 1225 42 1224 42 c 0,55,56
 1178 13 1178 13 1125.5 -5.5 c 128,-1,57
 1073 -24 1073 -24 1017.5 -34.5 c 128,-1,58
 962 -45 962 -45 906 -48.5 c 128,-1,59
 850 -52 850 -52 798 -52 c 0,60,61
 657 -52 657 -52 534 1.5 c 128,-1,62
 411 55 411 55 320.5 151 c 128,-1,63
 230 247 230 247 178 381 c 128,-1,64
 126 515 126 515 126 676 c 0,0,1
EndSplineSet
EndChar

StartChar: D
Encoding: 68 68 39
Width: 1544
GlyphClass: 2
Flags: W
LayerCount: 2
Fore
SplineSet
171 -52 m 1,0,1
 160 -50 160 -50 155 -41 c 128,-1,2
 150 -32 150 -32 150 -21 c 0,3,4
 150 -12 150 -12 154 -5 c 2,5,-1
 277 230 l 2,6,7
 278 234 278 234 280.5 261 c 128,-1,8
 283 288 283 288 286 328.5 c 128,-1,9
 289 369 289 369 292.5 419 c 128,-1,10
 296 469 296 469 300 518 c 128,-1,11
 304 567 304 567 307.5 611.5 c 128,-1,12
 311 656 311 656 314 686 c 0,13,14
 315 698 315 698 317 722.5 c 128,-1,15
 319 747 319 747 321 779 c 128,-1,16
 323 811 323 811 326 848 c 128,-1,17
 329 885 329 885 332 922 c 2,18,-1
 346 1131 l 1,19,20
 319 1125 319 1125 290 1118.5 c 128,-1,21
 261 1112 261 1112 233.5 1107 c 128,-1,22
 206 1102 206 1102 181.5 1098.5 c 128,-1,23
 157 1095 157 1095 139 1095 c 0,24,25
 128 1095 128 1095 122.5 1105 c 128,-1,26
 117 1115 117 1115 117 1126 c 0,27,28
 117 1139 117 1139 123 1145 c 2,29,-1
 377 1382 l 2,30,31
 408 1410 408 1410 438.5 1427.5 c 128,-1,32
 469 1445 469 1445 512 1455 c 128,-1,33
 555 1465 555 1465 617.5 1468.5 c 128,-1,34
 680 1472 680 1472 776 1472 c 0,35,36
 940 1472 940 1472 1067 1438 c 128,-1,37
 1194 1404 1194 1404 1282 1341 c 1,38,39
 1347 1296 1347 1296 1398 1247 c 128,-1,40
 1449 1198 1449 1198 1484 1138.5 c 128,-1,41
 1519 1079 1519 1079 1537 1007.5 c 128,-1,42
 1555 936 1555 936 1555 846 c 0,43,44
 1555 675 1555 675 1504 542 c 128,-1,45
 1453 409 1453 409 1365 309.5 c 128,-1,46
 1277 210 1277 210 1159.5 141 c 128,-1,47
 1042 72 1042 72 908.5 29 c 128,-1,48
 775 -14 775 -14 632.5 -33 c 128,-1,49
 490 -52 490 -52 353 -52 c 2,50,-1
 171 -52 l 1,0,1
752 1152 m 1,51,-1
 740 1031 l 2,52,53
 734 968 734 968 727.5 896.5 c 128,-1,54
 721 825 721 825 715 751.5 c 128,-1,55
 709 678 709 678 703 606.5 c 128,-1,56
 697 535 697 535 692 473 c 128,-1,57
 687 411 687 411 683 362 c 128,-1,58
 679 313 679 313 676 284 c 2,59,-1
 673 254 l 1,60,61
 794 254 794 254 877.5 293 c 128,-1,62
 961 332 961 332 1013 400.5 c 128,-1,63
 1065 469 1065 469 1088.5 561 c 128,-1,64
 1112 653 1112 653 1112 759 c 0,65,66
 1112 835 1112 835 1091 905.5 c 128,-1,67
 1070 976 1070 976 1030 1040 c 256,68,69
 990 1104 990 1104 932 1136 c 128,-1,70
 874 1168 874 1168 801 1168 c 0,71,72
 789 1168 789 1168 775 1162.5 c 128,-1,73
 761 1157 761 1157 752 1152 c 1,51,-1
EndSplineSet
EndChar

StartChar: E
Encoding: 69 69 40
Width: 1178
GlyphClass: 2
Flags: W
LayerCount: 2
Fore
SplineSet
1023 830 m 0,0,1
 1019 816 1019 816 1008 790.5 c 128,-1,2
 997 765 997 765 982.5 733 c 128,-1,3
 968 701 968 701 951.5 664.5 c 128,-1,4
 935 628 935 628 919 591 c 0,5,6
 913 577 913 577 908 570.5 c 128,-1,7
 903 564 903 564 892 561 c 128,-1,8
 881 558 881 558 861.5 557.5 c 128,-1,9
 842 557 842 557 807 556 c 2,10,-1
 668 553 l 1,11,-1
 640 247 l 1,12,-1
 1153 247 l 1,13,-1
 1153 208 l 1,14,15
 1151 206 1151 206 1136 181.5 c 128,-1,16
 1121 157 1121 157 1101 123 c 128,-1,17
 1081 89 1081 89 1059 54.5 c 128,-1,18
 1037 20 1037 20 1022 -1 c 1,19,20
 1012 -19 1012 -19 999 -29.5 c 128,-1,21
 986 -40 986 -40 970.5 -45 c 128,-1,22
 955 -50 955 -50 936.5 -51 c 128,-1,23
 918 -52 918 -52 896 -52 c 0,24,25
 806 -52 806 -52 708.5 -48 c 128,-1,26
 611 -44 611 -44 514 -38 c 128,-1,27
 417 -32 417 -32 324.5 -24.5 c 128,-1,28
 232 -17 232 -17 153 -9 c 0,29,30
 146 -8 146 -8 140.5 -1 c 128,-1,31
 135 6 135 6 135 15 c 1,32,33
 131 15 131 15 140.5 32 c 128,-1,34
 150 49 150 49 167 76 c 128,-1,35
 184 103 184 103 204.5 137.5 c 128,-1,36
 225 172 225 172 244 207 c 1,37,-1
 260 432 l 2,38,39
 264 489 264 489 266.5 517 c 128,-1,40
 269 545 269 545 269 547 c 1,41,42
 209 548 209 548 179.5 553 c 128,-1,43
 150 558 150 558 150 575 c 0,44,45
 150 583 150 583 164.5 605 c 128,-1,46
 179 627 179 627 200 655.5 c 128,-1,47
 221 684 221 684 244.5 715 c 128,-1,48
 268 746 268 746 286 772 c 1,49,-1
 311 1112 l 1,50,-1
 308 1112 l 1,51,52
 286 1111 286 1111 268 1110.5 c 128,-1,53
 250 1110 250 1110 235 1110 c 0,54,55
 187 1110 187 1110 166.5 1115.5 c 128,-1,56
 146 1121 146 1121 146 1136 c 0,57,58
 146 1143 146 1143 158 1165 c 128,-1,59
 170 1187 170 1187 188 1215.5 c 128,-1,60
 206 1244 206 1244 226 1275.5 c 128,-1,61
 246 1307 246 1307 262 1334 c 2,62,-1
 322 1436 l 1,63,-1
 740 1436 l 1,64,-1
 1233 1472 l 2,65,66
 1234 1472 1234 1472 1238.5 1471.5 c 128,-1,67
 1243 1471 1243 1471 1248 1468.5 c 128,-1,68
 1253 1466 1253 1466 1257.5 1460 c 128,-1,69
 1262 1454 1262 1454 1262 1443 c 1,70,-1
 1247 1391 l 2,71,72
 1240 1369 1240 1369 1230 1344.5 c 128,-1,73
 1220 1320 1220 1320 1208 1294 c 1,74,-1
 1164 1178 l 2,75,76
 1157 1161 1157 1161 1148 1152 c 128,-1,77
 1139 1143 1139 1143 1110 1142 c 0,78,79
 1034 1140 1034 1140 940.5 1135.5 c 128,-1,80
 847 1131 847 1131 726 1127 c 1,81,82
 722 1113 722 1113 722 1104.5 c 128,-1,83
 722 1096 722 1096 720 1072 c 2,84,-1
 715 1026 l 1,85,86
 713 994 713 994 709 957 c 128,-1,87
 705 920 705 920 699 866 c 1,88,89
 750 868 750 868 798.5 870 c 128,-1,90
 847 872 847 872 887 873.5 c 128,-1,91
 927 875 927 875 956.5 876 c 128,-1,92
 986 877 986 877 998 877 c 0,93,94
 1006 877 1006 877 1016 871 c 128,-1,95
 1026 865 1026 865 1026 848 c 0,96,97
 1026 840 1026 840 1023 830 c 0,0,1
EndSplineSet
EndChar

StartChar: F
Encoding: 70 70 41
Width: 1204
GlyphClass: 2
Flags: W
LayerCount: 2
Fore
SplineSet
1135 822 m 0,0,1
 1131 807 1131 807 1120 779 c 128,-1,2
 1109 751 1109 751 1095 715.5 c 128,-1,3
 1081 680 1081 680 1064 640.5 c 128,-1,4
 1047 601 1047 601 1031 563 c 0,5,6
 1024 546 1024 546 1014.5 538 c 128,-1,7
 1005 530 1005 530 976 529 c 2,8,-1
 684 524 l 1,9,-1
 648 80 l 2,10,11
 647 71 647 71 643 62.5 c 128,-1,12
 639 54 639 54 631 49 c 0,13,14
 628 47 628 47 607.5 37.5 c 128,-1,15
 587 28 587 28 556 15 c 128,-1,16
 525 2 525 2 488 -13 c 128,-1,17
 451 -28 451 -28 415 -40.5 c 128,-1,18
 379 -53 379 -53 349 -61.5 c 128,-1,19
 319 -70 319 -70 302 -70 c 0,20,21
 282 -70 282 -70 265.5 -62.5 c 128,-1,22
 249 -55 249 -55 249 -32 c 0,23,24
 248 18 248 18 251.5 78.5 c 128,-1,25
 255 139 255 139 260 201.5 c 128,-1,26
 265 264 265 264 271 324.5 c 128,-1,27
 277 385 277 385 281 435 c 2,28,-1
 288 519 l 1,29,30
 204 519 204 519 168 523.5 c 128,-1,31
 132 528 132 528 132 547 c 0,32,33
 132 560 132 560 147 581 c 0,34,35
 168 610 168 610 194.5 651 c 128,-1,36
 221 692 221 692 245.5 731 c 128,-1,37
 270 770 270 770 288.5 800 c 128,-1,38
 307 830 307 830 312 837 c 1,39,-1
 331 1112 l 1,40,41
 312 1112 312 1112 298 1111.5 c 128,-1,42
 284 1111 284 1111 272.5 1110.5 c 128,-1,43
 261 1110 261 1110 251 1109.5 c 128,-1,44
 241 1109 241 1109 230 1109 c 0,45,46
 182 1109 182 1109 161.5 1114.5 c 128,-1,47
 141 1120 141 1120 141 1135 c 0,48,49
 141 1142 141 1142 153 1164 c 128,-1,50
 165 1186 165 1186 182.5 1214.5 c 128,-1,51
 200 1243 200 1243 220.5 1274.5 c 128,-1,52
 241 1306 241 1306 257 1333 c 2,53,-1
 317 1435 l 1,54,-1
 772 1451 l 2,55,56
 860 1454 860 1454 947 1457.5 c 128,-1,57
 1034 1461 1034 1461 1107.5 1464 c 128,-1,58
 1181 1467 1181 1467 1234 1469.5 c 128,-1,59
 1287 1472 1287 1472 1308 1473 c 0,60,61
 1309 1473 1309 1473 1313.5 1472.5 c 128,-1,62
 1318 1472 1318 1472 1323 1469.5 c 128,-1,63
 1328 1467 1328 1467 1332.5 1461 c 128,-1,64
 1337 1455 1337 1455 1337 1444 c 0,65,66
 1337 1438 1337 1438 1323 1404 c 128,-1,67
 1309 1370 1309 1370 1283 1303 c 2,68,-1
 1239 1187 l 2,69,70
 1232 1170 1232 1170 1223 1161 c 128,-1,71
 1214 1152 1214 1152 1185 1151 c 0,72,73
 1151 1150 1151 1150 1116 1148 c 128,-1,74
 1081 1146 1081 1146 1044 1144 c 2,75,-1
 740 1129 l 1,76,77
 734 1090 734 1090 731.5 1071 c 128,-1,78
 729 1052 729 1052 728.5 1039.5 c 128,-1,79
 728 1027 728 1027 728 1014.5 c 128,-1,80
 728 1002 728 1002 727 975 c 0,81,82
 726 956 726 956 724.5 943 c 128,-1,83
 723 930 723 930 721.5 917.5 c 128,-1,84
 720 905 720 905 718.5 891 c 128,-1,85
 717 877 717 877 716 856 c 1,86,87
 782 858 782 858 845.5 860 c 128,-1,88
 909 862 909 862 962.5 864 c 128,-1,89
 1016 866 1016 866 1055 867.5 c 128,-1,90
 1094 869 1094 869 1110 869 c 0,91,92
 1118 869 1118 869 1128 863 c 128,-1,93
 1138 857 1138 857 1138 840 c 0,94,95
 1138 832 1138 832 1135 822 c 0,0,1
EndSplineSet
EndChar

StartChar: G
Encoding: 71 71 42
Width: 1463
GlyphClass: 2
Flags: W
LayerCount: 2
Fore
SplineSet
125 646 m 0,0,1
 125 761 125 761 151.5 866.5 c 128,-1,2
 178 972 178 972 227 1063.5 c 128,-1,3
 276 1155 276 1155 345.5 1229.5 c 128,-1,4
 415 1304 415 1304 501 1357.5 c 128,-1,5
 587 1411 587 1411 687.5 1440 c 128,-1,6
 788 1469 788 1469 899 1469 c 0,7,8
 987 1469 987 1469 1053.5 1457.5 c 128,-1,9
 1120 1446 1120 1446 1169.5 1428.5 c 128,-1,10
 1219 1411 1219 1411 1252.5 1390 c 128,-1,11
 1286 1369 1286 1369 1308 1350 c 1,12,13
 1307 1350 1307 1350 1307 1343 c 0,14,15
 1307 1328 1307 1328 1309.5 1288 c 128,-1,16
 1312 1248 1312 1248 1315.5 1199 c 128,-1,17
 1319 1150 1319 1150 1321.5 1099.5 c 128,-1,18
 1324 1049 1324 1049 1324 1012 c 0,19,20
 1324 1006 1324 1006 1320 998.5 c 128,-1,21
 1316 991 1316 991 1300 991 c 0,22,23
 1291 991 1291 991 1278 994 c 0,24,25
 1257 1000 1257 1000 1225 1021.5 c 128,-1,26
 1193 1043 1193 1043 1150.5 1066.5 c 128,-1,27
 1108 1090 1108 1090 1055.5 1108.5 c 128,-1,28
 1003 1127 1003 1127 941 1127 c 0,29,30
 859 1127 859 1127 792 1092.5 c 128,-1,31
 725 1058 725 1058 678 996.5 c 128,-1,32
 631 935 631 935 605 850.5 c 128,-1,33
 579 766 579 766 579 667 c 0,34,35
 579 580 579 580 595 504 c 128,-1,36
 611 428 611 428 643.5 372.5 c 128,-1,37
 676 317 676 317 724 285 c 128,-1,38
 772 253 772 253 837 253 c 0,39,40
 900 253 900 253 980 280 c 1,41,-1
 1003 421 l 1,42,-1
 812 421 l 1,43,44
 834 542 834 542 850 611 c 128,-1,45
 866 680 866 680 880 715 c 128,-1,46
 894 750 894 750 909 759 c 128,-1,47
 924 768 924 768 944 768 c 2,48,-1
 1470 768 l 2,49,50
 1493 768 1493 768 1503.5 765 c 128,-1,51
 1514 762 1514 762 1514 744 c 0,52,53
 1514 735 1514 735 1512 722.5 c 128,-1,54
 1510 710 1510 710 1507 692 c 1,55,-1
 1457 524 l 2,56,57
 1448 492 1448 492 1442 474.5 c 128,-1,58
 1436 457 1436 457 1427 448.5 c 128,-1,59
 1418 440 1418 440 1402.5 438.5 c 128,-1,60
 1387 437 1387 437 1358 437 c 0,61,62
 1342 437 1342 437 1339 424 c 128,-1,63
 1336 411 1336 411 1334 397 c 0,64,65
 1328 353 1328 353 1322 309.5 c 128,-1,66
 1316 266 1316 266 1310.5 228.5 c 128,-1,67
 1305 191 1305 191 1299 162.5 c 128,-1,68
 1293 134 1293 134 1287 121 c 1,69,70
 1219 78 1219 78 1163.5 45.5 c 128,-1,71
 1108 13 1108 13 1053 -8.5 c 128,-1,72
 998 -30 998 -30 937 -41 c 128,-1,73
 876 -52 876 -52 797 -52 c 0,74,75
 656 -52 656 -52 533 -1 c 128,-1,76
 410 50 410 50 319.5 142.5 c 128,-1,77
 229 235 229 235 177 363 c 128,-1,78
 125 491 125 491 125 646 c 0,0,1
EndSplineSet
EndChar

StartChar: H
Encoding: 72 72 43
Width: 1490
GlyphClass: 2
Flags: W
LayerCount: 2
Fore
SplineSet
1065 1317 m 0,0,1
 1065 1353 1065 1353 1071.5 1366.5 c 128,-1,2
 1078 1380 1078 1380 1098 1385 c 2,3,-1
 1442 1468 l 2,4,5
 1455 1472 1455 1472 1469 1472 c 256,6,7
 1483 1472 1483 1472 1488 1463.5 c 128,-1,8
 1493 1455 1493 1455 1493 1429 c 1,9,-1
 1481 1272 l 2,10,11
 1476 1203 1476 1203 1470 1135 c 128,-1,12
 1464 1067 1464 1067 1452 1016 c 1,13,-1
 1434 874 l 2,14,15
 1426 811 1426 811 1419 737.5 c 128,-1,16
 1412 664 1412 664 1404 573 c 2,17,-1
 1357 80 l 2,18,19
 1356 71 1356 71 1353 62 c 128,-1,20
 1350 53 1350 53 1340 49 c 0,21,22
 1333 46 1333 46 1307.5 36 c 128,-1,23
 1282 26 1282 26 1247 13 c 128,-1,24
 1212 0 1212 0 1172 -14.5 c 128,-1,25
 1132 -29 1132 -29 1096 -41 c 128,-1,26
 1060 -53 1060 -53 1032 -61 c 128,-1,27
 1004 -69 1004 -69 994 -69 c 0,28,29
 980 -69 980 -69 969.5 -61.5 c 128,-1,30
 959 -54 959 -54 959 -33 c 0,31,32
 959 88 959 88 973 214.5 c 128,-1,33
 987 341 987 341 998 466 c 0,34,35
 1000 480 1000 480 999.5 492 c 128,-1,36
 999 504 999 504 1001 518 c 1,37,-1
 635 518 l 1,38,-1
 594 80 l 2,39,40
 593 71 593 71 590.5 62.5 c 128,-1,41
 588 54 588 54 577 49 c 0,42,43
 573 47 573 47 537.5 34.5 c 128,-1,44
 502 22 502 22 455.5 5.5 c 128,-1,45
 409 -11 409 -11 363.5 -27.5 c 128,-1,46
 318 -44 318 -44 294 -53 c 0,47,48
 282 -58 282 -58 264.5 -63.5 c 128,-1,49
 247 -69 247 -69 230 -69 c 0,50,51
 216 -69 216 -69 205.5 -61 c 128,-1,52
 195 -53 195 -53 195 -32 c 0,53,54
 195 16 195 16 198.5 77.5 c 128,-1,55
 202 139 202 139 207 206.5 c 128,-1,56
 212 274 212 274 219 345 c 128,-1,57
 226 416 226 416 233 485 c 1,58,-1
 235 514 l 1,59,60
 154 514 154 514 117.5 518.5 c 128,-1,61
 81 523 81 523 81 542 c 0,62,63
 81 555 81 555 96 576 c 0,64,65
 116 604 116 604 142.5 643.5 c 128,-1,66
 169 683 169 683 193.5 721.5 c 128,-1,67
 218 760 218 760 237.5 790.5 c 128,-1,68
 257 821 257 821 263 830 c 1,69,-1
 286 1071 l 2,70,71
 286 1073 286 1073 288 1101 c 128,-1,72
 290 1129 290 1129 293 1167.5 c 128,-1,73
 296 1206 296 1206 299.5 1247 c 128,-1,74
 303 1288 303 1288 306 1317 c 1,75,76
 308 1352 308 1352 311.5 1366 c 128,-1,77
 315 1380 315 1380 335 1385 c 2,78,-1
 675 1468 l 2,79,80
 688 1472 688 1472 702 1472 c 256,81,82
 716 1472 716 1472 721 1463.5 c 128,-1,83
 726 1455 726 1455 726 1429 c 1,84,85
 719 1357 719 1357 715 1298 c 128,-1,86
 711 1239 711 1239 706.5 1188 c 128,-1,87
 702 1137 702 1137 697 1091 c 128,-1,88
 692 1045 692 1045 683 997 c 1,89,-1
 663 842 l 1,90,-1
 1026 846 l 1,91,92
 1035 979 1035 979 1046 1072 c 128,-1,93
 1057 1165 1057 1165 1060 1219 c 0,94,95
 1063 1270 1063 1270 1064 1292 c 128,-1,96
 1065 1314 1065 1314 1065 1317 c 0,0,1
EndSplineSet
EndChar

StartChar: I
Encoding: 73 73 44
Width: 668
GlyphClass: 2
Flags: W
LayerCount: 2
Fore
SplineSet
139 -32 m 1,0,-1
 189 652 l 2,1,2
 214 996 214 996 226 1157 c 128,-1,3
 238 1318 238 1318 238 1317 c 1,4,5
 239 1335 239 1335 240 1347 c 128,-1,6
 241 1359 241 1359 244 1367 c 128,-1,7
 247 1375 247 1375 252 1379 c 128,-1,8
 257 1383 257 1383 267 1385 c 2,9,-1
 613 1468 l 2,10,11
 626 1472 626 1472 640 1472 c 256,12,13
 654 1472 654 1472 659 1463.5 c 128,-1,14
 664 1455 664 1455 664 1429 c 1,15,16
 657 1367 657 1367 653 1313 c 128,-1,17
 649 1259 649 1259 646.5 1210 c 128,-1,18
 644 1161 644 1161 642 1115.5 c 128,-1,19
 640 1070 640 1070 637 1025 c 1,20,21
 631 976 631 976 626.5 927 c 128,-1,22
 622 878 622 878 618 825.5 c 128,-1,23
 614 773 614 773 609.5 714.5 c 128,-1,24
 605 656 605 656 599 587 c 2,25,-1
 555 60 l 2,26,27
 554 51 554 51 551.5 42.5 c 128,-1,28
 549 34 549 34 538 29 c 0,29,30
 537 29 537 29 526 25 c 128,-1,31
 515 21 515 21 497 14.5 c 128,-1,32
 479 8 479 8 455 1 c 128,-1,33
 431 -6 431 -6 404 -12 c 0,34,35
 359 -22 359 -22 325.5 -32 c 128,-1,36
 292 -42 292 -42 266 -50.5 c 128,-1,37
 240 -59 240 -59 218 -64 c 128,-1,38
 196 -69 196 -69 174 -69 c 0,39,40
 159 -69 159 -69 149 -61 c 128,-1,41
 139 -53 139 -53 139 -32 c 1,0,-1
EndSplineSet
EndChar

StartChar: J
Encoding: 74 74 45
Width: 762
GlyphClass: 2
Flags: W
LayerCount: 2
Fore
SplineSet
336 1317 m 2,0,1
 337 1335 337 1335 338 1347 c 128,-1,2
 339 1359 339 1359 341.5 1367 c 128,-1,3
 344 1375 344 1375 349 1379 c 128,-1,4
 354 1383 354 1383 365 1385 c 2,5,-1
 711 1468 l 2,6,7
 724 1472 724 1472 737 1472 c 0,8,9
 751 1472 751 1472 756.5 1463 c 128,-1,10
 762 1454 762 1454 762 1429 c 1,11,-1
 732 1108 l 1,12,-1
 714 916 l 2,13,14
 708 849 708 849 702 786 c 128,-1,15
 696 723 696 723 690.5 669.5 c 128,-1,16
 685 616 685 616 681 574.5 c 128,-1,17
 677 533 677 533 675 508 c 2,18,-1
 673 479 l 2,19,20
 665 365 665 365 629.5 261 c 128,-1,21
 594 157 594 157 535.5 77.5 c 128,-1,22
 477 -2 477 -2 396.5 -49 c 128,-1,23
 316 -96 316 -96 218 -96 c 0,24,25
 168 -96 168 -96 143.5 -94 c 128,-1,26
 119 -92 119 -92 108.5 -87.5 c 128,-1,27
 98 -83 98 -83 95.5 -75.5 c 128,-1,28
 93 -68 93 -68 87 -57 c 1,29,-1
 54 186 l 2,30,31
 54 188 54 188 60.5 194.5 c 128,-1,32
 67 201 67 201 71 203 c 0,33,34
 107 217 107 217 142 235 c 128,-1,35
 177 253 177 253 204.5 277.5 c 128,-1,36
 232 302 232 302 249.5 335.5 c 128,-1,37
 267 369 267 369 269 414 c 1,38,-1
 336 1317 l 2,0,1
EndSplineSet
EndChar

StartChar: K
Encoding: 75 75 46
Width: 1411
GlyphClass: 2
Flags: W
LayerCount: 2
Fore
SplineSet
660 1431 m 1,0,1
 658 1416 658 1416 656 1383.5 c 128,-1,2
 654 1351 654 1351 650.5 1309 c 128,-1,3
 647 1267 647 1267 644 1219.5 c 128,-1,4
 641 1172 641 1172 637.5 1127.5 c 128,-1,5
 634 1083 634 1083 630.5 1046 c 128,-1,6
 627 1009 627 1009 625 987 c 1,7,-1
 676 1039 l 1,8,-1
 818 1215 l 2,9,10
 844 1248 844 1248 870 1279.5 c 128,-1,11
 896 1311 896 1311 916.5 1336.5 c 128,-1,12
 937 1362 937 1362 950 1379 c 128,-1,13
 963 1396 963 1396 965 1398 c 1,14,-1
 1409 1435 l 2,15,16
 1411 1436 1411 1436 1418 1436 c 2,17,-1
 1426 1436 l 2,18,19
 1449 1436 1449 1436 1449 1424 c 0,20,21
 1449 1417 1449 1417 1442.5 1407.5 c 128,-1,22
 1436 1398 1436 1398 1423 1383 c 0,23,24
 1407 1364 1407 1364 1376.5 1328.5 c 128,-1,25
 1346 1293 1346 1293 1310 1250.5 c 128,-1,26
 1274 1208 1274 1208 1235.5 1162.5 c 128,-1,27
 1197 1117 1197 1117 1164 1078.5 c 128,-1,28
 1131 1040 1131 1040 1107.5 1012 c 128,-1,29
 1084 984 1084 984 1078 976 c 1,30,-1
 1015 916 l 2,31,32
 951 855 951 855 851 764 c 1,33,34
 882 732 882 732 917.5 694.5 c 128,-1,35
 953 657 953 657 985.5 622.5 c 128,-1,36
 1018 588 1018 588 1044.5 560 c 128,-1,37
 1071 532 1071 532 1084 518 c 2,38,-1
 1393 160 l 2,39,40
 1398 154 1398 154 1406 150 c 128,-1,41
 1414 146 1414 146 1422 143 c 128,-1,42
 1430 140 1430 140 1435.5 136.5 c 128,-1,43
 1441 133 1441 133 1441 128 c 0,44,45
 1441 122 1441 122 1428 109 c 0,46,47
 1420 101 1420 101 1398 85.5 c 128,-1,48
 1376 70 1376 70 1346.5 52 c 128,-1,49
 1317 34 1317 34 1283 15 c 128,-1,50
 1249 -4 1249 -4 1217.5 -19.5 c 128,-1,51
 1186 -35 1186 -35 1159.5 -45 c 128,-1,52
 1133 -55 1133 -55 1119 -55 c 0,53,54
 1098 -55 1098 -55 1075 -36.5 c 128,-1,55
 1052 -18 1052 -18 1020 19.5 c 128,-1,56
 988 57 988 57 944 115 c 128,-1,57
 900 173 900 173 838 251 c 0,58,59
 802 296 802 296 768 339.5 c 128,-1,60
 734 383 734 383 704 421.5 c 128,-1,61
 674 460 674 460 649.5 490.5 c 128,-1,62
 625 521 625 521 609 540 c 1,63,64
 601 532 601 532 592 524.5 c 128,-1,65
 583 517 583 517 575 509 c 1,66,-1
 540 80 l 2,67,68
 539 71 539 71 536.5 62 c 128,-1,69
 534 53 534 53 523 49 c 2,70,-1
 240 -53 l 2,71,72
 229 -57 229 -57 211 -63 c 128,-1,73
 193 -69 193 -69 176 -69 c 0,74,75
 161 -69 161 -69 151 -61 c 128,-1,76
 141 -53 141 -53 141 -32 c 1,77,78
 146 27 146 27 153.5 121 c 128,-1,79
 161 215 161 215 169.5 335.5 c 128,-1,80
 178 456 178 456 187.5 598.5 c 128,-1,81
 197 741 197 741 208 898 c 2,82,-1
 236 1319 l 2,83,84
 237 1337 237 1337 238 1349 c 128,-1,85
 239 1361 239 1361 241 1369 c 128,-1,86
 243 1377 243 1377 248 1381 c 128,-1,87
 253 1385 253 1385 263 1387 c 2,88,-1
 609 1470 l 2,89,90
 622 1474 622 1474 636 1474 c 256,91,92
 650 1474 650 1474 655 1465.5 c 128,-1,93
 660 1457 660 1457 660 1431 c 1,0,1
EndSplineSet
EndChar

StartChar: L
Encoding: 76 76 47
Width: 1022
GlyphClass: 2
Flags: W
LayerCount: 2
Fore
SplineSet
670 1433 m 0,0,1
 669 1409 669 1409 666 1373.5 c 128,-1,2
 663 1338 663 1338 659.5 1298.5 c 128,-1,3
 656 1259 656 1259 651.5 1218.5 c 128,-1,4
 647 1178 647 1178 643.5 1144 c 128,-1,5
 640 1110 640 1110 638 1085.5 c 128,-1,6
 636 1061 636 1061 636 1054 c 0,7,8
 632 992 632 992 627.5 939 c 128,-1,9
 623 886 623 886 618 834 c 128,-1,10
 613 782 613 782 607.5 726.5 c 128,-1,11
 602 671 602 671 596 604 c 128,-1,12
 590 537 590 537 582.5 455 c 128,-1,13
 575 373 575 373 567 267 c 1,14,-1
 981 309 l 2,15,16
 1009 312 1009 312 1027 312 c 0,17,18
 1049 312 1049 312 1054.5 305 c 128,-1,19
 1060 298 1060 298 1060 283 c 0,20,21
 1060 281 1060 281 1059 277.5 c 128,-1,22
 1058 274 1058 274 1054.5 264 c 128,-1,23
 1051 254 1051 254 1044.5 235 c 128,-1,24
 1038 216 1038 216 1027 182 c 2,25,-1
 1005 116 l 2,26,27
 994 84 994 84 984.5 58.5 c 128,-1,28
 975 33 975 33 961 14.5 c 128,-1,29
 947 -4 947 -4 926 -15 c 128,-1,30
 905 -26 905 -26 872 -29 c 0,31,32
 851 -31 851 -31 815 -32.5 c 128,-1,33
 779 -34 779 -34 732 -35.5 c 128,-1,34
 685 -37 685 -37 630.5 -39 c 128,-1,35
 576 -41 576 -41 519 -44 c 0,36,37
 463 -46 463 -46 406 -46.5 c 128,-1,38
 349 -47 349 -47 298 -48 c 128,-1,39
 247 -49 247 -49 204 -50 c 128,-1,40
 161 -51 161 -51 133 -52 c 0,41,42
 107 -52 107 -52 95.5 -48 c 128,-1,43
 84 -44 84 -44 84 -35 c 0,44,45
 84 -24 84 -24 91 -3.5 c 128,-1,46
 98 17 98 17 109 42.5 c 128,-1,47
 120 68 120 68 133.5 95.5 c 128,-1,48
 147 123 147 123 160 149 c 1,49,-1
 187 506 l 1,50,51
 195 597 195 597 203 691 c 128,-1,52
 211 785 211 785 217 873 c 2,53,-1
 234 1138 l 2,54,55
 240 1232 240 1232 242 1274.5 c 128,-1,56
 244 1317 244 1317 244 1321 c 0,57,58
 246 1339 246 1339 247 1351 c 128,-1,59
 248 1363 248 1363 250.5 1371 c 128,-1,60
 253 1379 253 1379 258 1383 c 128,-1,61
 263 1387 263 1387 273 1389 c 2,62,-1
 624 1472 l 1,63,64
 635 1476 635 1476 651 1476 c 0,65,66
 662 1476 662 1476 666.5 1469.5 c 128,-1,67
 671 1463 671 1463 671 1445 c 0,68,69
 671 1443 671 1443 670.5 1439.5 c 128,-1,70
 670 1436 670 1436 670 1433 c 0,0,1
EndSplineSet
EndChar

StartChar: M
Encoding: 77 77 48
Width: 1729
GlyphClass: 2
Flags: W
LayerCount: 2
Fore
SplineSet
1437 1472 m 2,0,1
 1442 1473 1442 1473 1446.5 1473.5 c 128,-1,2
 1451 1474 1451 1474 1455 1474 c 0,3,4
 1473 1474 1473 1474 1484 1462.5 c 128,-1,5
 1495 1451 1495 1451 1499 1422 c 0,6,7
 1501 1404 1501 1404 1505.5 1371.5 c 128,-1,8
 1510 1339 1510 1339 1515.5 1299.5 c 128,-1,9
 1521 1260 1521 1260 1527.5 1218 c 128,-1,10
 1534 1176 1534 1176 1539 1140.5 c 128,-1,11
 1544 1105 1544 1105 1548 1079.5 c 128,-1,12
 1552 1054 1552 1054 1553 1047 c 0,13,14
 1575 870 1575 870 1592 763 c 128,-1,15
 1609 656 1609 656 1616 605 c 2,16,-1
 1683 64 l 1,17,-1
 1673 33 l 2,18,19
 1671 26 1671 26 1647 16 c 128,-1,20
 1623 6 1623 6 1589 -5.5 c 128,-1,21
 1555 -17 1555 -17 1515 -28 c 128,-1,22
 1475 -39 1475 -39 1441 -48 c 128,-1,23
 1407 -57 1407 -57 1383.5 -62.5 c 128,-1,24
 1360 -68 1360 -68 1359 -68 c 0,25,26
 1335 -68 1335 -68 1321 -33 c 128,-1,27
 1307 2 1307 2 1298 56 c 128,-1,28
 1289 110 1289 110 1283.5 174 c 128,-1,29
 1278 238 1278 238 1271 297 c 0,30,31
 1265 346 1265 346 1260 396 c 128,-1,32
 1255 446 1255 446 1249 498 c 2,33,-1
 1210 790 l 1,34,-1
 839 111 l 1,35,36
 822 87 822 87 805 76.5 c 128,-1,37
 788 66 788 66 773 66 c 0,38,39
 751 66 751 66 738.5 79 c 128,-1,40
 726 92 726 92 721 111 c 0,41,42
 702 174 702 174 688.5 217.5 c 128,-1,43
 675 261 675 261 663.5 297 c 128,-1,44
 652 333 652 333 642 367 c 128,-1,45
 632 401 632 401 619.5 445.5 c 128,-1,46
 607 490 607 490 591.5 550.5 c 128,-1,47
 576 611 576 611 554 699 c 1,48,-1
 523 555 l 1,49,-1
 379 -56 l 2,50,51
 376 -68 376 -68 354 -68 c 0,52,53
 333 -68 333 -68 296.5 -60 c 128,-1,54
 260 -52 260 -52 220.5 -40.5 c 128,-1,55
 181 -29 181 -29 143.5 -16.5 c 128,-1,56
 106 -4 106 -4 84 6 c 0,57,58
 79 8 79 8 71.5 15.5 c 128,-1,59
 64 23 64 23 64 39 c 0,60,61
 64 43 64 43 67 56 c 128,-1,62
 70 69 70 69 74.5 86.5 c 128,-1,63
 79 104 79 104 84.5 122 c 128,-1,64
 90 140 90 140 95 154 c 0,65,66
 108 188 108 188 118.5 234 c 128,-1,67
 129 280 129 280 138 327 c 128,-1,68
 147 374 147 374 154.5 417 c 128,-1,69
 162 460 162 460 169 489 c 2,70,-1
 292 1063 l 1,71,-1
 329 1225 l 2,72,73
 336 1256 336 1256 342.5 1285.5 c 128,-1,74
 349 1315 349 1315 354 1339 c 128,-1,75
 359 1363 359 1363 362 1378 c 128,-1,76
 365 1393 365 1393 365 1395 c 1,77,-1
 615 1472 l 1,78,79
 629 1472 629 1472 639.5 1469.5 c 128,-1,80
 650 1467 650 1467 653 1453 c 1,81,-1
 852 813 l 1,82,-1
 1125 1388 l 1,83,-1
 1437 1472 l 2,0,1
EndSplineSet
EndChar

StartChar: N
Encoding: 78 78 49
Width: 1379
GlyphClass: 2
Flags: W
LayerCount: 2
Fore
SplineSet
991 1340 m 1,0,1
 999 1373 999 1373 1005 1388 c 128,-1,2
 1011 1403 1011 1403 1031 1408 c 2,3,-1
 1290 1469 l 1,4,5
 1302 1473 1302 1473 1316 1473 c 0,6,7
 1329 1473 1329 1473 1335 1464 c 128,-1,8
 1341 1455 1341 1455 1341 1430 c 1,9,10
 1335 1406 1335 1406 1331 1356.5 c 128,-1,11
 1327 1307 1327 1307 1325 1248 c 128,-1,12
 1323 1189 1323 1189 1322 1129.5 c 128,-1,13
 1321 1070 1321 1070 1321 1026 c 2,14,-1
 1321 971 l 2,15,16
 1321 909 1321 909 1320 836 c 128,-1,17
 1319 763 1319 763 1317.5 688 c 128,-1,18
 1316 613 1316 613 1314 540 c 128,-1,19
 1312 467 1312 467 1310 403 c 2,20,-1
 1304 232 l 2,21,22
 1303 227 1303 227 1303 223 c 128,-1,23
 1303 219 1303 219 1303 215 c 2,24,-1
 1303 200 l 2,25,26
 1303 183 1303 183 1303.5 171.5 c 128,-1,27
 1304 160 1304 160 1304 151 c 0,28,29
 1304 141 1304 141 1302.5 133 c 128,-1,30
 1301 125 1301 125 1295 117.5 c 128,-1,31
 1289 110 1289 110 1278.5 102 c 128,-1,32
 1268 94 1268 94 1250 82 c 0,33,34
 1240 75 1240 75 1217 61.5 c 128,-1,35
 1194 48 1194 48 1166 31 c 128,-1,36
 1138 14 1138 14 1108 -4 c 128,-1,37
 1078 -22 1078 -22 1053 -36.5 c 128,-1,38
 1028 -51 1028 -51 1012.5 -60 c 128,-1,39
 997 -69 997 -69 997 -69 c 1,40,-1
 533 645 l 1,41,-1
 491 60 l 2,42,43
 490 52 490 52 487.5 43 c 128,-1,44
 485 34 485 34 474 29 c 0,45,46
 465 25 465 25 443 16.5 c 128,-1,47
 421 8 421 8 391.5 -3 c 128,-1,48
 362 -14 362 -14 329.5 -25.5 c 128,-1,49
 297 -37 297 -37 268 -46.5 c 128,-1,50
 239 -56 239 -56 216.5 -62 c 128,-1,51
 194 -68 194 -68 186 -68 c 0,52,53
 171 -68 171 -68 161 -60 c 128,-1,54
 151 -52 151 -52 151 -31 c 1,55,56
 161 94 161 94 174 241.5 c 128,-1,57
 187 389 187 389 199 544 c 128,-1,58
 211 699 211 699 221.5 853.5 c 128,-1,59
 232 1008 232 1008 239 1147 c 0,60,61
 239 1151 239 1151 226.5 1173.5 c 128,-1,62
 214 1196 214 1196 198.5 1222.5 c 128,-1,63
 183 1249 183 1249 170.5 1272.5 c 128,-1,64
 158 1296 158 1296 158 1302 c 0,65,66
 158 1309 158 1309 165.5 1315 c 128,-1,67
 173 1321 173 1321 190 1331 c 2,68,-1
 457 1482 l 1,69,70
 460 1482 460 1482 465.5 1483 c 128,-1,71
 471 1484 471 1484 475 1484 c 0,72,73
 486 1484 486 1484 492.5 1481.5 c 128,-1,74
 499 1479 499 1479 506 1466 c 2,75,-1
 991 591 l 1,76,-1
 991 1340 l 1,0,1
EndSplineSet
EndChar

StartChar: O
Encoding: 79 79 50
Width: 1616
GlyphClass: 2
Flags: W
LayerCount: 2
Fore
SplineSet
561 682 m 1,0,1
 561 610 561 610 576.5 537.5 c 128,-1,2
 592 465 592 465 628 407 c 128,-1,3
 664 349 664 349 723 313 c 128,-1,4
 782 277 782 277 869 277 c 1,5,6
 936 281 936 281 986.5 304.5 c 128,-1,7
 1037 328 1037 328 1073.5 365.5 c 128,-1,8
 1110 403 1110 403 1134 451.5 c 128,-1,9
 1158 500 1158 500 1172 553.5 c 128,-1,10
 1186 607 1186 607 1191.5 663 c 128,-1,11
 1197 719 1197 719 1197 771 c 0,12,13
 1197 842 1197 842 1178 908.5 c 128,-1,14
 1159 975 1159 975 1121 1026 c 128,-1,15
 1083 1077 1083 1077 1026.5 1108 c 128,-1,16
 970 1139 970 1139 895 1139 c 0,17,18
 836 1139 836 1139 788.5 1117 c 128,-1,19
 741 1095 741 1095 704 1058.5 c 128,-1,20
 667 1022 667 1022 640.5 974.5 c 128,-1,21
 614 927 614 927 596.5 876.5 c 128,-1,22
 579 826 579 826 570.5 775.5 c 128,-1,23
 562 725 562 725 561 682 c 1,0,1
756 -52 m 0,24,25
 606 -52 606 -52 488 4 c 128,-1,26
 370 60 370 60 288.5 155.5 c 128,-1,27
 207 251 207 251 163.5 376.5 c 128,-1,28
 120 502 120 502 120 642 c 0,29,30
 120 799 120 799 164.5 931.5 c 128,-1,31
 209 1064 209 1064 289 1166.5 c 128,-1,32
 369 1269 369 1269 479.5 1339.5 c 128,-1,33
 590 1410 590 1410 722 1444 c 1,34,35
 734 1444 734 1444 740.5 1463 c 128,-1,36
 747 1482 747 1482 752 1505 c 128,-1,37
 757 1528 757 1528 764 1547 c 128,-1,38
 771 1566 771 1566 784 1566 c 1,39,40
 978 1546 978 1546 1133 1497.5 c 128,-1,41
 1288 1449 1288 1449 1396 1359 c 128,-1,42
 1504 1269 1504 1269 1561.5 1131.5 c 128,-1,43
 1619 994 1619 994 1619 796 c 0,44,45
 1619 669 1619 669 1588 557 c 128,-1,46
 1557 445 1557 445 1501 350.5 c 128,-1,47
 1445 256 1445 256 1366.5 181.5 c 128,-1,48
 1288 107 1288 107 1192 55 c 128,-1,49
 1096 3 1096 3 985.5 -24.5 c 128,-1,50
 875 -52 875 -52 756 -52 c 0,24,25
EndSplineSet
EndChar

StartChar: P
Encoding: 80 80 51
Width: 1342
GlyphClass: 2
Flags: W
LayerCount: 2
Fore
SplineSet
1401 1039 m 1,0,1
 1400 953 1400 953 1384.5 885 c 128,-1,2
 1369 817 1369 817 1340.5 762.5 c 128,-1,3
 1312 708 1312 708 1271.5 664.5 c 128,-1,4
 1231 621 1231 621 1179 583 c 0,5,6
 1079 511 1079 511 960 474.5 c 128,-1,7
 841 438 841 438 721 438 c 0,8,9
 701 438 701 438 681.5 439 c 128,-1,10
 662 440 662 440 642 442 c 1,11,-1
 609 77 l 1,12,-1
 592 46 l 2,13,14
 590 42 590 42 558 30 c 128,-1,15
 526 18 526 18 478 2 c 2,16,-1
 415 -19 l 2,17,18
 385 -30 385 -30 362 -39 c 128,-1,19
 339 -48 339 -48 319 -55 c 128,-1,20
 299 -62 299 -62 280 -65.5 c 128,-1,21
 261 -69 261 -69 240 -69 c 0,22,23
 226 -69 226 -69 218 -62 c 128,-1,24
 210 -55 210 -55 210 -35 c 1,25,-1
 221 136 l 2,26,27
 224 187 224 187 228.5 238.5 c 128,-1,28
 233 290 233 290 237 356 c 1,29,-1
 256 595 l 2,30,31
 262 668 262 668 267 741 c 128,-1,32
 272 814 272 814 277 880 c 128,-1,33
 282 946 282 946 286 1003.5 c 128,-1,34
 290 1061 290 1061 293 1104 c 1,35,36
 239 1092 239 1092 206.5 1086.5 c 128,-1,37
 174 1081 174 1081 157 1081 c 0,38,39
 136 1081 136 1081 136 1099 c 1,40,41
 150 1148 150 1148 162 1195 c 0,42,43
 173 1235 173 1235 184.5 1277.5 c 128,-1,44
 196 1320 196 1320 204 1349 c 0,45,46
 209 1367 209 1367 215.5 1376.5 c 128,-1,47
 222 1386 222 1386 232.5 1391.5 c 128,-1,48
 243 1397 243 1397 259.5 1401.5 c 128,-1,49
 276 1406 276 1406 300 1414 c 0,50,51
 319 1420 319 1420 353.5 1427.5 c 128,-1,52
 388 1435 388 1435 432.5 1442.5 c 128,-1,53
 477 1450 477 1450 529 1457 c 128,-1,54
 581 1464 581 1464 634.5 1469.5 c 128,-1,55
 688 1475 688 1475 740 1478.5 c 128,-1,56
 792 1482 792 1482 838 1482 c 0,57,58
 952 1482 952 1482 1054 1461 c 128,-1,59
 1156 1440 1156 1440 1233 1389.5 c 128,-1,60
 1310 1339 1310 1339 1355.5 1253.5 c 128,-1,61
 1401 1168 1401 1168 1401 1039 c 1,0,1
670 739 m 0,62,63
 670 728 670 728 674 719.5 c 128,-1,64
 678 711 678 711 696 711 c 0,65,66
 724 711 724 711 762.5 723.5 c 128,-1,67
 801 736 801 736 839.5 761 c 128,-1,68
 878 786 878 786 911 823 c 128,-1,69
 944 860 944 860 961 910 c 0,70,71
 968 930 968 930 972.5 961 c 128,-1,72
 977 992 977 992 977 1034 c 0,73,74
 977 1104 977 1104 928.5 1137 c 128,-1,75
 880 1170 880 1170 802 1170 c 0,76,77
 789 1170 789 1170 772.5 1168.5 c 128,-1,78
 756 1167 756 1167 741.5 1163 c 128,-1,79
 727 1159 727 1159 717 1153.5 c 128,-1,80
 707 1148 707 1148 706 1139 c 2,81,-1
 704 1117 l 2,82,83
 703 1104 703 1104 700 1074.5 c 128,-1,84
 697 1045 697 1045 693.5 1007 c 128,-1,85
 690 969 690 969 686.5 927 c 128,-1,86
 683 885 683 885 679.5 847 c 128,-1,87
 676 809 676 809 673.5 780 c 128,-1,88
 671 751 671 751 670 739 c 0,62,63
EndSplineSet
EndChar

StartChar: Q
Encoding: 81 81 52
Width: 1616
GlyphClass: 2
Flags: W
LayerCount: 2
Fore
SplineSet
756 -52 m 2,0,1
 606 -52 606 -52 488 4 c 128,-1,2
 370 60 370 60 288.5 155.5 c 128,-1,3
 207 251 207 251 163.5 376.5 c 128,-1,4
 120 502 120 502 120 642 c 0,5,6
 120 799 120 799 164.5 931.5 c 128,-1,7
 209 1064 209 1064 289 1166.5 c 128,-1,8
 369 1269 369 1269 479.5 1339.5 c 128,-1,9
 590 1410 590 1410 722 1444 c 1,10,11
 734 1444 734 1444 739.5 1459.5 c 128,-1,12
 745 1475 745 1475 749.5 1495.5 c 128,-1,13
 754 1516 754 1516 758.5 1535 c 128,-1,14
 763 1554 763 1554 773 1562 c 1,15,16
 1125 1514 1125 1514 1244 1453 c 0,17,18
 1307 1421 1307 1421 1353.5 1390 c 128,-1,19
 1400 1359 1400 1359 1437 1322 c 128,-1,20
 1474 1285 1474 1285 1504 1237 c 128,-1,21
 1534 1189 1534 1189 1564 1122 c 0,22,23
 1595 1052 1595 1052 1610 948 c 1,24,-1
 1611 936 l 1,25,26
 1616 898 1616 898 1619 855 c 128,-1,27
 1622 812 1622 812 1622 764 c 0,28,29
 1622 591 1622 591 1565.5 451.5 c 128,-1,30
 1509 312 1509 312 1409 206 c 1,31,32
 1436 177 1436 177 1459 151 c 128,-1,33
 1482 125 1482 125 1499 104 c 128,-1,34
 1516 83 1516 83 1526 67.5 c 128,-1,35
 1536 52 1536 52 1536 45 c 0,36,37
 1536 34 1536 34 1518.5 18.5 c 128,-1,38
 1501 3 1501 3 1474.5 -15 c 128,-1,39
 1448 -33 1448 -33 1417 -51 c 128,-1,40
 1386 -69 1386 -69 1359 -83 c 128,-1,41
 1332 -97 1332 -97 1313 -106 c 128,-1,42
 1294 -115 1294 -115 1292 -115 c 0,43,44
 1284 -115 1284 -115 1277.5 -110.5 c 128,-1,45
 1271 -106 1271 -106 1266 -101 c 2,46,-1
 1143 22 l 1,47,48
 1058 -13 1058 -13 969 -32.5 c 128,-1,49
 880 -52 880 -52 780 -52 c 2,50,-1
 756 -52 l 2,0,1
566 682 m 0,51,52
 566 613 566 613 579 544.5 c 128,-1,53
 592 476 592 476 623 416 c 0,54,55
 624 415 624 415 624 414 c 0,56,57
 660 353 660 353 719.5 315 c 128,-1,58
 779 277 779 277 869 277 c 1,59,-1
 889 279 l 1,60,-1
 877 293 l 2,61,62
 854 319 854 319 839 339 c 128,-1,63
 824 359 824 359 824 369 c 0,64,65
 824 388 824 388 852 403 c 2,66,-1
 1085 520 l 2,67,68
 1091 523 1091 523 1095 523 c 0,69,70
 1103 523 1103 523 1114 509 c 128,-1,71
 1125 495 1125 495 1145 474 c 1,72,73
 1173 540 1173 540 1185 619.5 c 128,-1,74
 1197 699 1197 699 1197 771 c 0,75,76
 1197 879 1197 879 1158.5 963.5 c 128,-1,77
 1120 1048 1120 1048 1025 1105 c 0,78,79
 993 1124 993 1124 956.5 1132 c 128,-1,80
 920 1140 920 1140 876 1140 c 256,81,82
 832 1140 832 1140 796 1124.5 c 128,-1,83
 760 1109 760 1109 730.5 1085 c 128,-1,84
 701 1061 701 1061 677 1032.5 c 128,-1,85
 653 1004 653 1004 635 979 c 0,86,87
 616 953 616 953 603 915 c 128,-1,88
 590 877 590 877 581.5 836 c 128,-1,89
 573 795 573 795 569.5 754 c 128,-1,90
 566 713 566 713 566 682 c 0,51,52
EndSplineSet
EndChar

StartChar: R
Encoding: 82 82 53
Width: 1473
GlyphClass: 2
Flags: W
LayerCount: 2
Fore
SplineSet
658 80 m 2,0,1
 657 71 657 71 654.5 62.5 c 128,-1,2
 652 54 652 54 641 49 c 0,3,4
 637 47 637 47 601.5 34.5 c 128,-1,5
 566 22 566 22 519.5 5.5 c 128,-1,6
 473 -11 473 -11 427.5 -27.5 c 128,-1,7
 382 -44 382 -44 358 -53 c 0,8,9
 346 -58 346 -58 328.5 -63.5 c 128,-1,10
 311 -69 311 -69 294 -69 c 0,11,12
 280 -69 280 -69 269.5 -62 c 128,-1,13
 259 -55 259 -55 259 -36 c 0,14,15
 259 8 259 8 261.5 44.5 c 128,-1,16
 264 81 264 81 268 121 c 128,-1,17
 272 161 272 161 276.5 209.5 c 128,-1,18
 281 258 281 258 285 325 c 0,19,20
 290 413 290 413 296 494.5 c 128,-1,21
 302 576 302 576 308 664 c 1,22,-1
 322 835 l 2,23,24
 325 877 325 877 328 920.5 c 128,-1,25
 331 964 331 964 334 1010 c 1,26,-1
 345 1132 l 2,27,28
 345 1134 345 1134 339 1134 c 0,29,30
 331 1134 331 1134 312 1130.5 c 128,-1,31
 293 1127 293 1127 267 1122 c 128,-1,32
 241 1117 241 1117 209.5 1111.5 c 128,-1,33
 178 1106 178 1106 145 1101 c 1,34,35
 137 1101 137 1101 129.5 1104.5 c 128,-1,36
 122 1108 122 1108 122 1113 c 0,37,38
 122 1117 122 1117 124 1119 c 2,39,-1
 286 1402 l 1,40,41
 341 1414 341 1414 404.5 1426.5 c 128,-1,42
 468 1439 468 1439 541 1449 c 128,-1,43
 614 1459 614 1459 696 1465.5 c 128,-1,44
 778 1472 778 1472 870 1472 c 1,45,46
 974 1470 974 1470 1072.5 1451.5 c 128,-1,47
 1171 1433 1171 1433 1247.5 1389.5 c 128,-1,48
 1324 1346 1324 1346 1370.5 1271.5 c 128,-1,49
 1417 1197 1417 1197 1417 1083 c 0,50,51
 1417 1020 1417 1020 1395.5 967 c 128,-1,52
 1374 914 1374 914 1340.5 871.5 c 128,-1,53
 1307 829 1307 829 1267 796.5 c 128,-1,54
 1227 764 1227 764 1190.5 741 c 128,-1,55
 1154 718 1154 718 1126 704.5 c 128,-1,56
 1098 691 1098 691 1088 687 c 1,57,58
 1088 685 1088 685 1089.5 682 c 128,-1,59
 1091 679 1091 679 1096 670.5 c 128,-1,60
 1101 662 1101 662 1110.5 646.5 c 128,-1,61
 1120 631 1120 631 1135 604 c 1,62,63
 1151 580 1151 580 1173 540 c 128,-1,64
 1195 500 1195 500 1225.5 445.5 c 128,-1,65
 1256 391 1256 391 1296 324 c 128,-1,66
 1336 257 1336 257 1388 180 c 1,67,68
 1405 165 1405 165 1427 161.5 c 128,-1,69
 1449 158 1449 158 1468 157.5 c 128,-1,70
 1487 157 1487 157 1500 155.5 c 128,-1,71
 1513 154 1513 154 1513 143 c 0,72,73
 1513 135 1513 135 1496.5 124.5 c 128,-1,74
 1480 114 1480 114 1458 103 c 128,-1,75
 1436 92 1436 92 1413.5 82 c 128,-1,76
 1391 72 1391 72 1379 66 c 0,77,78
 1355 54 1355 54 1329 43 c 128,-1,79
 1303 32 1303 32 1273 18.5 c 128,-1,80
 1243 5 1243 5 1206.5 -13 c 128,-1,81
 1170 -31 1170 -31 1124 -56 c 0,82,83
 1112 -63 1112 -63 1101.5 -65.5 c 128,-1,84
 1091 -68 1091 -68 1082 -68 c 0,85,86
 1064 -68 1064 -68 1051 -59.5 c 128,-1,87
 1038 -51 1038 -51 1029 -39 c 128,-1,88
 1020 -27 1020 -27 1014.5 -14.5 c 128,-1,89
 1009 -2 1009 -2 1005 6 c 2,90,-1
 707 634 l 1,91,-1
 658 80 l 2,0,1
719 757 m 1,92,93
 770 757 770 757 825 783 c 128,-1,94
 880 809 880 809 925 850 c 128,-1,95
 970 891 970 891 999 943 c 128,-1,96
 1028 995 1028 995 1028 1048 c 0,97,98
 1028 1193 1028 1193 854 1193 c 0,99,100
 821 1193 821 1193 799 1188.5 c 128,-1,101
 777 1184 777 1184 759 1182 c 1,102,-1
 719 757 l 1,92,93
EndSplineSet
EndChar

StartChar: S
Encoding: 83 83 54
Width: 1099
GlyphClass: 2
Flags: W
LayerCount: 2
Fore
SplineSet
158 372 m 2,0,1
 158 373 158 373 157.5 374 c 128,-1,2
 157 375 157 375 157 376 c 0,3,4
 157 393 157 393 175 393 c 0,5,6
 184 393 184 393 195 384 c 1,7,8
 249 333 249 333 315 303 c 128,-1,9
 381 273 381 273 459 273 c 0,10,11
 480 273 480 273 507 277.5 c 128,-1,12
 534 282 534 282 558 292.5 c 128,-1,13
 582 303 582 303 598.5 320 c 128,-1,14
 615 337 615 337 615 363 c 0,15,16
 615 392 615 392 601 415 c 128,-1,17
 587 438 587 438 564 454 c 0,18,19
 555 460 555 460 537 474 c 128,-1,20
 519 488 519 488 496 506 c 128,-1,21
 473 524 473 524 448 544.5 c 128,-1,22
 423 565 423 565 400.5 583.5 c 128,-1,23
 378 602 378 602 360 617 c 128,-1,24
 342 632 342 632 333 640 c 1,25,26
 274 684 274 684 239.5 729 c 128,-1,27
 205 774 205 774 187 823 c 128,-1,28
 169 872 169 872 164 924.5 c 128,-1,29
 159 977 159 977 159 1036 c 0,30,31
 159 1124 159 1124 201 1203 c 128,-1,32
 243 1282 243 1282 319.5 1340.5 c 128,-1,33
 396 1399 396 1399 503 1433.5 c 128,-1,34
 610 1468 610 1468 741 1468 c 0,35,36
 757 1468 757 1468 789 1464.5 c 128,-1,37
 821 1461 821 1461 859.5 1453 c 128,-1,38
 898 1445 898 1445 938 1431 c 128,-1,39
 978 1417 978 1417 1011 1395 c 0,40,41
 1022 1387 1022 1387 1028.5 1379 c 128,-1,42
 1035 1371 1035 1371 1037 1354 c 0,43,44
 1042 1273 1042 1273 1045 1194.5 c 128,-1,45
 1048 1116 1048 1116 1053 1028 c 0,46,47
 1053 1011 1053 1011 1046 1005.5 c 128,-1,48
 1039 1000 1039 1000 1028 1000 c 256,49,50
 1017 1000 1017 1000 1011 1006 c 0,51,52
 982 1035 982 1035 951 1063 c 128,-1,53
 920 1091 920 1091 886 1112.5 c 128,-1,54
 852 1134 852 1134 813.5 1147 c 128,-1,55
 775 1160 775 1160 730 1160 c 0,56,57
 703 1160 703 1160 676 1155.5 c 128,-1,58
 649 1151 649 1151 627 1139 c 128,-1,59
 605 1127 605 1127 591.5 1106 c 128,-1,60
 578 1085 578 1085 578 1053 c 0,61,62
 578 1019 578 1019 586.5 994 c 128,-1,63
 595 969 595 969 629 947 c 2,64,-1
 869 784 l 1,65,66
 935 737 935 737 976 690.5 c 128,-1,67
 1017 644 1017 644 1040 598 c 128,-1,68
 1063 552 1063 552 1071.5 507.5 c 128,-1,69
 1080 463 1080 463 1080 420 c 0,70,71
 1080 350 1080 350 1057 288 c 128,-1,72
 1034 226 1034 226 994 173.5 c 128,-1,73
 954 121 954 121 900.5 79.5 c 128,-1,74
 847 38 847 38 786 8.5 c 128,-1,75
 725 -21 725 -21 659.5 -36.5 c 128,-1,76
 594 -52 594 -52 531 -52 c 0,77,78
 482 -52 482 -52 434.5 -50.5 c 128,-1,79
 387 -49 387 -49 342 -42.5 c 128,-1,80
 297 -36 297 -36 255 -22.5 c 128,-1,81
 213 -9 213 -9 175 15 c 1,82,-1
 158 372 l 2,0,1
EndSplineSet
EndChar

StartChar: T
Encoding: 84 84 55
Width: 1159
GlyphClass: 2
Flags: W
LayerCount: 2
Fore
SplineSet
358 -32 m 1,0,1
 363 41 363 41 368 109 c 128,-1,2
 373 177 373 177 377 241 c 2,3,-1
 413 713 l 1,4,5
 419 767 419 767 423 811.5 c 128,-1,6
 427 856 427 856 429.5 898.5 c 128,-1,7
 432 941 432 941 434.5 984.5 c 128,-1,8
 437 1028 437 1028 440 1081 c 1,9,10
 407 1082 407 1082 370.5 1082 c 128,-1,11
 334 1082 334 1082 294 1082 c 2,12,-1
 101 1082 l 2,13,14
 90 1082 90 1082 87.5 1090.5 c 128,-1,15
 85 1099 85 1099 85 1106 c 2,16,-1
 85 1113 l 1,17,-1
 195 1402 l 1,18,-1
 194 1406 l 1,19,20
 194 1411 194 1411 200.5 1414.5 c 128,-1,21
 207 1418 207 1418 230 1420 c 0,22,23
 368 1428 368 1428 497.5 1435.5 c 128,-1,24
 627 1443 627 1443 753.5 1449 c 128,-1,25
 880 1455 880 1455 1006.5 1461 c 128,-1,26
 1133 1467 1133 1467 1267 1472 c 0,27,28
 1279 1472 1279 1472 1292.5 1469 c 128,-1,29
 1306 1466 1306 1466 1306 1447 c 0,30,31
 1306 1445 1306 1445 1305 1443 c 128,-1,32
 1304 1441 1304 1441 1304 1439 c 0,33,34
 1288 1398 1288 1398 1274.5 1361 c 128,-1,35
 1261 1324 1261 1324 1248 1288 c 128,-1,36
 1235 1252 1235 1252 1221.5 1215 c 128,-1,37
 1208 1178 1208 1178 1192 1137 c 0,38,39
 1191 1136 1191 1136 1188 1127.5 c 128,-1,40
 1185 1119 1185 1119 1179 1108.5 c 128,-1,41
 1173 1098 1173 1098 1163 1089 c 128,-1,42
 1153 1080 1153 1080 1138 1079 c 1,43,44
 1133 1080 1133 1080 1128 1080 c 128,-1,45
 1123 1080 1123 1080 1117 1080 c 2,46,-1
 850 1080 l 1,47,48
 845 1029 845 1029 840.5 972 c 128,-1,49
 836 915 836 915 830 861 c 2,50,-1
 757 80 l 2,51,52
 756 71 756 71 753.5 62 c 128,-1,53
 751 53 751 53 740 49 c 2,54,-1
 457 -53 l 2,55,56
 446 -57 446 -57 428 -63 c 128,-1,57
 410 -69 410 -69 393 -69 c 0,58,59
 379 -69 379 -69 368.5 -62 c 128,-1,60
 358 -55 358 -55 358 -36 c 2,61,-1
 358 -32 l 1,0,1
EndSplineSet
EndChar

StartChar: U
Encoding: 85 85 56
Width: 1378
GlyphClass: 2
Flags: W
LayerCount: 2
Fore
SplineSet
1381 1430 m 1,0,1
 1379 1403 1379 1403 1374 1350.5 c 128,-1,2
 1369 1298 1369 1298 1362.5 1231.5 c 128,-1,3
 1356 1165 1356 1165 1349 1092 c 128,-1,4
 1342 1019 1342 1019 1335.5 952.5 c 128,-1,5
 1329 886 1329 886 1324 832 c 128,-1,6
 1319 778 1319 778 1317 751 c 0,7,8
 1296 538 1296 538 1245.5 385.5 c 128,-1,9
 1195 233 1195 233 1113 136 c 128,-1,10
 1031 39 1031 39 916.5 -6.5 c 128,-1,11
 802 -52 802 -52 652 -52 c 0,12,13
 549 -52 549 -52 458 -14.5 c 128,-1,14
 367 23 367 23 299 91 c 128,-1,15
 231 159 231 159 191.5 254.5 c 128,-1,16
 152 350 152 350 152 467 c 0,17,18
 152 482 152 482 154.5 521.5 c 128,-1,19
 157 561 157 561 161.5 618 c 128,-1,20
 166 675 166 675 171.5 747.5 c 128,-1,21
 177 820 177 820 183 902 c 2,22,-1
 195 1068 l 2,23,24
 201 1159 201 1159 204 1219.5 c 128,-1,25
 207 1280 207 1280 210.5 1317 c 128,-1,26
 214 1354 214 1354 221 1371 c 128,-1,27
 228 1388 228 1388 243 1393 c 1,28,-1
 584 1469 l 1,29,30
 597 1473 597 1473 611 1473 c 0,31,32
 627 1473 627 1473 632.5 1464 c 128,-1,33
 638 1455 638 1455 638 1430 c 1,34,-1
 562 642 l 1,35,36
 560 607 560 607 555 566 c 128,-1,37
 550 525 550 525 550 482 c 0,38,39
 550 456 550 456 556.5 425 c 128,-1,40
 563 394 563 394 580 366.5 c 128,-1,41
 597 339 597 339 626.5 320.5 c 128,-1,42
 656 302 656 302 703 302 c 0,43,44
 760 302 760 302 795 326.5 c 128,-1,45
 830 351 830 351 851 391.5 c 128,-1,46
 872 432 872 432 881.5 483.5 c 128,-1,47
 891 535 891 535 897 589 c 1,48,49
 902 652 902 652 909 737 c 128,-1,50
 916 822 916 822 923 919 c 2,51,-1
 952 1318 l 2,52,53
 954 1336 954 1336 954.5 1348 c 128,-1,54
 955 1360 955 1360 957 1368 c 128,-1,55
 959 1376 959 1376 965.5 1380 c 128,-1,56
 972 1384 972 1384 986 1386 c 1,57,-1
 1327 1469 l 2,58,59
 1340 1473 1340 1473 1354 1473 c 256,60,61
 1368 1473 1368 1473 1374.5 1464.5 c 128,-1,62
 1381 1456 1381 1456 1381 1430 c 1,0,1
EndSplineSet
EndChar

StartChar: V
Encoding: 86 86 57
Width: 1305
GlyphClass: 2
Flags: W
LayerCount: 2
Fore
SplineSet
879 88 m 2,0,1
 874 75 874 75 869.5 63 c 128,-1,2
 865 51 865 51 858 41 c 128,-1,3
 851 31 851 31 840.5 23 c 128,-1,4
 830 15 830 15 814 10 c 0,5,6
 751 -10 751 -10 689 -24.5 c 128,-1,7
 627 -39 627 -39 564 -60 c 0,8,9
 552 -64 552 -64 543 -66 c 128,-1,10
 534 -68 534 -68 526 -68 c 0,11,12
 508 -68 508 -68 500 -59 c 128,-1,13
 492 -50 492 -50 488 -36 c 2,14,-1
 146 1324 l 1,15,16
 138 1350 138 1350 138 1367 c 0,17,18
 138 1389 138 1389 152 1403.5 c 128,-1,19
 166 1418 166 1418 197.5 1427.5 c 128,-1,20
 229 1437 229 1437 278.5 1445 c 128,-1,21
 328 1453 328 1453 400 1463 c 0,22,23
 435 1468 435 1468 459 1470.5 c 128,-1,24
 483 1473 483 1473 500 1473 c 0,25,26
 529 1473 529 1473 538.5 1463.5 c 128,-1,27
 548 1454 548 1454 556 1434 c 1,28,-1
 747 608 l 1,29,-1
 1016 1367 l 2,30,31
 1022 1383 1022 1383 1026.5 1393 c 128,-1,32
 1031 1403 1031 1403 1043.5 1410.5 c 128,-1,33
 1056 1418 1056 1418 1081.5 1425.5 c 128,-1,34
 1107 1433 1107 1433 1155 1443 c 0,35,36
 1230 1459 1230 1459 1279 1466 c 128,-1,37
 1328 1473 1328 1473 1358 1473 c 0,38,39
 1396 1473 1396 1473 1407.5 1464 c 128,-1,40
 1419 1455 1419 1455 1419 1438 c 1,41,42
 1420 1431 1420 1431 1416.5 1423.5 c 128,-1,43
 1413 1416 1413 1416 1409 1405 c 2,44,-1
 879 88 l 2,0,1
EndSplineSet
EndChar

StartChar: W
Encoding: 87 87 58
Width: 1832
GlyphClass: 2
Flags: W
LayerCount: 2
Fore
SplineSet
1551 1357 m 2,0,1
 1556 1375 1556 1375 1562 1386.5 c 128,-1,2
 1568 1398 1568 1398 1589 1403 c 2,3,-1
 1884 1471 l 2,4,5
 1886 1471 1886 1471 1889 1472 c 128,-1,6
 1892 1473 1892 1473 1894 1473 c 0,7,8
 1908 1473 1908 1473 1913.5 1461 c 128,-1,9
 1919 1449 1919 1449 1919 1438 c 0,10,11
 1919 1436 1919 1436 1918.5 1430 c 128,-1,12
 1918 1424 1918 1424 1917 1422 c 2,13,-1
 1503 164 l 1,14,15
 1487 123 1487 123 1476.5 97.5 c 128,-1,16
 1466 72 1466 72 1455.5 55.5 c 128,-1,17
 1445 39 1445 39 1431.5 28 c 128,-1,18
 1418 17 1418 17 1395.5 6 c 128,-1,19
 1373 -5 1373 -5 1339 -19.5 c 128,-1,20
 1305 -34 1305 -34 1253 -59 c 0,21,22
 1235 -68 1235 -68 1225 -68 c 0,23,24
 1209 -68 1209 -68 1201 -56 c 128,-1,25
 1193 -44 1193 -44 1188 -29 c 2,26,-1
 1017 580 l 1,27,-1
 803 139 l 2,28,29
 798 127 798 127 780 107 c 128,-1,30
 762 87 762 87 739.5 66 c 128,-1,31
 717 45 717 45 694.5 25.5 c 128,-1,32
 672 6 672 6 658 -6 c 0,33,34
 645 -17 645 -17 630.5 -28 c 128,-1,35
 616 -39 616 -39 601 -48 c 128,-1,36
 586 -57 586 -57 572.5 -62.5 c 128,-1,37
 559 -68 559 -68 547 -68 c 0,38,39
 521 -68 521 -68 513 -39 c 2,40,-1
 125 1329 l 2,41,42
 123 1337 123 1337 120.5 1345 c 128,-1,43
 118 1353 118 1353 118 1360 c 0,44,45
 118 1385 118 1385 130 1402 c 128,-1,46
 142 1419 142 1419 172 1431 c 128,-1,47
 202 1443 202 1443 252 1450.5 c 128,-1,48
 302 1458 302 1458 379 1463 c 1,49,50
 415 1468 415 1468 439.5 1470 c 128,-1,51
 464 1472 464 1472 481 1472 c 0,52,53
 510 1472 510 1472 519 1463 c 128,-1,54
 528 1454 528 1454 535 1433 c 1,55,-1
 741 640 l 1,56,-1
 912 934 l 1,57,-1
 843 1235 l 2,58,59
 837 1259 837 1259 838 1271 c 1,60,61
 838 1294 838 1294 850 1308 c 128,-1,62
 862 1322 862 1322 890 1331 c 128,-1,63
 918 1340 918 1340 963.5 1347 c 128,-1,64
 1009 1354 1009 1354 1075 1363 c 0,65,66
 1104 1367 1104 1367 1125 1369 c 128,-1,67
 1146 1371 1146 1371 1161 1371 c 0,68,69
 1191 1371 1191 1371 1202 1362 c 128,-1,70
 1213 1353 1213 1353 1218 1333 c 2,71,-1
 1354 717 l 1,72,-1
 1551 1357 l 2,0,1
EndSplineSet
EndChar

StartChar: X
Encoding: 88 88 59
Width: 1244
GlyphClass: 2
Flags: W
LayerCount: 2
Fore
SplineSet
446 1442 m 2,0,1
 454 1444 454 1444 454 1444 c 1,2,-1
 463 1444 l 2,3,4
 480 1444 480 1444 496 1432.5 c 128,-1,5
 512 1421 512 1421 528 1393 c 0,6,7
 539 1373 539 1373 559.5 1334 c 128,-1,8
 580 1295 580 1295 604 1250 c 128,-1,9
 628 1205 628 1205 652 1159.5 c 128,-1,10
 676 1114 676 1114 694 1081 c 1,11,-1
 860 1367 l 1,12,-1
 1256 1447 l 2,13,14
 1261 1448 1261 1448 1265.5 1448.5 c 128,-1,15
 1270 1449 1270 1449 1275 1449 c 0,16,17
 1297 1449 1297 1449 1297 1432 c 0,18,19
 1297 1426 1297 1426 1294.5 1416.5 c 128,-1,20
 1292 1407 1292 1407 1286 1396 c 2,21,-1
 1105 1073 l 1,22,-1
 1033 950 l 2,23,24
 1001 896 1001 896 964.5 834 c 128,-1,25
 928 772 928 772 896 717 c 1,26,27
 914 687 914 687 929.5 659 c 128,-1,28
 945 631 945 631 957.5 608 c 128,-1,29
 970 585 970 585 978.5 568 c 128,-1,30
 987 551 987 551 992 542 c 2,31,-1
 1235 81 l 1,32,-1
 1232 44 l 2,33,34
 1232 41 1232 41 1219 32.5 c 128,-1,35
 1206 24 1206 24 1184.5 13 c 128,-1,36
 1163 2 1163 2 1135.5 -10 c 128,-1,37
 1108 -22 1108 -22 1078 -32 c 2,38,-1
 1007 -56 l 1,39,40
 994 -56 994 -56 978.5 -62.5 c 128,-1,41
 963 -69 963 -69 946 -69 c 0,42,43
 932 -69 932 -69 919.5 -62.5 c 128,-1,44
 907 -56 907 -56 894 -36 c 0,45,46
 871 -3 871 -3 843 42 c 128,-1,47
 815 87 815 87 783 145 c 2,48,-1
 673 339 l 1,49,-1
 515 72 l 1,50,-1
 484 42 l 1,51,52
 483 39 483 39 466 32.5 c 128,-1,53
 449 26 449 26 421.5 16.5 c 128,-1,54
 394 7 394 7 360 -4 c 128,-1,55
 326 -15 326 -15 292.5 -25 c 128,-1,56
 259 -35 259 -35 228 -43.5 c 128,-1,57
 197 -52 197 -52 177 -57 c 1,58,59
 165 -57 165 -57 142.5 -63 c 128,-1,60
 120 -69 120 -69 103 -69 c 0,61,62
 94 -69 94 -69 88 -65.5 c 128,-1,63
 82 -62 82 -62 82 -54 c 0,64,65
 82 -45 82 -45 91 -23 c 128,-1,66
 100 -1 100 -1 115 28.5 c 128,-1,67
 130 58 130 58 148.5 93 c 128,-1,68
 167 128 167 128 186 163 c 128,-1,69
 205 198 205 198 223 230 c 128,-1,70
 241 262 241 262 254 286 c 0,71,72
 303 380 303 380 359 481 c 2,73,-1
 472 685 l 1,74,-1
 124 1306 l 2,75,76
 114 1323 114 1323 114 1341 c 0,77,78
 114 1352 114 1352 122 1355 c 2,79,-1
 446 1442 l 2,0,1
EndSplineSet
EndChar

StartChar: Y
Encoding: 89 89 60
Width: 1115
GlyphClass: 2
Flags: W
LayerCount: 2
Fore
SplineSet
119 1332 m 0,0,1
 125 1336 125 1336 139.5 1342.5 c 128,-1,2
 154 1349 154 1349 173.5 1357 c 128,-1,3
 193 1365 193 1365 215.5 1374.5 c 128,-1,4
 238 1384 238 1384 261 1393 c 2,5,-1
 377 1439 l 2,6,7
 390 1445 390 1445 401 1445 c 0,8,9
 409 1445 409 1445 418.5 1440.5 c 128,-1,10
 428 1436 428 1436 440 1424 c 1,11,-1
 671 976 l 1,12,-1
 677 991 l 1,13,-1
 776 1174 l 2,14,15
 795 1208 795 1208 813.5 1241 c 128,-1,16
 832 1274 832 1274 846.5 1300 c 128,-1,17
 861 1326 861 1326 871 1342 c 128,-1,18
 881 1358 881 1358 883 1358 c 2,19,-1
 1226 1444 l 2,20,21
 1238 1447 1238 1447 1246 1447 c 0,22,23
 1269 1447 1269 1447 1269 1426 c 1,24,25
 1268 1421 1268 1421 1267 1412.5 c 128,-1,26
 1266 1404 1266 1404 1261 1394 c 2,27,-1
 967 849 l 2,28,29
 945 808 945 808 922.5 767 c 128,-1,30
 900 726 900 726 879 689.5 c 128,-1,31
 858 653 858 653 841.5 623 c 128,-1,32
 825 593 825 593 815 574 c 1,33,-1
 808 541 l 1,34,-1
 752 166 l 2,35,36
 749 149 749 149 747 138 c 128,-1,37
 745 127 745 127 741.5 120 c 128,-1,38
 738 113 738 113 732.5 108 c 128,-1,39
 727 103 727 103 717 98 c 2,40,-1
 433 -51 l 2,41,42
 417 -59 417 -59 399.5 -64 c 128,-1,43
 382 -69 382 -69 366 -69 c 0,44,45
 349 -69 349 -69 337 -61.5 c 128,-1,46
 325 -54 325 -54 325 -37 c 2,47,-1
 325 -33 l 1,48,49
 329 24 329 24 339.5 99.5 c 128,-1,50
 350 175 350 175 362 247 c 1,51,-1
 418 618 l 1,52,53
 402 652 402 652 376 708 c 128,-1,54
 350 764 350 764 320 829 c 128,-1,55
 290 894 290 894 257.5 963 c 128,-1,56
 225 1032 225 1032 196.5 1093.5 c 128,-1,57
 168 1155 168 1155 145.5 1202 c 128,-1,58
 123 1249 123 1249 112 1271 c 1,59,60
 107 1286 107 1286 107 1302 c 0,61,62
 107 1311 107 1311 109.5 1319.5 c 128,-1,63
 112 1328 112 1328 119 1332 c 0,0,1
EndSplineSet
EndChar

StartChar: Z
Encoding: 90 90 61
Width: 1249
GlyphClass: 2
Flags: W
LayerCount: 2
Fore
SplineSet
205 0 m 0,0,1
 193 0 193 0 181 2.5 c 128,-1,2
 169 5 169 5 159 11.5 c 128,-1,3
 149 18 149 18 142.5 29.5 c 128,-1,4
 136 41 136 41 136 60 c 0,5,6
 136 62 136 62 137 64 c 128,-1,7
 138 66 138 66 138 68 c 2,8,-1
 659 982 l 1,9,10
 659 985 659 985 637.5 987.5 c 128,-1,11
 616 990 616 990 582.5 991.5 c 128,-1,12
 549 993 549 993 509 994.5 c 128,-1,13
 469 996 469 996 432.5 996.5 c 128,-1,14
 396 997 396 997 367.5 997.5 c 128,-1,15
 339 998 339 998 329 998 c 0,16,17
 275 998 275 998 228 996.5 c 128,-1,18
 181 995 181 995 130 995 c 0,19,20
 119 995 119 995 111 1002.5 c 128,-1,21
 103 1010 103 1010 103 1020 c 1,22,23
 104 1021 104 1021 104 1022 c 0,24,25
 104 1025 104 1025 105 1028 c 2,26,-1
 234 1337 l 2,27,28
 243 1359 243 1359 261.5 1372.5 c 128,-1,29
 280 1386 280 1386 303.5 1393.5 c 128,-1,30
 327 1401 327 1401 354 1403.5 c 128,-1,31
 381 1406 381 1406 407 1406 c 0,32,33
 516 1406 516 1406 622 1401.5 c 128,-1,34
 728 1397 728 1397 833.5 1392 c 128,-1,35
 939 1387 939 1387 1044.5 1382.5 c 128,-1,36
 1150 1378 1150 1378 1258 1378 c 1,37,-1
 1258 1337 l 1,38,-1
 771 427 l 2,39,40
 771 425 771 425 770.5 424.5 c 128,-1,41
 770 424 770 424 770 422 c 0,42,43
 770 411 770 411 780 409.5 c 128,-1,44
 790 408 790 408 798 408 c 2,45,-1
 996 408 l 2,46,47
 1056 408 1056 408 1112 415.5 c 128,-1,48
 1168 423 1168 423 1228 423 c 0,49,50
 1240 423 1240 423 1250 415.5 c 128,-1,51
 1260 408 1260 408 1260 397 c 1,52,53
 1260 398 1260 398 1258 388 c 1,54,-1
 1097 68 l 1,55,56
 1089 44 1089 44 1067.5 30 c 128,-1,57
 1046 16 1046 16 1015.5 9 c 128,-1,58
 985 2 985 2 948 0 c 128,-1,59
 911 -2 911 -2 872 -2 c 0,60,61
 715 -2 715 -2 553.5 -1 c 128,-1,62
 392 0 392 0 205 0 c 0,0,1
EndSplineSet
EndChar

StartChar: bracketleft
Encoding: 91 91 62
Width: 804
GlyphClass: 2
Flags: W
LayerCount: 2
Fore
SplineSet
226 1322 m 2,0,1
 227 1346 227 1346 232 1359.5 c 128,-1,2
 237 1373 237 1373 243 1380 c 128,-1,3
 249 1387 249 1387 256 1389 c 128,-1,4
 263 1391 263 1391 269 1392 c 2,5,-1
 880 1450 l 2,6,7
 881 1450 881 1450 885.5 1449.5 c 128,-1,8
 890 1449 890 1449 895 1446.5 c 128,-1,9
 900 1444 900 1444 904.5 1438 c 128,-1,10
 909 1432 909 1432 909 1421 c 1,11,12
 908 1415 908 1415 894.5 1369.5 c 128,-1,13
 881 1324 881 1324 855 1257 c 2,14,-1
 811 1141 l 2,15,16
 806 1127 806 1127 799 1119 c 128,-1,17
 792 1111 792 1111 773 1106.5 c 128,-1,18
 754 1102 754 1102 719 1098.5 c 128,-1,19
 684 1095 684 1095 623 1090 c 1,20,21
 621 1077 621 1077 616 1028 c 128,-1,22
 611 979 611 979 604.5 909 c 128,-1,23
 598 839 598 839 589.5 756 c 128,-1,24
 581 673 581 673 572 592 c 1,25,-1
 538 177 l 1,26,-1
 731 179 l 2,27,28
 743 179 743 179 743 168 c 0,29,30
 743 162 743 162 739.5 154 c 128,-1,31
 736 146 736 146 731 138 c 0,32,33
 730 136 730 136 720.5 110.5 c 128,-1,34
 711 85 711 85 698.5 51.5 c 128,-1,35
 686 18 686 18 672.5 -16.5 c 128,-1,36
 659 -51 659 -51 650 -72 c 1,37,38
 636 -98 636 -98 617 -105.5 c 128,-1,39
 598 -113 598 -113 573 -113 c 0,40,41
 558 -113 558 -113 541 -112 c 128,-1,42
 524 -111 524 -111 504 -109 c 0,43,44
 458 -106 458 -106 409.5 -104 c 128,-1,45
 361 -102 361 -102 314 -99.5 c 128,-1,46
 267 -97 267 -97 222.5 -92.5 c 128,-1,47
 178 -88 178 -88 141 -79 c 1,48,49
 130 -78 130 -78 127.5 -67.5 c 128,-1,50
 125 -57 125 -57 125 -46 c 0,51,52
 125 -41 125 -41 127.5 -3 c 128,-1,53
 130 35 130 35 134.5 96.5 c 128,-1,54
 139 158 139 158 144.5 237 c 128,-1,55
 150 316 150 316 156.5 402.5 c 128,-1,56
 163 489 163 489 170 579 c 128,-1,57
 177 669 177 669 183 751 c 2,58,-1
 226 1322 l 2,0,1
EndSplineSet
EndChar

StartChar: backslash
Encoding: 92 92 63
Width: 1094
GlyphClass: 2
Flags: W
LayerCount: 2
Fore
SplineSet
673 943 m 0,0,1
 734 809 734 809 784 697 c 128,-1,2
 834 585 834 585 879 485 c 128,-1,3
 924 385 924 385 966.5 291.5 c 128,-1,4
 1009 198 1009 198 1055 101 c 1,5,6
 1060 88 1060 88 1060 82 c 0,7,8
 1060 69 1060 69 1047.5 59 c 128,-1,9
 1035 49 1035 49 1018.5 41.5 c 128,-1,10
 1002 34 1002 34 985.5 28.5 c 128,-1,11
 969 23 969 23 962 20 c 2,12,-1
 861 -22 l 2,13,14
 846 -29 846 -29 835 -29 c 0,15,16
 820 -29 820 -29 816.5 -15.5 c 128,-1,17
 813 -2 813 -2 806 15 c 2,18,-1
 165 1429 l 2,19,20
 164 1430 164 1430 164 1432 c 0,21,22
 164 1437 164 1437 169 1440 c 128,-1,23
 174 1443 174 1443 180 1445 c 0,24,25
 233 1455 233 1455 285.5 1480.5 c 128,-1,26
 338 1506 338 1506 392 1528 c 1,27,-1
 398 1528 l 2,28,29
 412 1528 412 1528 419.5 1516.5 c 128,-1,30
 427 1505 427 1505 440 1476 c 0,31,32
 500 1339 500 1339 556 1207 c 128,-1,33
 612 1075 612 1075 673 943 c 0,0,1
EndSplineSet
EndChar

StartChar: bracketright
Encoding: 93 93 64
Width: 807
GlyphClass: 2
Flags: W
LayerCount: 2
Fore
SplineSet
693 2 m 2,0,1
 691 -22 691 -22 686 -35.5 c 128,-1,2
 681 -49 681 -49 675 -56 c 128,-1,3
 669 -63 669 -63 662.5 -65 c 128,-1,4
 656 -67 656 -67 650 -68 c 2,5,-1
 380 -77 l 2,6,7
 328 -79 328 -79 276 -80.5 c 128,-1,8
 224 -82 224 -82 180 -83.5 c 128,-1,9
 136 -85 136 -85 104 -85.5 c 128,-1,10
 72 -86 72 -86 59 -86 c 0,11,12
 58 -86 58 -86 53.5 -85.5 c 128,-1,13
 49 -85 49 -85 43.5 -82.5 c 128,-1,14
 38 -80 38 -80 34 -74 c 128,-1,15
 30 -68 30 -68 30 -57 c 1,16,17
 29 -54 29 -54 39.5 -15.5 c 128,-1,18
 50 23 50 23 73 90 c 2,19,-1
 108 193 l 2,20,21
 114 210 114 210 123.5 219 c 128,-1,22
 133 228 133 228 162 229 c 2,23,-1
 317 234 l 1,24,25
 318 243 318 243 320 268.5 c 128,-1,26
 322 294 322 294 324.5 331 c 128,-1,27
 327 368 327 368 330.5 415 c 128,-1,28
 334 462 334 462 338 514.5 c 128,-1,29
 342 567 342 567 346.5 622.5 c 128,-1,30
 351 678 351 678 356 732 c 1,31,-1
 385 1147 l 1,32,-1
 192 1145 l 2,33,34
 182 1145 182 1145 179 1150 c 128,-1,35
 176 1155 176 1155 176 1163 c 0,36,37
 176 1168 176 1168 176.5 1173.5 c 128,-1,38
 177 1179 177 1179 177 1186 c 0,39,40
 177 1188 177 1188 177.5 1211 c 128,-1,41
 178 1234 178 1234 178.5 1264.5 c 128,-1,42
 179 1295 179 1295 179.5 1326.5 c 128,-1,43
 180 1358 180 1358 180 1376 c 0,44,45
 180 1408 180 1408 195.5 1417 c 128,-1,46
 211 1426 211 1426 237 1426 c 0,47,48
 254 1426 254 1426 273 1424.5 c 128,-1,49
 292 1423 292 1423 312 1423 c 2,50,-1
 783 1423 l 2,51,52
 795 1423 795 1423 797 1411.5 c 128,-1,53
 799 1400 799 1400 799 1390 c 0,54,55
 799 1384 799 1384 798 1364 c 128,-1,56
 797 1344 797 1344 795.5 1316.5 c 128,-1,57
 794 1289 794 1289 791.5 1257 c 128,-1,58
 789 1225 789 1225 786 1197 c 1,59,60
 785 1172 785 1172 781.5 1124.5 c 128,-1,61
 778 1077 778 1077 773 1018 c 128,-1,62
 768 959 768 959 762.5 894 c 128,-1,63
 757 829 757 829 751.5 768 c 128,-1,64
 746 707 746 707 742 655.5 c 128,-1,65
 738 604 738 604 736 573 c 2,66,-1
 693 2 l 2,0,1
EndSplineSet
EndChar

StartChar: asciicircum
Encoding: 94 94 65
Width: 1190
GlyphClass: 2
Flags: W
LayerCount: 2
Fore
SplineSet
747 92 m 0,0,1
 742 108 742 108 732 144 c 128,-1,2
 722 180 722 180 709 225 c 128,-1,3
 696 270 696 270 682.5 319 c 128,-1,4
 669 368 669 368 657 411 c 128,-1,5
 645 454 645 454 636.5 485.5 c 128,-1,6
 628 517 628 517 625 528 c 1,7,-1
 394 88 l 1,8,9
 389 76 389 76 369 76 c 1,10,11
 333 85 333 85 293.5 91 c 128,-1,12
 254 97 254 97 213.5 101.5 c 128,-1,13
 173 106 173 106 132.5 109 c 128,-1,14
 92 112 92 112 55 115 c 1,15,16
 41 118 41 118 41 128 c 0,17,18
 41 140 41 140 57 176 c 1,19,20
 95 246 95 246 135.5 323 c 128,-1,21
 176 400 176 400 217 477.5 c 128,-1,22
 258 555 258 555 297.5 630 c 128,-1,23
 337 705 337 705 372 770 c 128,-1,24
 407 835 407 835 437 887 c 128,-1,25
 467 939 467 939 489 972 c 0,26,27
 490 975 490 975 494 979 c 128,-1,28
 498 983 498 983 503 984 c 2,29,-1
 510 985 l 2,30,31
 511 985 511 985 512 984.5 c 128,-1,32
 513 984 513 984 515 984 c 0,33,34
 596 975 596 975 674.5 970.5 c 128,-1,35
 753 966 753 966 828 964 c 0,36,37
 837 964 837 964 843.5 961.5 c 128,-1,38
 850 959 850 959 855.5 953 c 128,-1,39
 861 947 861 947 865.5 936.5 c 128,-1,40
 870 926 870 926 876 910 c 2,41,-1
 1128 214 l 1,42,43
 1130 203 1130 203 1131.5 195.5 c 128,-1,44
 1133 188 1133 188 1133 182 c 0,45,46
 1133 158 1133 158 1111 151 c 1,47,48
 1026 137 1026 137 940 122.5 c 128,-1,49
 854 108 854 108 769 86 c 0,50,51
 763 84 763 84 757 84 c 0,52,53
 749 84 749 84 747 92 c 0,0,1
EndSplineSet
EndChar

StartChar: underscore
Encoding: 95 95 66
Width: 1041
GlyphClass: 2
Flags: W
LayerCount: 2
Fore
SplineSet
167 -58 m 1,0,1
 89 -58 89 -58 54.5 -53.5 c 128,-1,2
 20 -49 20 -49 20 -34 c 0,3,4
 20 -26 20 -26 26.5 -9.5 c 128,-1,5
 33 7 33 7 44 26.5 c 128,-1,6
 55 46 55 46 69 67.5 c 128,-1,7
 83 89 83 89 99 106.5 c 128,-1,8
 115 124 115 124 131.5 135.5 c 128,-1,9
 148 147 148 147 163 148 c 2,10,-1
 515 158 l 2,11,12
 529 158 529 158 565 158.5 c 128,-1,13
 601 159 601 159 647.5 159.5 c 128,-1,14
 694 160 694 160 744 161 c 128,-1,15
 794 162 794 162 837 162.5 c 128,-1,16
 880 163 880 163 909.5 163.5 c 128,-1,17
 939 164 939 164 943 164 c 0,18,19
 956 163 956 163 967 159 c 0,20,21
 976 155 976 155 983.5 148.5 c 128,-1,22
 991 142 991 142 991 129 c 256,23,24
 991 116 991 116 988 90 c 128,-1,25
 985 64 985 64 981 38 c 2,26,-1
 972 -29 l 2,27,28
 970 -40 970 -40 962.5 -46 c 128,-1,29
 955 -52 955 -52 923 -52 c 2,30,-1
 766 -52 l 2,31,32
 734 -52 734 -52 699.5 -52 c 128,-1,33
 665 -52 665 -52 631.5 -52.5 c 128,-1,34
 598 -53 598 -53 567 -53 c 128,-1,35
 536 -53 536 -53 512 -53 c 2,36,-1
 167 -58 l 1,0,1
EndSplineSet
EndChar

StartChar: grave
Encoding: 96 96 67
Width: 561
GlyphClass: 2
Flags: W
LayerCount: 2
Fore
SplineSet
172 1427 m 0,0,1
 149 1469 149 1469 133 1497 c 128,-1,2
 117 1525 117 1525 103 1550 c 128,-1,3
 89 1575 89 1575 73 1603.5 c 128,-1,4
 57 1632 57 1632 35 1674 c 0,5,6
 29 1685 29 1685 27.5 1695 c 128,-1,7
 26 1705 26 1705 25 1713 c 1,8,9
 25 1724 25 1724 30 1730.5 c 128,-1,10
 35 1737 35 1737 45 1742 c 0,11,12
 82 1763 82 1763 122.5 1784.5 c 128,-1,13
 163 1806 163 1806 204 1828.5 c 128,-1,14
 245 1851 245 1851 285.5 1875 c 128,-1,15
 326 1899 326 1899 363 1925 c 1,16,17
 373 1930 373 1930 377 1930 c 0,18,19
 383 1930 383 1930 385 1922 c 2,20,-1
 497 1337 l 2,21,22
 499 1324 499 1324 501 1315.5 c 128,-1,23
 503 1307 503 1307 503 1299 c 0,24,25
 503 1290 503 1290 500 1282 c 128,-1,26
 497 1274 497 1274 487 1269 c 0,27,28
 466 1260 466 1260 448 1252 c 128,-1,29
 430 1244 430 1244 412.5 1235.5 c 128,-1,30
 395 1227 395 1227 375.5 1217 c 128,-1,31
 356 1207 356 1207 332 1192 c 1,32,33
 328 1188 328 1188 321 1188 c 0,34,35
 312 1188 312 1188 301 1201.5 c 128,-1,36
 290 1215 290 1215 273.5 1243.5 c 128,-1,37
 257 1272 257 1272 232.5 1317.5 c 128,-1,38
 208 1363 208 1363 172 1427 c 0,0,1
EndSplineSet
EndChar

StartChar: a
Encoding: 97 97 68
Width: 1248
GlyphClass: 2
Flags: W
LayerCount: 2
Fore
SplineSet
1141 201 m 2,0,1
 1140 197 1140 197 1140 193.5 c 128,-1,2
 1140 190 1140 190 1140 187 c 0,3,4
 1140 162 1140 162 1148 145.5 c 128,-1,5
 1156 129 1156 129 1165.5 118.5 c 128,-1,6
 1175 108 1175 108 1183 101.5 c 128,-1,7
 1191 95 1191 95 1191 90 c 0,8,9
 1191 76 1191 76 1161 64 c 2,10,-1
 892 -51 l 2,11,12
 891 -52 891 -52 885 -52 c 0,13,14
 877 -52 877 -52 869 -38 c 128,-1,15
 861 -24 861 -24 853.5 -2.5 c 128,-1,16
 846 19 846 19 839.5 43.5 c 128,-1,17
 833 68 833 68 828 89 c 1,18,19
 765 16 765 16 692 -18 c 128,-1,20
 619 -52 619 -52 547 -52 c 0,21,22
 463 -52 463 -52 383 -15 c 128,-1,23
 303 22 303 22 241 90.5 c 128,-1,24
 179 159 179 159 141.5 256 c 128,-1,25
 104 353 104 353 104 474 c 0,26,27
 104 617 104 617 145.5 735 c 128,-1,28
 187 853 187 853 258 938 c 128,-1,29
 329 1023 329 1023 423.5 1069.5 c 128,-1,30
 518 1116 518 1116 624 1116 c 0,31,32
 699 1116 699 1116 766 1085.5 c 128,-1,33
 833 1055 833 1055 893 1007 c 1,34,35
 899 1037 899 1037 900 1055 c 128,-1,36
 901 1073 901 1073 904.5 1083 c 128,-1,37
 908 1093 908 1093 918 1096.5 c 128,-1,38
 928 1100 928 1100 951 1102 c 1,39,40
 1023 1112 1023 1112 1094.5 1120.5 c 128,-1,41
 1166 1129 1166 1129 1244 1133 c 1,42,-1
 1141 201 l 2,0,1
842 578 m 1,43,44
 852 635 852 635 855.5 685.5 c 128,-1,45
 859 736 859 736 861 778 c 1,46,47
 845 790 845 790 826.5 803 c 128,-1,48
 808 816 808 816 786.5 827.5 c 128,-1,49
 765 839 765 839 741.5 846 c 128,-1,50
 718 853 718 853 692 853 c 0,51,52
 638 853 638 853 601.5 818 c 128,-1,53
 565 783 565 783 542.5 732 c 128,-1,54
 520 681 520 681 510.5 624 c 128,-1,55
 501 567 501 567 501 523 c 0,56,57
 501 365 501 365 542.5 291.5 c 128,-1,58
 584 218 584 218 658 218 c 0,59,60
 688 218 688 218 725 235 c 128,-1,61
 762 252 762 252 800 282 c 1,62,-1
 842 578 l 1,43,44
EndSplineSet
EndChar

StartChar: b
Encoding: 98 98 69
Width: 1319
GlyphClass: 2
Flags: W
LayerCount: 2
Fore
SplineSet
542 326 m 1,0,1
 552 306 552 306 570.5 285.5 c 128,-1,2
 589 265 589 265 613.5 248 c 128,-1,3
 638 231 638 231 667 220.5 c 128,-1,4
 696 210 696 210 727 210 c 0,5,6
 770 210 770 210 808 243.5 c 128,-1,7
 846 277 846 277 874.5 333.5 c 128,-1,8
 903 390 903 390 919 462.5 c 128,-1,9
 935 535 935 535 935 613 c 0,10,11
 935 661 935 661 926.5 704 c 128,-1,12
 918 747 918 747 900 779 c 128,-1,13
 882 811 882 811 853.5 830 c 128,-1,14
 825 849 825 849 785 849 c 0,15,16
 720 849 720 849 666 811 c 128,-1,17
 612 773 612 773 575 714 c 1,18,-1
 542 326 l 1,0,1
170 -49 m 0,19,20
 156 -52 156 -52 148 -52 c 0,21,22
 116 -52 116 -52 116 -14 c 0,23,24
 116 -9 116 -9 116.5 -4 c 128,-1,25
 117 1 117 1 118 7 c 2,26,-1
 234 1422 l 2,27,28
 234 1425 234 1425 234.5 1428 c 128,-1,29
 235 1431 235 1431 235 1433 c 0,30,31
 235 1437 235 1437 234.5 1440 c 128,-1,32
 234 1443 234 1443 234 1445 c 0,33,34
 234 1454 234 1454 240.5 1459.5 c 128,-1,35
 247 1465 247 1465 274 1472 c 2,36,-1
 555 1539 l 2,37,38
 566 1541 566 1541 584 1548 c 128,-1,39
 602 1555 602 1555 619 1555 c 0,40,41
 632 1555 632 1555 643.5 1549 c 128,-1,42
 655 1543 655 1543 655 1526 c 0,43,44
 655 1524 655 1524 654.5 1522 c 128,-1,45
 654 1520 654 1520 654 1518 c 0,46,47
 653 1513 653 1513 649 1474 c 128,-1,48
 645 1435 645 1435 640 1379.5 c 128,-1,49
 635 1324 635 1324 629 1260.5 c 128,-1,50
 623 1197 623 1197 618 1141.5 c 128,-1,51
 613 1086 613 1086 609 1047 c 128,-1,52
 605 1008 605 1008 604 1003 c 1,53,54
 677 1051 677 1051 755 1083.5 c 128,-1,55
 833 1116 833 1116 911 1116 c 0,56,57
 1014 1116 1014 1116 1089 1073.5 c 128,-1,58
 1164 1031 1164 1031 1213 960.5 c 128,-1,59
 1262 890 1262 890 1285.5 798 c 128,-1,60
 1309 706 1309 706 1309 608 c 0,61,62
 1309 529 1309 529 1294.5 449.5 c 128,-1,63
 1280 370 1280 370 1252.5 297 c 128,-1,64
 1225 224 1225 224 1183.5 160 c 128,-1,65
 1142 96 1142 96 1088.5 49 c 128,-1,66
 1035 2 1035 2 969 -25 c 128,-1,67
 903 -52 903 -52 826 -52 c 0,68,69
 733 -52 733 -52 656 -11 c 128,-1,70
 579 30 579 30 513 95 c 1,71,72
 511 71 511 71 510 57 c 128,-1,73
 509 43 509 43 503.5 35.5 c 128,-1,74
 498 28 498 28 487 23.5 c 128,-1,75
 476 19 476 19 454 14 c 0,76,77
 443 11 443 11 415.5 4.5 c 128,-1,78
 388 -2 388 -2 349.5 -10.5 c 128,-1,79
 311 -19 311 -19 264.5 -29 c 128,-1,80
 218 -39 218 -39 170 -49 c 0,19,20
EndSplineSet
EndChar

StartChar: c
Encoding: 99 99 70
Width: 1053
GlyphClass: 2
Flags: W
LayerCount: 2
Fore
SplineSet
100 488 m 0,0,1
 100 619 100 619 148.5 733.5 c 128,-1,2
 197 848 197 848 282.5 933 c 128,-1,3
 368 1018 368 1018 484.5 1067 c 128,-1,4
 601 1116 601 1116 738 1116 c 0,5,6
 831 1116 831 1116 897 1101 c 128,-1,7
 963 1086 963 1086 1005 1067.5 c 128,-1,8
 1047 1049 1047 1049 1066.5 1033.5 c 128,-1,9
 1086 1018 1086 1018 1086 1017 c 0,10,11
 1086 1011 1086 1011 1081.5 983.5 c 128,-1,12
 1077 956 1077 956 1071.5 919.5 c 128,-1,13
 1066 883 1066 883 1061.5 844.5 c 128,-1,14
 1057 806 1057 806 1057 778 c 0,15,16
 1057 773 1057 773 1054 767 c 128,-1,17
 1051 761 1051 761 1038 761 c 0,18,19
 1026 761 1026 761 1003 769.5 c 128,-1,20
 980 778 980 778 946.5 788 c 128,-1,21
 913 798 913 798 869.5 806.5 c 128,-1,22
 826 815 826 815 773 815 c 0,23,24
 707 815 707 815 654 791.5 c 128,-1,25
 601 768 601 768 563 726.5 c 128,-1,26
 525 685 525 685 504.5 628 c 128,-1,27
 484 571 484 571 484 505 c 0,28,29
 484 436 484 436 505.5 387.5 c 128,-1,30
 527 339 527 339 563 308.5 c 128,-1,31
 599 278 599 278 646 264 c 128,-1,32
 693 250 693 250 745 250 c 0,33,34
 805 250 805 250 866 266.5 c 128,-1,35
 927 283 927 283 981 313 c 0,36,37
 983 314 983 314 989 314 c 0,38,39
 994 314 994 314 996.5 309 c 128,-1,40
 999 304 999 304 999 290 c 0,41,42
 999 258 999 258 999 212.5 c 128,-1,43
 999 167 999 167 998.5 125.5 c 128,-1,44
 998 84 998 84 997 55 c 128,-1,45
 996 26 996 26 995 26 c 0,46,47
 959 2 959 2 917 -13 c 128,-1,48
 875 -28 875 -28 830.5 -37 c 128,-1,49
 786 -46 786 -46 741 -49 c 128,-1,50
 696 -52 696 -52 654 -52 c 0,51,52
 537 -52 537 -52 436 -13 c 128,-1,53
 335 26 335 26 260.5 97 c 128,-1,54
 186 168 186 168 143 267.5 c 128,-1,55
 100 367 100 367 100 488 c 0,0,1
EndSplineSet
EndChar

StartChar: d
Encoding: 100 100 71
Width: 1329
GlyphClass: 2
Flags: W
LayerCount: 2
Fore
SplineSet
877 569 m 2,0,1
 880 601 880 601 883.5 636 c 128,-1,2
 887 671 887 671 892 709 c 1,3,4
 869 769 869 769 827 806.5 c 128,-1,5
 785 844 785 844 722 844 c 0,6,7
 660 844 660 844 617 808.5 c 128,-1,8
 574 773 574 773 548 721 c 128,-1,9
 522 669 522 669 510.5 611.5 c 128,-1,10
 499 554 499 554 499 510 c 0,11,12
 499 456 499 456 505.5 403 c 128,-1,13
 512 350 512 350 526.5 307 c 128,-1,14
 541 264 541 264 565 237.5 c 128,-1,15
 589 211 589 211 625 211 c 1,16,17
 713 214 713 214 768 251 c 128,-1,18
 823 288 823 288 856 341 c 1,19,-1
 877 569 l 2,0,1
1226 101 m 2,20,21
 1226 99 1226 99 1225.5 96.5 c 128,-1,22
 1225 94 1225 94 1225 92 c 0,23,24
 1225 87 1225 87 1225.5 84 c 128,-1,25
 1226 81 1226 81 1226 78 c 0,26,27
 1226 69 1226 69 1219.5 63.5 c 128,-1,28
 1213 58 1213 58 1186 51 c 1,29,-1
 918 -36 l 2,30,31
 907 -40 907 -40 889 -46 c 128,-1,32
 871 -52 871 -52 854 -52 c 0,33,34
 840 -52 840 -52 829.5 -45 c 128,-1,35
 819 -38 819 -38 819 -19 c 0,36,37
 819 -1 819 -1 819.5 10 c 128,-1,38
 820 21 820 21 820.5 30.5 c 128,-1,39
 821 40 821 40 822.5 51 c 128,-1,40
 824 62 824 62 826 80 c 1,41,42
 751 20 751 20 671.5 -16 c 128,-1,43
 592 -52 592 -52 504 -52 c 0,44,45
 408 -52 408 -52 333.5 -6.5 c 128,-1,46
 259 39 259 39 208 115.5 c 128,-1,47
 157 192 157 192 130.5 290.5 c 128,-1,48
 104 389 104 389 104 496 c 0,49,50
 104 635 104 635 149.5 749.5 c 128,-1,51
 195 864 195 864 273 945.5 c 128,-1,52
 351 1027 351 1027 455 1071.5 c 128,-1,53
 559 1116 559 1116 676 1116 c 0,54,55
 739 1116 739 1116 796.5 1083 c 128,-1,56
 854 1050 854 1050 905 998 c 1,57,58
 908 1047 908 1047 912 1104.5 c 128,-1,59
 916 1162 916 1162 920 1221.5 c 128,-1,60
 924 1281 924 1281 928 1339 c 128,-1,61
 932 1397 932 1397 935 1445 c 0,62,63
 935 1454 935 1454 941.5 1459.5 c 128,-1,64
 948 1465 948 1465 975 1472 c 2,65,-1
 1256 1539 l 2,66,67
 1267 1541 1267 1541 1285 1548 c 128,-1,68
 1303 1555 1303 1555 1320 1555 c 0,69,70
 1333 1555 1333 1555 1344.5 1549 c 128,-1,71
 1356 1543 1356 1543 1356 1526 c 0,72,73
 1356 1524 1356 1524 1355.5 1517.5 c 128,-1,74
 1355 1511 1355 1511 1355 1509 c 2,75,-1
 1226 101 l 2,20,21
EndSplineSet
EndChar

StartChar: e
Encoding: 101 101 72
Width: 1142
GlyphClass: 2
Flags: W
LayerCount: 2
Fore
SplineSet
716 1116 m 0,0,1
 811 1116 811 1116 888.5 1080.5 c 128,-1,2
 966 1045 966 1045 1021.5 988.5 c 128,-1,3
 1077 932 1077 932 1107 862 c 128,-1,4
 1137 792 1137 792 1137 722 c 0,5,6
 1137 660 1137 660 1099 597.5 c 128,-1,7
 1061 535 1061 535 992.5 485 c 128,-1,8
 924 435 924 435 828 404 c 128,-1,9
 732 373 732 373 617 373 c 0,10,11
 557 373 557 373 491 385 c 1,12,13
 495 342 495 342 516 311 c 128,-1,14
 537 280 537 280 569 260 c 128,-1,15
 601 240 601 240 641.5 230.5 c 128,-1,16
 682 221 682 221 725 221 c 0,17,18
 773 221 773 221 817.5 229.5 c 128,-1,19
 862 238 862 238 903 252 c 128,-1,20
 944 266 944 266 982 283 c 128,-1,21
 1020 300 1020 300 1054 317 c 1,22,23
 1063 319 1063 319 1069.5 320.5 c 128,-1,24
 1076 322 1076 322 1082 322 c 1,25,26
 1082 322 1082 322 1081.5 306 c 128,-1,27
 1081 290 1081 290 1081 261 c 128,-1,28
 1081 232 1081 232 1080.5 191 c 128,-1,29
 1080 150 1080 150 1079 100 c 1,30,31
 1082 95 1082 95 1083 90 c 128,-1,32
 1084 85 1084 85 1084 82 c 0,33,34
 1084 70 1084 70 1062 56 c 128,-1,35
 1040 42 1040 42 1004.5 27 c 128,-1,36
 969 12 969 12 923.5 -2 c 128,-1,37
 878 -16 878 -16 831 -27.5 c 128,-1,38
 784 -39 784 -39 740 -45.5 c 128,-1,39
 696 -52 696 -52 663 -52 c 0,40,41
 555 -52 555 -52 453.5 -14.5 c 128,-1,42
 352 23 352 23 273.5 93 c 128,-1,43
 195 163 195 163 148 263 c 128,-1,44
 101 363 101 363 101 488 c 0,45,46
 101 619 101 619 146 733.5 c 128,-1,47
 191 848 191 848 272.5 933 c 128,-1,48
 354 1018 354 1018 467 1067 c 128,-1,49
 580 1116 580 1116 716 1116 c 0,0,1
704 850 m 0,50,51
 663 850 663 850 628.5 832.5 c 128,-1,52
 594 815 594 815 565.5 782.5 c 128,-1,53
 537 750 537 750 516 704.5 c 128,-1,54
 495 659 495 659 482 604 c 1,55,56
 585 622 585 622 653 642 c 128,-1,57
 721 662 721 662 762 682.5 c 128,-1,58
 803 703 803 703 820 723.5 c 128,-1,59
 837 744 837 744 837 763 c 0,60,61
 837 781 837 781 823.5 797 c 128,-1,62
 810 813 810 813 790 825 c 128,-1,63
 770 837 770 837 746.5 843.5 c 128,-1,64
 723 850 723 850 704 850 c 0,50,51
EndSplineSet
EndChar

StartChar: f
Encoding: 102 102 73
Width: 910
GlyphClass: 2
Flags: W
LayerCount: 2
Fore
SplineSet
232 -15 m 1,0,1
 233 -4 233 -4 236.5 32.5 c 128,-1,2
 240 69 240 69 245 125 c 128,-1,3
 250 181 250 181 256.5 253.5 c 128,-1,4
 263 326 263 326 271 409.5 c 128,-1,5
 279 493 279 493 287.5 584 c 128,-1,6
 296 675 296 675 305 768 c 1,7,-1
 172 768 l 2,8,9
 118 768 118 768 94 772.5 c 128,-1,10
 70 777 70 777 70 791 c 0,11,12
 70 795 70 795 80 812.5 c 128,-1,13
 90 830 90 830 105.5 854.5 c 128,-1,14
 121 879 121 879 139 907 c 128,-1,15
 157 935 157 935 173.5 959.5 c 128,-1,16
 190 984 190 984 202 1002 c 128,-1,17
 214 1020 214 1020 217 1024 c 1,18,-1
 339 1024 l 1,19,-1
 359 1183 l 1,20,21
 373 1309 373 1309 409.5 1395 c 128,-1,22
 446 1481 446 1481 500.5 1534 c 128,-1,23
 555 1587 555 1587 625 1610 c 128,-1,24
 695 1633 695 1633 775 1633 c 256,25,26
 855 1633 855 1633 941.5 1613.5 c 128,-1,27
 1028 1594 1028 1594 1116 1560 c 0,28,29
 1135 1552 1135 1552 1144.5 1546.5 c 128,-1,30
 1154 1541 1154 1541 1154 1532 c 0,31,32
 1154 1524 1154 1524 1147 1511 c 0,33,34
 1115 1449 1115 1449 1099.5 1411 c 128,-1,35
 1084 1373 1084 1373 1075 1351 c 128,-1,36
 1066 1329 1066 1329 1060 1321.5 c 128,-1,37
 1054 1314 1054 1314 1042 1314 c 0,38,39
 1036 1314 1036 1314 1029.5 1317 c 128,-1,40
 1023 1320 1023 1320 1014 1324 c 0,41,42
 979 1337 979 1337 943.5 1347.5 c 128,-1,43
 908 1358 908 1358 876 1358 c 0,44,45
 831 1358 831 1358 798.5 1330 c 128,-1,46
 766 1302 766 1302 747 1224 c 0,47,48
 736 1179 736 1179 729 1127 c 128,-1,49
 722 1075 722 1075 717 1024 c 1,50,-1
 978 1024 l 2,51,52
 986 1024 986 1024 993.5 1018.5 c 128,-1,53
 1001 1013 1001 1013 1001 1000 c 0,54,55
 1001 995 1001 995 989 964 c 128,-1,56
 977 933 977 933 955 883 c 2,57,-1
 919 802 l 2,58,59
 912 787 912 787 904.5 780 c 128,-1,60
 897 773 897 773 874 771 c 1,61,-1
 701 771 l 1,62,63
 690 667 690 667 680 565 c 128,-1,64
 670 463 670 463 661 373.5 c 128,-1,65
 652 284 652 284 645 214.5 c 128,-1,66
 638 145 638 145 634 107 c 0,67,68
 633 104 633 104 633 96 c 0,69,70
 633 92 633 92 633.5 89 c 128,-1,71
 634 86 634 86 634 84 c 0,72,73
 634 75 634 75 627.5 69.5 c 128,-1,74
 621 64 621 64 594 57 c 1,75,-1
 331 -36 l 2,76,77
 320 -40 320 -40 302 -46 c 128,-1,78
 284 -52 284 -52 267 -52 c 256,79,80
 250 -52 250 -52 241 -44 c 128,-1,81
 232 -36 232 -36 232 -15 c 1,0,1
EndSplineSet
EndChar

StartChar: g
Encoding: 103 103 74
Width: 1295
GlyphClass: 2
Flags: W
LayerCount: 2
Fore
SplineSet
849 713 m 1,0,1
 839 736 839 736 821.5 760 c 128,-1,2
 804 784 804 784 781 804 c 128,-1,3
 758 824 758 824 731 836.5 c 128,-1,4
 704 849 704 849 674 849 c 0,5,6
 633 849 633 849 597 815 c 128,-1,7
 561 781 561 781 534 724.5 c 128,-1,8
 507 668 507 668 491.5 595.5 c 128,-1,9
 476 523 476 523 476 445 c 0,10,11
 476 397 476 397 484.5 354.5 c 128,-1,12
 493 312 493 312 511 280 c 128,-1,13
 529 248 529 248 557.5 229 c 128,-1,14
 586 210 586 210 626 210 c 0,15,16
 686 210 686 210 736 247.5 c 128,-1,17
 786 285 786 285 821 345 c 1,18,19
 822 366 822 366 824 395 c 128,-1,20
 826 424 826 424 829 465.5 c 128,-1,21
 832 507 832 507 836.5 563.5 c 128,-1,22
 841 620 841 620 848 698 c 1,23,-1
 849 713 l 1,0,1
1180 109 m 2,24,25
 1170 10 1170 10 1135 -76 c 128,-1,26
 1100 -162 1100 -162 1046.5 -233.5 c 128,-1,27
 993 -305 993 -305 924.5 -361.5 c 128,-1,28
 856 -418 856 -418 779.5 -457 c 128,-1,29
 703 -496 703 -496 622 -516.5 c 128,-1,30
 541 -537 541 -537 462 -537 c 0,31,32
 420 -537 420 -537 376 -534 c 128,-1,33
 332 -531 332 -531 290 -522.5 c 128,-1,34
 248 -514 248 -514 210 -498.5 c 128,-1,35
 172 -483 172 -483 142 -459 c 1,36,-1
 142 -458 l 2,37,38
 142 -453 142 -453 149.5 -423 c 128,-1,39
 157 -393 157 -393 167.5 -352.5 c 128,-1,40
 178 -312 178 -312 189.5 -269 c 128,-1,41
 201 -226 201 -226 209 -195 c 0,42,43
 213 -181 213 -181 217 -176 c 128,-1,44
 221 -171 221 -171 226 -171 c 0,45,46
 232 -171 232 -171 233 -172 c 0,47,48
 262 -191 262 -191 287.5 -203.5 c 128,-1,49
 313 -216 313 -216 341.5 -223.5 c 128,-1,50
 370 -231 370 -231 404 -234 c 128,-1,51
 438 -237 438 -237 483 -237 c 0,52,53
 553 -237 553 -237 607 -210 c 128,-1,54
 661 -183 661 -183 700 -140 c 128,-1,55
 739 -97 739 -97 762.5 -45.5 c 128,-1,56
 786 6 786 6 795 56 c 1,57,58
 723 8 723 8 649 -22 c 128,-1,59
 575 -52 575 -52 500 -52 c 0,60,61
 397 -52 397 -52 322 -10.5 c 128,-1,62
 247 31 247 31 198 101 c 128,-1,63
 149 171 149 171 125.5 261.5 c 128,-1,64
 102 352 102 352 102 451 c 0,65,66
 102 529 102 529 116.5 608.5 c 128,-1,67
 131 688 131 688 159.5 762 c 128,-1,68
 188 836 188 836 230 900.5 c 128,-1,69
 272 965 272 965 327 1013 c 128,-1,70
 382 1061 382 1061 449 1088.5 c 128,-1,71
 516 1116 516 1116 595 1116 c 0,72,73
 681 1116 681 1116 754.5 1078 c 128,-1,74
 828 1040 828 1040 888 984 c 1,75,76
 890 1002 890 1002 891 1012.5 c 128,-1,77
 892 1023 892 1023 896 1029 c 128,-1,78
 900 1035 900 1035 909.5 1038 c 128,-1,79
 919 1041 919 1041 937 1045 c 0,80,81
 948 1047 948 1047 977 1053.5 c 128,-1,82
 1006 1060 1006 1060 1046 1069 c 128,-1,83
 1086 1078 1086 1078 1134 1088 c 128,-1,84
 1182 1098 1182 1098 1231 1109 c 0,85,86
 1243 1112 1243 1112 1253 1112 c 0,87,88
 1284 1112 1284 1112 1284 1072 c 0,89,90
 1284 1067 1284 1067 1284 1062.5 c 128,-1,91
 1284 1058 1284 1058 1283 1053 c 2,92,-1
 1180 109 l 2,24,25
EndSplineSet
EndChar

StartChar: h
Encoding: 104 104 75
Width: 1328
GlyphClass: 2
Flags: W
LayerCount: 2
Fore
SplineSet
234 1454 m 2,0,1
 234 1460 234 1460 233.5 1465 c 128,-1,2
 233 1470 233 1470 233 1475 c 0,3,4
 233 1484 233 1484 240 1490.5 c 128,-1,5
 247 1497 247 1497 274 1504 c 2,6,-1
 555 1571 l 2,7,8
 566 1573 566 1573 584 1580 c 128,-1,9
 602 1587 602 1587 619 1587 c 0,10,11
 654 1587 654 1587 654 1555 c 0,12,13
 654 1553 654 1553 651 1514 c 128,-1,14
 648 1475 648 1475 643 1417 c 128,-1,15
 638 1359 638 1359 632 1290.5 c 128,-1,16
 626 1222 626 1222 620 1160 c 128,-1,17
 614 1098 614 1098 609 1051.5 c 128,-1,18
 604 1005 604 1005 601 991 c 1,19,20
 648 1017 648 1017 699 1040 c 128,-1,21
 750 1063 750 1063 801.5 1080 c 128,-1,22
 853 1097 853 1097 904.5 1106.5 c 128,-1,23
 956 1116 956 1116 1004 1116 c 0,24,25
 1065 1116 1065 1116 1118 1098.5 c 128,-1,26
 1171 1081 1171 1081 1210.5 1040.5 c 128,-1,27
 1250 1000 1250 1000 1272.5 934.5 c 128,-1,28
 1295 869 1295 869 1295 774 c 0,29,30
 1295 750 1295 750 1294 724.5 c 128,-1,31
 1293 699 1293 699 1290 672 c 2,32,-1
 1247 263 l 2,33,34
 1242 221 1242 221 1241 175.5 c 128,-1,35
 1240 130 1240 130 1240 82 c 0,36,37
 1240 74 1240 74 1240.5 68.5 c 128,-1,38
 1241 63 1241 63 1241 59 c 0,39,40
 1241 50 1241 50 1233.5 45 c 128,-1,41
 1226 40 1226 40 1200 32 c 2,42,-1
 955 -36 l 2,43,44
 944 -39 944 -39 926 -45.5 c 128,-1,45
 908 -52 908 -52 891 -52 c 256,46,47
 874 -52 874 -52 865 -44.5 c 128,-1,48
 856 -37 856 -37 856 -15 c 1,49,50
 863 60 863 60 867.5 106 c 128,-1,51
 872 152 872 152 874.5 179.5 c 128,-1,52
 877 207 877 207 879 221.5 c 128,-1,53
 881 236 881 236 882 247.5 c 128,-1,54
 883 259 883 259 885 273.5 c 128,-1,55
 887 288 887 288 889.5 316 c 128,-1,56
 892 344 892 344 896.5 390 c 128,-1,57
 901 436 901 436 908 511 c 0,58,59
 912 551 912 551 916.5 590.5 c 128,-1,60
 921 630 921 630 921 663 c 0,61,62
 921 705 921 705 916.5 739.5 c 128,-1,63
 912 774 912 774 900.5 798.5 c 128,-1,64
 889 823 889 823 869 837 c 128,-1,65
 849 851 849 851 818 851 c 0,66,67
 795 851 795 851 755.5 841 c 128,-1,68
 716 831 716 831 676.5 808 c 128,-1,69
 637 785 637 785 606.5 747.5 c 128,-1,70
 576 710 576 710 572 655 c 1,71,72
 564 578 564 578 559.5 529 c 128,-1,73
 555 480 555 480 552 448 c 128,-1,74
 549 416 549 416 547.5 397 c 128,-1,75
 546 378 546 378 545 362 c 0,76,77
 544 357 544 357 542 337.5 c 128,-1,78
 540 318 540 318 537 291 c 128,-1,79
 534 264 534 264 531 233.5 c 128,-1,80
 528 203 528 203 525.5 176 c 128,-1,81
 523 149 523 149 521.5 129.5 c 128,-1,82
 520 110 520 110 520 105 c 0,83,84
 520 97 520 97 520.5 91.5 c 128,-1,85
 521 86 521 86 521 81 c 0,86,87
 521 73 521 73 513.5 67.5 c 128,-1,88
 506 62 506 62 480 55 c 1,89,-1
 219 -36 l 2,90,91
 208 -40 208 -40 190 -46 c 128,-1,92
 172 -52 172 -52 155 -52 c 0,93,94
 140 -52 140 -52 130 -43.5 c 128,-1,95
 120 -35 120 -35 120 -15 c 1,96,-1
 234 1454 l 2,0,1
EndSplineSet
EndChar

StartChar: i
Encoding: 105 105 76
Width: 612
GlyphClass: 2
Flags: W
LayerCount: 2
Fore
SplineSet
146 424 m 0,0,1
 159 561 159 561 172 695 c 128,-1,2
 185 829 185 829 195 970 c 0,3,4
 197 1003 197 1003 201.5 1015.5 c 128,-1,5
 206 1028 206 1028 224 1032 c 0,6,7
 309 1049 309 1049 402 1067.5 c 128,-1,8
 495 1086 495 1086 582 1115 c 0,9,10
 585 1116 585 1116 591 1116 c 0,11,12
 602 1116 602 1116 602 1108 c 2,13,-1
 512 134 l 2,14,15
 509 101 509 101 505 88.5 c 128,-1,16
 501 76 501 76 483 72 c 1,17,18
 398 46 398 46 311 14 c 128,-1,19
 224 -18 224 -18 127 -51 c 0,20,21
 124 -52 124 -52 118 -52 c 0,22,23
 107 -52 107 -52 107 -42 c 0,24,25
 107 -41 107 -41 109 -15 c 128,-1,26
 111 11 111 11 114.5 52 c 128,-1,27
 118 93 118 93 122 144 c 128,-1,28
 126 195 126 195 130.5 246 c 128,-1,29
 135 297 135 297 139 344 c 128,-1,30
 143 391 143 391 146 424 c 0,0,1
221 1222 m 0,31,32
 224 1265 224 1265 225.5 1288 c 128,-1,33
 227 1311 227 1311 228 1322.5 c 128,-1,34
 229 1334 229 1334 229 1337 c 128,-1,35
 229 1340 229 1340 229.5 1341.5 c 128,-1,36
 230 1343 230 1343 230.5 1347.5 c 128,-1,37
 231 1352 231 1352 232 1366.5 c 128,-1,38
 233 1381 233 1381 235 1409 c 128,-1,39
 237 1437 237 1437 241 1486 c 0,40,41
 243 1519 243 1519 247.5 1531.5 c 128,-1,42
 252 1544 252 1544 270 1548 c 0,43,44
 355 1565 355 1565 448 1583.5 c 128,-1,45
 541 1602 541 1602 628 1631 c 0,46,47
 631 1632 631 1632 637 1632 c 1,48,49
 640 1626 640 1626 645 1624 c 1,50,-1
 648 1622 l 1,51,-1
 626 1348 l 2,52,53
 623 1315 623 1315 618.5 1302 c 128,-1,54
 614 1289 614 1289 597 1286 c 0,55,56
 512 1270 512 1270 425 1251 c 128,-1,57
 338 1232 338 1232 241 1213 c 0,58,59
 238 1212 238 1212 232 1212 c 0,60,61
 221 1212 221 1212 221 1222 c 0,31,32
EndSplineSet
EndChar

StartChar: j
Encoding: 106 106 77
Width: 620
GlyphClass: 2
Flags: W
LayerCount: 2
Fore
SplineSet
224 1222 m 0,0,1
 227 1265 227 1265 228.5 1288 c 128,-1,2
 230 1311 230 1311 231 1322.5 c 128,-1,3
 232 1334 232 1334 232 1337 c 128,-1,4
 232 1340 232 1340 232.5 1341.5 c 128,-1,5
 233 1343 233 1343 233.5 1347.5 c 128,-1,6
 234 1352 234 1352 235 1366.5 c 128,-1,7
 236 1381 236 1381 238 1409 c 128,-1,8
 240 1437 240 1437 244 1486 c 0,9,10
 246 1519 246 1519 250.5 1531.5 c 128,-1,11
 255 1544 255 1544 273 1548 c 0,12,13
 358 1565 358 1565 451 1583.5 c 128,-1,14
 544 1602 544 1602 631 1631 c 0,15,16
 634 1632 634 1632 640 1632 c 1,17,18
 643 1626 643 1626 648 1624 c 1,19,-1
 651 1622 l 1,20,-1
 629 1348 l 2,21,22
 626 1315 626 1315 621.5 1302 c 128,-1,23
 617 1289 617 1289 600 1286 c 0,24,25
 515 1270 515 1270 428 1251 c 128,-1,26
 341 1232 341 1232 244 1213 c 0,27,28
 241 1212 241 1212 235 1212 c 0,29,30
 224 1212 224 1212 224 1222 c 0,0,1
113 89 m 0,31,32
 122 169 122 169 133 273.5 c 128,-1,33
 144 378 144 378 155.5 494 c 128,-1,34
 167 610 167 610 178 732 c 128,-1,35
 189 854 189 854 198 970 c 0,36,37
 200 1003 200 1003 204.5 1015.5 c 128,-1,38
 209 1028 209 1028 227 1032 c 0,39,40
 312 1049 312 1049 405 1067.5 c 128,-1,41
 498 1086 498 1086 585 1115 c 0,42,43
 588 1116 588 1116 594 1116 c 0,44,45
 605 1116 605 1116 605 1108 c 2,46,-1
 531 289 l 1,47,-1
 511 130 l 1,48,49
 485 -102 485 -102 378.5 -215.5 c 128,-1,50
 272 -329 272 -329 69 -329 c 0,51,52
 50 -329 50 -329 16 -323.5 c 128,-1,53
 -18 -318 -18 -318 -57 -308.5 c 128,-1,54
 -96 -299 -96 -299 -136.5 -287 c 128,-1,55
 -177 -275 -177 -275 -209.5 -263 c 128,-1,56
 -242 -251 -242 -251 -263 -239.5 c 128,-1,57
 -284 -228 -284 -228 -284 -219 c 0,58,59
 -284 -211 -284 -211 -277 -198 c 0,60,61
 -247 -140 -247 -140 -231.5 -102 c 128,-1,62
 -216 -64 -216 -64 -207 -41.5 c 128,-1,63
 -198 -19 -198 -19 -192.5 -10 c 128,-1,64
 -187 -1 -187 -1 -176 -1 c 0,65,66
 -167 -1 -167 -1 -144 -11 c 0,67,68
 -109 -25 -109 -25 -74.5 -35 c 128,-1,69
 -40 -45 -40 -45 -6 -45 c 0,70,71
 14 -45 14 -45 33.5 -39 c 128,-1,72
 53 -33 53 -33 69 -17.5 c 128,-1,73
 85 -2 85 -2 96.5 24 c 128,-1,74
 108 50 108 50 113 89 c 0,31,32
EndSplineSet
EndChar

StartChar: k
Encoding: 107 107 78
Width: 1258
GlyphClass: 2
Flags: W
LayerCount: 2
Fore
SplineSet
659 1518 m 2,0,-1
 623 1171 l 2,1,2
 616 1101 616 1101 608.5 1029 c 128,-1,3
 601 957 601 957 594 891 c 128,-1,4
 587 825 587 825 581 769 c 128,-1,5
 575 713 575 713 571 677 c 1,6,-1
 640 753 l 1,7,-1
 752 884 l 2,8,9
 773 908 773 908 793 932 c 128,-1,10
 813 956 813 956 829 974.5 c 128,-1,11
 845 993 845 993 855 1005.5 c 128,-1,12
 865 1018 865 1018 867 1020 c 1,13,-1
 1269 1048 l 2,14,15
 1272 1049 1272 1049 1275.5 1049 c 128,-1,16
 1279 1049 1279 1049 1282 1049 c 0,17,18
 1299 1049 1299 1049 1299 1040 c 0,19,20
 1299 1033 1299 1033 1278 1009 c 2,21,-1
 965 659 l 2,22,23
 944 636 944 636 915.5 605.5 c 128,-1,24
 887 575 887 575 852 538 c 1,25,-1
 998 364 l 1,26,-1
 1250 93 l 1,27,28
 1253 88 1253 88 1259 85.5 c 128,-1,29
 1265 83 1265 83 1270.5 81 c 128,-1,30
 1276 79 1276 79 1280.5 76.5 c 128,-1,31
 1285 74 1285 74 1285 69 c 0,32,33
 1285 65 1285 65 1283.5 63 c 128,-1,34
 1282 61 1282 61 1274 55 c 0,35,36
 1265 48 1265 48 1242.5 35 c 128,-1,37
 1220 22 1220 22 1190 6 c 128,-1,38
 1160 -10 1160 -10 1126 -26.5 c 128,-1,39
 1092 -43 1092 -43 1060 -56.5 c 128,-1,40
 1028 -70 1028 -70 1001 -78.5 c 128,-1,41
 974 -87 974 -87 959 -87 c 0,42,43
 947 -87 947 -87 935.5 -81 c 128,-1,44
 924 -75 924 -75 910 -59 c 0,45,46
 891 -37 891 -37 862.5 -1.5 c 128,-1,47
 834 34 834 34 801 76.5 c 128,-1,48
 768 119 768 119 733.5 164.5 c 128,-1,49
 699 210 699 210 667.5 251.5 c 128,-1,50
 636 293 636 293 610.5 326.5 c 128,-1,51
 585 360 585 360 571 380 c 1,52,53
 566 375 566 375 561 372.5 c 128,-1,54
 556 370 556 370 551.5 366 c 128,-1,55
 547 362 547 362 544 356.5 c 128,-1,56
 541 351 541 351 541 341 c 0,57,58
 541 337 541 337 539 318.5 c 128,-1,59
 537 300 537 300 534.5 274.5 c 128,-1,60
 532 249 532 249 529 220 c 128,-1,61
 526 191 526 191 523.5 165.5 c 128,-1,62
 521 140 521 140 519 121.5 c 128,-1,63
 517 103 517 103 517 99 c 0,64,65
 517 92 517 92 517.5 87.5 c 128,-1,66
 518 83 518 83 518 79 c 0,67,68
 518 68 518 68 510.5 62.5 c 128,-1,69
 503 57 503 57 474 49 c 1,70,-1
 212 -36 l 2,71,72
 201 -40 201 -40 183 -46 c 128,-1,73
 165 -52 165 -52 148 -52 c 0,74,75
 134 -52 134 -52 123.5 -45 c 128,-1,76
 113 -38 113 -38 113 -19 c 1,77,-1
 239 1422 l 2,78,79
 239 1427 239 1427 238 1431.5 c 128,-1,80
 237 1436 237 1436 237 1441 c 0,81,82
 237 1450 237 1450 244.5 1457.5 c 128,-1,83
 252 1465 252 1465 279 1472 c 2,84,-1
 560 1539 l 2,85,86
 571 1541 571 1541 589 1548 c 128,-1,87
 607 1555 607 1555 624 1555 c 0,88,89
 637 1555 637 1555 648.5 1549 c 128,-1,90
 660 1543 660 1543 660 1526 c 0,91,92
 660 1524 660 1524 659.5 1522 c 128,-1,93
 659 1520 659 1520 659 1518 c 2,0,-1
EndSplineSet
EndChar

StartChar: l
Encoding: 108 108 79
Width: 622
GlyphClass: 2
Flags: W
LayerCount: 2
Fore
SplineSet
189 846 m 256,0,1
 201 983 201 983 208.5 1117 c 128,-1,2
 216 1251 216 1251 225 1392 c 0,3,4
 227 1425 227 1425 231.5 1437.5 c 128,-1,5
 236 1450 236 1450 254 1454 c 0,6,7
 347 1471 347 1471 440.5 1488.5 c 128,-1,8
 534 1506 534 1506 628 1535 c 0,9,10
 631 1536 631 1536 637 1536 c 0,11,12
 648 1536 648 1536 648 1526 c 2,13,-1
 518 98 l 1,14,-1
 518 81 l 2,15,16
 518 72 518 72 511 66.5 c 128,-1,17
 504 61 504 61 478 54 c 1,18,-1
 216 -42 l 2,19,20
 205 -47 205 -47 187 -52.5 c 128,-1,21
 169 -58 169 -58 152 -58 c 0,22,23
 138 -58 138 -58 127.5 -51 c 128,-1,24
 117 -44 117 -44 117 -27 c 2,25,-1
 117 -21 l 1,26,27
 125 80 125 80 132.5 176.5 c 128,-1,28
 140 273 140 273 148.5 376 c 128,-1,29
 157 479 157 479 167 594 c 128,-1,30
 177 709 177 709 189 846 c 256,0,1
EndSplineSet
EndChar

StartChar: m
Encoding: 109 109 80
Width: 1950
GlyphClass: 2
Flags: W
LayerCount: 2
Fore
SplineSet
1575 -36 m 2,0,1
 1564 -39 1564 -39 1546 -45.5 c 128,-1,2
 1528 -52 1528 -52 1511 -52 c 0,3,4
 1497 -52 1497 -52 1486.5 -45 c 128,-1,5
 1476 -38 1476 -38 1476 -21 c 2,6,-1
 1476 -15 l 1,7,8
 1483 58 1483 58 1488 103.5 c 128,-1,9
 1493 149 1493 149 1496 177 c 128,-1,10
 1499 205 1499 205 1501 219.5 c 128,-1,11
 1503 234 1503 234 1505 246.5 c 128,-1,12
 1507 259 1507 259 1508.5 274 c 128,-1,13
 1510 289 1510 289 1513 316.5 c 128,-1,14
 1516 344 1516 344 1520.5 389.5 c 128,-1,15
 1525 435 1525 435 1532 509 c 0,16,17
 1536 549 1536 549 1540.5 588.5 c 128,-1,18
 1545 628 1545 628 1545 661 c 0,19,20
 1545 703 1545 703 1540.5 737.5 c 128,-1,21
 1536 772 1536 772 1524.5 796.5 c 128,-1,22
 1513 821 1513 821 1493 835 c 128,-1,23
 1473 849 1473 849 1442 849 c 0,24,25
 1423 849 1423 849 1392.5 841 c 128,-1,26
 1362 833 1362 833 1331 812.5 c 128,-1,27
 1300 792 1300 792 1275 758.5 c 128,-1,28
 1250 725 1250 725 1243 674 c 1,29,-1
 1243 670 l 1,30,31
 1231 556 1231 556 1221.5 472.5 c 128,-1,32
 1212 389 1212 389 1205 329 c 128,-1,33
 1198 269 1198 269 1193.5 229 c 128,-1,34
 1189 189 1189 189 1186 161.5 c 128,-1,35
 1183 134 1183 134 1181.5 116 c 128,-1,36
 1180 98 1180 98 1180 82 c 0,37,38
 1180 74 1180 74 1180.5 68.5 c 128,-1,39
 1181 63 1181 63 1181 59 c 0,40,41
 1181 51 1181 51 1173.5 45.5 c 128,-1,42
 1166 40 1166 40 1140 32 c 2,43,-1
 905 -36 l 2,44,45
 894 -39 894 -39 876 -45.5 c 128,-1,46
 858 -52 858 -52 841 -52 c 0,47,48
 827 -52 827 -52 816.5 -45 c 128,-1,49
 806 -38 806 -38 806 -21 c 2,50,-1
 806 -15 l 1,51,52
 813 58 813 58 817.5 103.5 c 128,-1,53
 822 149 822 149 825.5 177 c 128,-1,54
 829 205 829 205 831 219.5 c 128,-1,55
 833 234 833 234 834.5 246.5 c 128,-1,56
 836 259 836 259 838 274 c 128,-1,57
 840 289 840 289 842.5 316.5 c 128,-1,58
 845 344 845 344 849.5 389.5 c 128,-1,59
 854 435 854 435 861 509 c 0,60,61
 865 549 865 549 869.5 588.5 c 128,-1,62
 874 628 874 628 874 661 c 0,63,64
 874 703 874 703 870 737.5 c 128,-1,65
 866 772 866 772 855.5 796.5 c 128,-1,66
 845 821 845 821 827 835 c 128,-1,67
 809 849 809 849 781 849 c 0,68,69
 761 849 761 849 726.5 839 c 128,-1,70
 692 829 692 829 657.5 806 c 128,-1,71
 623 783 623 783 596.5 745.5 c 128,-1,72
 570 708 570 708 566 653 c 1,73,74
 558 579 558 579 553 531.5 c 128,-1,75
 548 484 548 484 545 453.5 c 128,-1,76
 542 423 542 423 540.5 404.5 c 128,-1,77
 539 386 539 386 538 370 c 0,78,79
 537 366 537 366 535 347.5 c 128,-1,80
 533 329 533 329 530.5 303.5 c 128,-1,81
 528 278 528 278 525.5 248.5 c 128,-1,82
 523 219 523 219 521 193.5 c 128,-1,83
 519 168 519 168 517.5 149.5 c 128,-1,84
 516 131 516 131 516 127 c 2,85,-1
 516 109 l 2,86,87
 516 99 516 99 515 92 c 128,-1,88
 514 85 514 85 509 79 c 128,-1,89
 504 73 504 73 494.5 68 c 128,-1,90
 485 63 485 63 468 57 c 2,91,-1
 206 -36 l 2,92,93
 195 -40 195 -40 177 -46 c 128,-1,94
 159 -52 159 -52 142 -52 c 0,95,96
 128 -52 128 -52 117.5 -45 c 128,-1,97
 107 -38 107 -38 107 -21 c 1,98,-1
 197 999 l 2,99,100
 200 1032 200 1032 204.5 1044.5 c 128,-1,101
 209 1057 209 1057 227 1061 c 0,102,103
 318 1079 318 1079 413 1097.5 c 128,-1,104
 508 1116 508 1116 599 1145 c 1,105,106
 607 1145 607 1145 608.5 1142.5 c 128,-1,107
 610 1140 610 1140 610 1135 c 2,108,-1
 597 989 l 1,109,110
 634 1008 634 1008 680 1030.5 c 128,-1,111
 726 1053 726 1053 776.5 1072 c 128,-1,112
 827 1091 827 1091 879.5 1103.5 c 128,-1,113
 932 1116 932 1116 982 1116 c 0,114,115
 1051 1116 1051 1116 1109.5 1084.5 c 128,-1,116
 1168 1053 1168 1053 1206 980 c 1,117,118
 1251 1009 1251 1009 1301.5 1034 c 128,-1,119
 1352 1059 1352 1059 1404.5 1077 c 128,-1,120
 1457 1095 1457 1095 1510 1105 c 128,-1,121
 1563 1115 1563 1115 1613 1115 c 0,122,123
 1676 1115 1676 1115 1732 1097 c 128,-1,124
 1788 1079 1788 1079 1829.5 1038 c 128,-1,125
 1871 997 1871 997 1895 931.5 c 128,-1,126
 1919 866 1919 866 1919 772 c 0,127,128
 1919 748 1919 748 1918 722.5 c 128,-1,129
 1917 697 1917 697 1914 670 c 2,130,-1
 1868 242 l 2,131,132
 1863 200 1863 200 1862 164.5 c 128,-1,133
 1861 129 1861 129 1861 82 c 0,134,135
 1861 74 1861 74 1861.5 68.5 c 128,-1,136
 1862 63 1862 63 1862 59 c 0,137,138
 1862 50 1862 50 1854.5 45 c 128,-1,139
 1847 40 1847 40 1821 32 c 2,140,-1
 1575 -36 l 2,0,1
EndSplineSet
EndChar

StartChar: n
Encoding: 110 110 81
Width: 1322
GlyphClass: 2
Flags: W
LayerCount: 2
Fore
SplineSet
950 -36 m 2,0,1
 939 -39 939 -39 921 -45.5 c 128,-1,2
 903 -52 903 -52 886 -52 c 0,3,4
 872 -52 872 -52 861.5 -45 c 128,-1,5
 851 -38 851 -38 851 -21 c 2,6,-1
 851 -15 l 1,7,8
 857 39 857 39 861 76.5 c 128,-1,9
 865 114 865 114 868.5 144.5 c 128,-1,10
 872 175 872 175 874.5 205.5 c 128,-1,11
 877 236 877 236 881 276.5 c 128,-1,12
 885 317 885 317 890.5 372.5 c 128,-1,13
 896 428 896 428 904 511 c 0,14,15
 909 562 909 562 913 615 c 128,-1,16
 917 668 917 668 917 713 c 0,17,18
 917 743 917 743 912.5 768.5 c 128,-1,19
 908 794 908 794 896.5 812.5 c 128,-1,20
 885 831 885 831 865 841 c 128,-1,21
 845 851 845 851 814 851 c 0,22,23
 791 851 791 851 750.5 841 c 128,-1,24
 710 831 710 831 670 808 c 128,-1,25
 630 785 630 785 599 747.5 c 128,-1,26
 568 710 568 710 564 655 c 0,27,28
 558 581 558 581 553 528.5 c 128,-1,29
 548 476 548 476 544 439.5 c 128,-1,30
 540 403 540 403 537.5 380 c 128,-1,31
 535 357 535 357 534 341 c 0,32,33
 533 337 533 337 531 319 c 128,-1,34
 529 301 529 301 526.5 276 c 128,-1,35
 524 251 524 251 521.5 223 c 128,-1,36
 519 195 519 195 516.5 170 c 128,-1,37
 514 145 514 145 512.5 127 c 128,-1,38
 511 109 511 109 511 105 c 0,39,40
 511 97 511 97 511.5 91.5 c 128,-1,41
 512 86 512 86 512 81 c 0,42,43
 512 73 512 73 504.5 67.5 c 128,-1,44
 497 62 497 62 471 55 c 1,45,-1
 206 -36 l 2,46,47
 195 -40 195 -40 177 -46 c 128,-1,48
 159 -52 159 -52 142 -52 c 0,49,50
 128 -52 128 -52 117.5 -45 c 128,-1,51
 107 -38 107 -38 107 -21 c 1,52,-1
 198 1001 l 2,53,54
 201 1034 201 1034 205.5 1046.5 c 128,-1,55
 210 1059 210 1059 228 1063 c 0,56,57
 319 1081 319 1081 415 1099.5 c 128,-1,58
 511 1118 511 1118 602 1147 c 1,59,60
 610 1147 610 1147 611.5 1144.5 c 128,-1,61
 613 1142 613 1142 613 1137 c 0,62,63
 613 1135 613 1135 612.5 1131 c 128,-1,64
 612 1127 612 1127 609.5 1113 c 128,-1,65
 607 1099 607 1099 602.5 1070.5 c 128,-1,66
 598 1042 598 1042 590 991 c 1,67,68
 659 1031 659 1031 719.5 1055.5 c 128,-1,69
 780 1080 780 1080 833.5 1093.5 c 128,-1,70
 887 1107 887 1107 934 1111.5 c 128,-1,71
 981 1116 981 1116 1022 1116 c 0,72,73
 1163 1116 1163 1116 1227 1030.5 c 128,-1,74
 1291 945 1291 945 1291 774 c 0,75,76
 1291 750 1291 750 1290 724.5 c 128,-1,77
 1289 699 1289 699 1286 672 c 2,78,-1
 1240 242 l 2,79,80
 1235 200 1235 200 1234 164.5 c 128,-1,81
 1233 129 1233 129 1233 82 c 0,82,83
 1233 74 1233 74 1233.5 68.5 c 128,-1,84
 1234 63 1234 63 1234 59 c 0,85,86
 1234 50 1234 50 1226.5 45 c 128,-1,87
 1219 40 1219 40 1193 32 c 2,88,-1
 950 -36 l 2,0,1
EndSplineSet
EndChar

StartChar: o
Encoding: 111 111 82
Width: 1313
GlyphClass: 2
Flags: W
LayerCount: 2
Fore
SplineSet
670 -52 m 0,0,1
 529 -52 529 -52 422.5 -6 c 128,-1,2
 316 40 316 40 244 116.5 c 128,-1,3
 172 193 172 193 136 292.5 c 128,-1,4
 100 392 100 392 100 499 c 256,5,6
 100 606 100 606 135 702.5 c 128,-1,7
 170 799 170 799 233 875.5 c 128,-1,8
 296 952 296 952 384 1003.5 c 128,-1,9
 472 1055 472 1055 578 1073 c 1,10,11
 594 1074 594 1074 594 1080 c 0,12,13
 594 1091 594 1091 591.5 1100.5 c 128,-1,14
 589 1110 589 1110 589 1117 c 0,15,16
 589 1128 589 1128 593 1132 c 128,-1,17
 597 1136 597 1136 602 1136 c 0,18,19
 793 1136 793 1136 927 1092.5 c 128,-1,20
 1061 1049 1061 1049 1145 974 c 128,-1,21
 1229 899 1229 899 1267 797 c 128,-1,22
 1305 695 1305 695 1305 578 c 0,23,24
 1305 429 1305 429 1255 312 c 128,-1,25
 1205 195 1205 195 1118.5 114 c 128,-1,26
 1032 33 1032 33 916.5 -9.5 c 128,-1,27
 801 -52 801 -52 670 -52 c 0,0,1
485 510 m 0,28,29
 485 456 485 456 496.5 403 c 128,-1,30
 508 350 508 350 534.5 307 c 128,-1,31
 561 264 561 264 604 237.5 c 128,-1,32
 647 211 647 211 711 211 c 1,33,34
 757 213 757 213 791.5 231.5 c 128,-1,35
 826 250 826 250 851 279.5 c 128,-1,36
 876 309 876 309 892.5 346 c 128,-1,37
 909 383 909 383 918.5 422.5 c 128,-1,38
 928 462 928 462 932 500 c 128,-1,39
 936 538 936 538 936 569 c 0,40,41
 936 621 936 621 920.5 671 c 128,-1,42
 905 721 905 721 875 759 c 128,-1,43
 845 797 845 797 800.5 820.5 c 128,-1,44
 756 844 756 844 698 844 c 0,45,46
 638 844 638 844 597 808.5 c 128,-1,47
 556 773 556 773 531.5 721 c 128,-1,48
 507 669 507 669 496 611.5 c 128,-1,49
 485 554 485 554 485 510 c 0,28,29
EndSplineSet
EndChar

StartChar: p
Encoding: 112 112 83
Width: 1325
GlyphClass: 2
Flags: W
LayerCount: 2
Fore
SplineSet
567 698 m 1,0,1
 561 602 561 602 556.5 542 c 128,-1,2
 552 482 552 482 549 444.5 c 128,-1,3
 546 407 546 407 544 385.5 c 128,-1,4
 542 364 542 364 541 345 c 1,5,6
 564 285 564 285 609 247.5 c 128,-1,7
 654 210 654 210 717 210 c 0,8,9
 772 210 772 210 813.5 244.5 c 128,-1,10
 855 279 855 279 882.5 334 c 128,-1,11
 910 389 910 389 924 457 c 128,-1,12
 938 525 938 525 938 592 c 0,13,14
 938 647 938 647 928.5 694 c 128,-1,15
 919 741 919 741 900 775.5 c 128,-1,16
 881 810 881 810 852.5 829.5 c 128,-1,17
 824 849 824 849 785 849 c 0,18,19
 753 849 753 849 721.5 836.5 c 128,-1,20
 690 824 690 824 661 804.5 c 128,-1,21
 632 785 632 785 608.5 760.5 c 128,-1,22
 585 736 585 736 570 713 c 1,23,-1
 567 698 l 1,0,1
587 991 m 1,24,25
 671 1048 671 1048 763 1082 c 128,-1,26
 855 1116 855 1116 955 1116 c 0,27,28
 1049 1116 1049 1116 1117.5 1077.5 c 128,-1,29
 1186 1039 1186 1039 1231 973.5 c 128,-1,30
 1276 908 1276 908 1297.5 823 c 128,-1,31
 1319 738 1319 738 1319 645 c 0,32,33
 1319 564 1319 564 1303 481 c 128,-1,34
 1287 398 1287 398 1256 320.5 c 128,-1,35
 1225 243 1225 243 1179 175 c 128,-1,36
 1133 107 1133 107 1073.5 56.5 c 128,-1,37
 1014 6 1014 6 941 -23 c 128,-1,38
 868 -52 868 -52 783 -52 c 0,39,40
 708 -52 708 -52 639.5 -22 c 128,-1,41
 571 8 571 8 511 56 c 1,42,43
 511 51 511 51 508.5 19.5 c 128,-1,44
 506 -12 506 -12 502 -57 c 128,-1,45
 498 -102 498 -102 493 -153.5 c 128,-1,46
 488 -205 488 -205 484 -250 c 128,-1,47
 480 -295 480 -295 477.5 -326.5 c 128,-1,48
 475 -358 475 -358 475 -363 c 0,49,50
 475 -371 475 -371 475.5 -376.5 c 128,-1,51
 476 -382 476 -382 476 -387 c 0,52,53
 476 -395 476 -395 468.5 -400.5 c 128,-1,54
 461 -406 461 -406 435 -413 c 2,55,-1
 172 -480 l 2,56,57
 161 -483 161 -483 143 -489.5 c 128,-1,58
 125 -496 125 -496 108 -496 c 0,59,60
 94 -496 94 -496 83.5 -489 c 128,-1,61
 73 -482 73 -482 73 -463 c 1,62,-1
 195 1001 l 2,63,64
 198 1034 198 1034 202.5 1046.5 c 128,-1,65
 207 1059 207 1059 225 1063 c 0,66,67
 316 1081 316 1081 412 1099.5 c 128,-1,68
 508 1118 508 1118 599 1147 c 1,69,70
 607 1147 607 1147 608.5 1144.5 c 128,-1,71
 610 1142 610 1142 610 1137 c 0,72,73
 610 1135 610 1135 609.5 1131 c 128,-1,74
 609 1127 609 1127 606.5 1113 c 128,-1,75
 604 1099 604 1099 599.5 1070.5 c 128,-1,76
 595 1042 595 1042 587 991 c 1,24,25
EndSplineSet
EndChar

StartChar: q
Encoding: 113 113 84
Width: 1303
GlyphClass: 2
Flags: W
LayerCount: 2
Fore
SplineSet
850 718 m 1,0,1
 840 741 840 741 822.5 765 c 128,-1,2
 805 789 805 789 782 809 c 128,-1,3
 759 829 759 829 732 841.5 c 128,-1,4
 705 854 705 854 675 854 c 0,5,6
 634 854 634 854 598 820 c 128,-1,7
 562 786 562 786 535 729.5 c 128,-1,8
 508 673 508 673 492.5 600.5 c 128,-1,9
 477 528 477 528 477 450 c 0,10,11
 477 402 477 402 485.5 359.5 c 128,-1,12
 494 317 494 317 512 285 c 128,-1,13
 530 253 530 253 558.5 234 c 128,-1,14
 587 215 587 215 627 215 c 0,15,16
 687 215 687 215 737 252.5 c 128,-1,17
 787 290 787 290 822 350 c 1,18,19
 823 371 823 371 825 400 c 128,-1,20
 827 429 827 429 830 470.5 c 128,-1,21
 833 512 833 512 837.5 568.5 c 128,-1,22
 842 625 842 625 849 703 c 1,23,-1
 850 718 l 1,0,1
1232 1114 m 0,24,25
 1244 1117 1244 1117 1254 1117 c 0,26,27
 1285 1117 1285 1117 1285 1078 c 0,28,29
 1285 1073 1285 1073 1285 1068.5 c 128,-1,30
 1285 1064 1285 1064 1284 1058 c 2,31,-1
 1155 -328 l 2,32,33
 1154 -331 1154 -331 1154 -339 c 0,34,35
 1154 -343 1154 -343 1154.5 -346 c 128,-1,36
 1155 -349 1155 -349 1155 -351 c 0,37,38
 1155 -360 1155 -360 1148.5 -365.5 c 128,-1,39
 1142 -371 1142 -371 1115 -378 c 1,40,-1
 850 -475 l 2,41,42
 839 -478 839 -478 821 -484.5 c 128,-1,43
 803 -491 803 -491 786 -491 c 0,44,45
 772 -491 772 -491 761 -485 c 128,-1,46
 750 -479 750 -479 750 -463 c 0,47,48
 750 -457 750 -457 751 -454 c 0,49,50
 752 -450 752 -450 754 -426.5 c 128,-1,51
 756 -403 756 -403 759 -367.5 c 128,-1,52
 762 -332 762 -332 766 -287.5 c 128,-1,53
 770 -243 770 -243 773.5 -196.5 c 128,-1,54
 777 -150 777 -150 781 -105.5 c 128,-1,55
 785 -61 785 -61 788 -25.5 c 128,-1,56
 791 10 791 10 793 33.5 c 128,-1,57
 795 57 795 57 796 61 c 1,58,59
 724 13 724 13 650 -19.5 c 128,-1,60
 576 -52 576 -52 501 -52 c 0,61,62
 398 -52 398 -52 323 -10 c 128,-1,63
 248 32 248 32 199 102.5 c 128,-1,64
 150 173 150 173 126.5 264.5 c 128,-1,65
 103 356 103 356 103 455 c 0,66,67
 103 534 103 534 117.5 613.5 c 128,-1,68
 132 693 132 693 160.5 766.5 c 128,-1,69
 189 840 189 840 231 904 c 128,-1,70
 273 968 273 968 328 1015 c 128,-1,71
 383 1062 383 1062 450 1089 c 128,-1,72
 517 1116 517 1116 596 1116 c 0,73,74
 684 1116 684 1116 756 1081 c 128,-1,75
 828 1046 828 1046 889 989 c 1,76,77
 891 1007 891 1007 892 1017.5 c 128,-1,78
 893 1028 893 1028 897 1034 c 128,-1,79
 901 1040 901 1040 910.5 1043 c 128,-1,80
 920 1046 920 1046 938 1050 c 0,81,82
 949 1052 949 1052 978 1058.5 c 128,-1,83
 1007 1065 1007 1065 1047 1074 c 128,-1,84
 1087 1083 1087 1083 1135 1093 c 128,-1,85
 1183 1103 1183 1103 1232 1114 c 0,24,25
EndSplineSet
EndChar

StartChar: r
Encoding: 114 114 85
Width: 904
GlyphClass: 2
Flags: W
LayerCount: 2
Fore
SplineSet
938 814 m 1,0,1
 917 816 917 816 891 818.5 c 128,-1,2
 865 821 865 821 836 821 c 0,3,4
 792 821 792 821 746.5 813.5 c 128,-1,5
 701 806 701 806 662 784 c 128,-1,6
 623 762 623 762 595 723.5 c 128,-1,7
 567 685 567 685 559 624 c 1,8,9
 552 550 552 550 547.5 502.5 c 128,-1,10
 543 455 543 455 541 424.5 c 128,-1,11
 539 394 539 394 537.5 375.5 c 128,-1,12
 536 357 536 357 535 341 c 0,13,14
 535 337 535 337 533.5 319 c 128,-1,15
 532 301 532 301 529 277 c 128,-1,16
 526 253 526 253 523.5 225 c 128,-1,17
 521 197 521 197 518 173 c 128,-1,18
 515 149 515 149 513.5 131 c 128,-1,19
 512 113 512 113 512 109 c 0,20,21
 512 101 512 101 512.5 95.5 c 128,-1,22
 513 90 513 90 513 85 c 0,23,24
 513 77 513 77 505.5 71.5 c 128,-1,25
 498 66 498 66 472 59 c 1,26,-1
 207 -36 l 2,27,28
 196 -40 196 -40 178 -46 c 128,-1,29
 160 -52 160 -52 143 -52 c 0,30,31
 129 -52 129 -52 118.5 -45 c 128,-1,32
 108 -38 108 -38 108 -21 c 1,33,-1
 194 970 l 2,34,35
 197 1003 197 1003 201.5 1015.5 c 128,-1,36
 206 1028 206 1028 224 1032 c 0,37,38
 315 1050 315 1050 412 1068.5 c 128,-1,39
 509 1087 509 1087 600 1116 c 1,40,41
 608 1116 608 1116 609.5 1113.5 c 128,-1,42
 611 1111 611 1111 611 1106 c 0,43,44
 611 1104 611 1104 610.5 1100 c 128,-1,45
 610 1096 610 1096 607.5 1082 c 128,-1,46
 605 1068 605 1068 600.5 1039.5 c 128,-1,47
 596 1011 596 1011 588 960 c 1,48,49
 634 996 634 996 689.5 1026 c 128,-1,50
 745 1056 745 1056 801 1077.5 c 128,-1,51
 857 1099 857 1099 909 1111.5 c 128,-1,52
 961 1124 961 1124 1000 1124 c 1,53,-1
 938 814 l 1,0,1
EndSplineSet
EndChar

StartChar: s
Encoding: 115 115 86
Width: 861
GlyphClass: 2
Flags: W
LayerCount: 2
Fore
SplineSet
125 276 m 2,0,1
 125 277 125 277 124.5 277.5 c 128,-1,2
 124 278 124 278 124 279 c 0,3,4
 124 292 124 292 138 292 c 0,5,6
 147 292 147 292 154 285 c 0,7,8
 194 247 194 247 245.5 223 c 128,-1,9
 297 199 297 199 357 199 c 0,10,11
 373 199 373 199 394 202.5 c 128,-1,12
 415 206 415 206 434 214 c 128,-1,13
 453 222 453 222 465.5 235.5 c 128,-1,14
 478 249 478 249 478 269 c 0,15,16
 478 291 478 291 467 309.5 c 128,-1,17
 456 328 456 328 438 340 c 0,18,19
 428 347 428 347 403 364.5 c 128,-1,20
 378 382 378 382 349.5 402 c 128,-1,21
 321 422 321 422 295.5 440 c 128,-1,22
 270 458 270 458 260 466 c 0,23,24
 215 500 215 500 188.5 535 c 128,-1,25
 162 570 162 570 148 607.5 c 128,-1,26
 134 645 134 645 130 686 c 128,-1,27
 126 727 126 727 126 773 c 0,28,29
 126 843 126 843 163 905 c 128,-1,30
 200 967 200 967 260.5 1014 c 128,-1,31
 321 1061 321 1061 398 1088.5 c 128,-1,32
 475 1116 475 1116 555 1116 c 0,33,34
 621 1116 621 1116 685 1096 c 128,-1,35
 749 1076 749 1076 804 1028 c 1,36,37
 809 965 809 965 811 904 c 128,-1,38
 813 843 813 843 817 776 c 0,39,40
 817 763 817 763 811 758.5 c 128,-1,41
 805 754 805 754 797 754 c 0,42,43
 790 754 790 754 785 759 c 0,44,45
 762 781 762 781 738 802.5 c 128,-1,46
 714 824 714 824 687.5 840.5 c 128,-1,47
 661 857 661 857 631 867.5 c 128,-1,48
 601 878 601 878 567 878 c 0,49,50
 546 878 546 878 525 874.5 c 128,-1,51
 504 871 504 871 487 861.5 c 128,-1,52
 470 852 470 852 459.5 836 c 128,-1,53
 449 820 449 820 449 795 c 0,54,55
 449 766 449 766 456 745 c 128,-1,56
 463 724 463 724 489 704 c 1,57,-1
 675 578 l 2,58,59
 726 543 726 543 757.5 509.5 c 128,-1,60
 789 476 789 476 807 443 c 128,-1,61
 825 410 825 410 831.5 377.5 c 128,-1,62
 838 345 838 345 838 313 c 0,63,64
 838 223 838 223 796.5 154.5 c 128,-1,65
 755 86 755 86 689 40.5 c 128,-1,66
 623 -5 623 -5 539.5 -28.5 c 128,-1,67
 456 -52 456 -52 372 -52 c 0,68,69
 308 -52 308 -52 248.5 -38.5 c 128,-1,70
 189 -25 189 -25 138 3 c 1,71,-1
 125 276 l 2,0,1
EndSplineSet
EndChar

StartChar: t
Encoding: 116 116 87
Width: 934
GlyphClass: 2
Flags: W
LayerCount: 2
Fore
SplineSet
659 771 m 1,0,1
 645 666 645 666 632.5 561.5 c 128,-1,2
 620 457 620 457 617 366 c 1,3,4
 617 327 617 327 623 301 c 128,-1,5
 629 275 629 275 640.5 260 c 128,-1,6
 652 245 652 245 668 238.5 c 128,-1,7
 684 232 684 232 704 232 c 0,8,9
 736 232 736 232 774 241.5 c 128,-1,10
 812 251 812 251 850 266 c 0,11,12
 862 271 862 271 870.5 273.5 c 128,-1,13
 879 276 879 276 885 276 c 0,14,15
 895 276 895 276 898.5 267 c 128,-1,16
 902 258 902 258 905.5 235.5 c 128,-1,17
 909 213 909 213 916 175 c 128,-1,18
 923 137 923 137 939 79 c 0,19,20
 940 74 940 74 940.5 70.5 c 128,-1,21
 941 67 941 67 941 64 c 0,22,23
 941 50 941 50 930.5 44 c 128,-1,24
 920 38 920 38 896 30 c 0,25,26
 855 16 855 16 809.5 1.5 c 128,-1,27
 764 -13 764 -13 719.5 -25 c 128,-1,28
 675 -37 675 -37 634 -44.5 c 128,-1,29
 593 -52 593 -52 562 -52 c 0,30,31
 395 -52 395 -52 318.5 31 c 128,-1,32
 242 114 242 114 242 284 c 0,33,34
 242 313 242 313 244 343.5 c 128,-1,35
 246 374 246 374 249 407 c 0,36,37
 259 507 259 507 266.5 596.5 c 128,-1,38
 274 686 274 686 282 768 c 1,39,-1
 177 768 l 2,40,41
 123 768 123 768 99 772.5 c 128,-1,42
 75 777 75 777 75 791 c 0,43,44
 75 795 75 795 85 812.5 c 128,-1,45
 95 830 95 830 110.5 854.5 c 128,-1,46
 126 879 126 879 144 907 c 128,-1,47
 162 935 162 935 178.5 959.5 c 128,-1,48
 195 984 195 984 207 1002 c 128,-1,49
 219 1020 219 1020 222 1024 c 1,50,-1
 293 1024 l 1,51,52
 302 1100 302 1100 307.5 1151.5 c 128,-1,53
 313 1203 313 1203 316.5 1237 c 128,-1,54
 320 1271 320 1271 323 1289.5 c 128,-1,55
 326 1308 326 1308 329.5 1317 c 128,-1,56
 333 1326 333 1326 338.5 1328.5 c 128,-1,57
 344 1331 344 1331 353 1333 c 0,58,59
 398 1342 398 1342 440 1349.5 c 128,-1,60
 482 1357 482 1357 524 1365 c 128,-1,61
 566 1373 566 1373 609.5 1383.5 c 128,-1,62
 653 1394 653 1394 700 1408 c 0,63,64
 703 1408 703 1408 704 1408.5 c 128,-1,65
 705 1409 705 1409 708 1409 c 0,66,67
 720 1409 720 1409 720 1401 c 2,68,-1
 720 1399 l 1,69,70
 715 1344 715 1344 704.5 1246 c 128,-1,71
 694 1148 694 1148 681 1024 c 1,72,-1
 949 1024 l 2,73,74
 957 1024 957 1024 964.5 1018.5 c 128,-1,75
 972 1013 972 1013 972 1000 c 0,76,77
 972 995 972 995 960 964 c 128,-1,78
 948 933 948 933 926 883 c 2,79,-1
 890 802 l 2,80,81
 883 787 883 787 875.5 780 c 128,-1,82
 868 773 868 773 845 771 c 1,83,-1
 659 771 l 1,0,1
EndSplineSet
EndChar

StartChar: u
Encoding: 117 117 88
Width: 1280
GlyphClass: 2
Flags: W
LayerCount: 2
Fore
SplineSet
1177 124 m 2,0,1
 1174 91 1174 91 1169 78.5 c 128,-1,2
 1164 66 1164 66 1147 62 c 0,3,4
 1062 38 1062 38 969.5 13.5 c 128,-1,5
 877 -11 877 -11 790 -51 c 0,6,7
 787 -52 787 -52 781 -52 c 0,8,9
 773 -52 773 -52 771.5 -48 c 128,-1,10
 770 -44 770 -44 770 -39 c 0,11,12
 770 -37 770 -37 770.5 -32 c 128,-1,13
 771 -27 771 -27 773 -13.5 c 128,-1,14
 775 0 775 0 778.5 24 c 128,-1,15
 782 48 782 48 788 88 c 1,16,17
 676 15 676 15 589.5 -18.5 c 128,-1,18
 503 -52 503 -52 436 -52 c 0,19,20
 269 -52 269 -52 192.5 28.5 c 128,-1,21
 116 109 116 109 116 269 c 0,22,23
 116 298 116 298 117 328.5 c 128,-1,24
 118 359 118 359 123 391 c 1,25,26
 134 509 134 509 142 593.5 c 128,-1,27
 150 678 150 678 155 737 c 128,-1,28
 160 796 160 796 163.5 833.5 c 128,-1,29
 167 871 167 871 169.5 896 c 128,-1,30
 172 921 172 921 173.5 937.5 c 128,-1,31
 175 954 175 954 177 970 c 0,32,33
 181 1002 181 1002 184.5 1015 c 128,-1,34
 188 1028 188 1028 207 1032 c 0,35,36
 254 1041 254 1041 296.5 1048.5 c 128,-1,37
 339 1056 339 1056 380.5 1064.5 c 128,-1,38
 422 1073 422 1073 465 1083 c 128,-1,39
 508 1093 508 1093 556 1107 c 0,40,41
 558 1107 558 1107 560 1107.5 c 128,-1,42
 562 1108 562 1108 564 1108 c 0,43,44
 576 1108 576 1108 576 1100 c 2,45,-1
 576 1098 l 1,46,47
 572 1064 572 1064 569 1034 c 128,-1,48
 566 1004 566 1004 563 972.5 c 128,-1,49
 560 941 560 941 556.5 905 c 128,-1,50
 553 869 553 869 548 821.5 c 128,-1,51
 543 774 543 774 536 712 c 128,-1,52
 529 650 529 650 519 568 c 1,53,54
 513 508 513 508 507 448.5 c 128,-1,55
 501 389 501 389 501 338 c 0,56,57
 501 310 501 310 505 286.5 c 128,-1,58
 509 263 509 263 519.5 246.5 c 128,-1,59
 530 230 530 230 547 221 c 128,-1,60
 564 212 564 212 591 212 c 0,61,62
 612 212 612 212 648 221.5 c 128,-1,63
 684 231 684 231 720 254.5 c 128,-1,64
 756 278 756 278 783.5 316.5 c 128,-1,65
 811 355 811 355 815 414 c 0,66,67
 822 513 822 513 827.5 579.5 c 128,-1,68
 833 646 833 646 837 691.5 c 128,-1,69
 841 737 841 737 844 768 c 128,-1,70
 847 799 847 799 849.5 827.5 c 128,-1,71
 852 856 852 856 854 888.5 c 128,-1,72
 856 921 856 921 858 970 c 1,73,74
 861 1003 861 1003 865.5 1015.5 c 128,-1,75
 870 1028 870 1028 888 1032 c 0,76,77
 979 1050 979 1050 1074 1068.5 c 128,-1,78
 1169 1087 1169 1087 1260 1116 c 1,79,80
 1268 1116 1268 1116 1269.5 1113.5 c 128,-1,81
 1271 1111 1271 1111 1271 1106 c 2,82,-1
 1177 124 l 2,0,1
EndSplineSet
EndChar

StartChar: v
Encoding: 118 118 89
Width: 1120
GlyphClass: 2
Flags: W
LayerCount: 2
Fore
SplineSet
855 1106 m 0,0,1
 859 1116 859 1116 870 1116 c 0,2,3
 872 1116 872 1116 874 1115.5 c 128,-1,4
 876 1115 876 1115 878 1115 c 0,5,6
 953 1086 953 1086 1032 1067.5 c 128,-1,7
 1111 1049 1111 1049 1189 1032 c 0,8,9
 1208 1028 1208 1028 1208 1010 c 0,10,11
 1208 997 1208 997 1196 970 c 2,12,-1
 784 94 l 2,13,14
 776 76 776 76 770 65 c 128,-1,15
 764 54 764 54 758 47 c 128,-1,16
 752 40 752 40 745 37 c 128,-1,17
 738 34 738 34 728 32 c 0,18,19
 652 17 652 17 574 -2.5 c 128,-1,20
 496 -22 496 -22 412 -51 c 0,21,22
 410 -51 410 -51 409 -51.5 c 128,-1,23
 408 -52 408 -52 407 -52 c 2,24,-1
 400 -52 l 2,25,26
 395 -52 395 -52 392 -48.5 c 128,-1,27
 389 -45 389 -45 388 -42 c 0,28,29
 373 1 373 1 353.5 69 c 128,-1,30
 334 137 334 137 311 221 c 128,-1,31
 288 305 288 305 263 400 c 128,-1,32
 238 495 238 495 212 593 c 128,-1,33
 186 691 186 691 160.5 787.5 c 128,-1,34
 135 884 135 884 111 970 c 0,35,36
 102 1001 102 1001 102 1014 c 0,37,38
 102 1028 102 1028 118 1032 c 0,39,40
 196 1049 196 1049 280 1067.5 c 128,-1,41
 364 1086 364 1086 439 1115 c 0,42,43
 442 1116 442 1116 448 1116 c 0,44,45
 461 1116 461 1116 462 1106 c 2,46,-1
 594 434 l 1,47,48
 599 446 599 446 611 477.5 c 128,-1,49
 623 509 623 509 640 553 c 128,-1,50
 657 597 657 597 677.5 650 c 128,-1,51
 698 703 698 703 719.5 758 c 128,-1,52
 741 813 741 813 762 867.5 c 128,-1,53
 783 922 783 922 801.5 969 c 128,-1,54
 820 1016 820 1016 834 1052 c 128,-1,55
 848 1088 848 1088 855 1106 c 0,0,1
EndSplineSet
EndChar

StartChar: w
Encoding: 119 119 90
Width: 1691
GlyphClass: 2
Flags: W
LayerCount: 2
Fore
SplineSet
742 1018 m 2,0,1
 745 1029 745 1029 759 1032 c 0,2,3
 840 1050 840 1050 925 1069 c 128,-1,4
 1010 1088 1010 1088 1088 1116 c 1,5,6
 1102 1116 1102 1116 1102 1106 c 1,7,-1
 1204 424 l 1,8,-1
 1395 1106 l 1,9,10
 1399 1116 1399 1116 1410 1116 c 0,11,12
 1413 1116 1413 1116 1414 1115.5 c 128,-1,13
 1415 1115 1415 1115 1418 1115 c 1,14,15
 1493 1086 1493 1086 1572 1067.5 c 128,-1,16
 1651 1049 1651 1049 1729 1032 c 0,17,18
 1748 1028 1748 1028 1748 1010 c 0,19,20
 1748 997 1748 997 1736 970 c 1,21,-1
 1414 78 l 1,22,23
 1406 61 1406 61 1400 49.5 c 128,-1,24
 1394 38 1394 38 1388 31.5 c 128,-1,25
 1382 25 1382 25 1375 21.5 c 128,-1,26
 1368 18 1368 18 1358 16 c 0,27,28
 1282 0 1282 0 1204 -19 c 128,-1,29
 1126 -38 1126 -38 1042 -67 c 0,30,31
 1040 -67 1040 -67 1039 -67.5 c 128,-1,32
 1038 -68 1038 -68 1037 -68 c 2,33,-1
 1030 -68 l 2,34,35
 1025 -68 1025 -68 1022 -64.5 c 128,-1,36
 1019 -61 1019 -61 1018 -58 c 0,37,38
 1007 -15 1007 -15 993 49 c 128,-1,39
 979 113 979 113 963 191 c 128,-1,40
 947 269 947 269 929 358 c 128,-1,41
 911 447 911 447 892 541 c 1,42,-1
 765 94 l 2,43,44
 760 76 760 76 754.5 64.5 c 128,-1,45
 749 53 749 53 742 46.5 c 128,-1,46
 735 40 735 40 727 37 c 128,-1,47
 719 34 719 34 709 32 c 0,48,49
 633 17 633 17 555 -2.5 c 128,-1,50
 477 -22 477 -22 393 -51 c 0,51,52
 391 -51 391 -51 390 -51.5 c 128,-1,53
 389 -52 389 -52 388 -52 c 2,54,-1
 381 -52 l 2,55,56
 376 -52 376 -52 372.5 -48.5 c 128,-1,57
 369 -45 369 -45 369 -42 c 0,58,59
 355 2 355 2 337 69.5 c 128,-1,60
 319 137 319 137 298.5 220.5 c 128,-1,61
 278 304 278 304 256 399 c 128,-1,62
 234 494 234 494 211 592 c 128,-1,63
 188 690 188 690 165.5 786.5 c 128,-1,64
 143 883 143 883 122 970 c 1,65,66
 115 986 115 986 114 996.5 c 128,-1,67
 113 1007 113 1007 113 1014 c 0,68,69
 113 1028 113 1028 129 1032 c 0,70,71
 207 1049 207 1049 291 1067.5 c 128,-1,72
 375 1086 375 1086 450 1115 c 0,73,74
 453 1116 453 1116 459 1116 c 0,75,76
 472 1116 472 1116 473 1106 c 2,77,-1
 585 414 l 1,78,-1
 742 1018 l 2,0,1
EndSplineSet
EndChar

StartChar: x
Encoding: 120 120 91
Width: 1070
GlyphClass: 2
Flags: W
LayerCount: 2
Fore
SplineSet
700 -58 m 0,0,1
 699 -57 699 -57 685.5 -31.5 c 128,-1,2
 672 -6 672 -6 650.5 34.5 c 128,-1,3
 629 75 629 75 602.5 125 c 128,-1,4
 576 175 576 175 549 226 c 1,5,6
 511 175 511 175 474 125 c 128,-1,7
 437 75 437 75 408 34.5 c 128,-1,8
 379 -6 379 -6 360 -31.5 c 128,-1,9
 341 -57 341 -57 340 -58 c 0,10,11
 333 -68 333 -68 321 -68 c 0,12,13
 315 -68 315 -68 313 -67 c 0,14,15
 283 -52 283 -52 248 -40.5 c 128,-1,16
 213 -29 213 -29 176.5 -19.5 c 128,-1,17
 140 -10 140 -10 103 -1.5 c 128,-1,18
 66 7 66 7 32 16 c 0,19,20
 22 18 22 18 22 26 c 0,21,22
 22 33 22 33 30 44 c 128,-1,23
 38 55 38 55 55 78 c 2,24,-1
 386 531 l 1,25,26
 326 642 326 642 267.5 749 c 128,-1,27
 209 856 209 856 147 970 c 0,28,29
 136 990 136 990 130 1001 c 128,-1,30
 124 1012 124 1012 124 1020 c 0,31,32
 124 1029 124 1029 137 1032 c 0,33,34
 212 1049 212 1049 290.5 1067.5 c 128,-1,35
 369 1086 369 1086 436 1115 c 0,36,37
 439 1116 439 1116 445 1116 c 0,38,39
 458 1116 458 1116 462 1106 c 1,40,-1
 612 834 l 1,41,-1
 821 1106 l 2,42,43
 828 1116 828 1116 840 1116 c 0,44,45
 846 1116 846 1116 848 1115 c 0,46,47
 909 1086 909 1086 984.5 1067.5 c 128,-1,48
 1060 1049 1060 1049 1130 1032 c 0,49,50
 1140 1029 1140 1029 1140 1023 c 0,51,52
 1140 1014 1140 1014 1132 1003.5 c 128,-1,53
 1124 993 1124 993 1107 970 c 0,54,55
 1020 856 1020 856 938 749.5 c 128,-1,56
 856 643 856 643 775 531 c 1,57,-1
 1015 78 l 2,58,59
 1025 59 1025 59 1031 48 c 128,-1,60
 1037 37 1037 37 1037 29 c 0,61,62
 1037 19 1037 19 1025 16 c 0,63,64
 950 -1 950 -1 871.5 -19.5 c 128,-1,65
 793 -38 793 -38 726 -67 c 0,66,67
 723 -68 723 -68 717 -68 c 0,68,69
 706 -68 706 -68 700 -58 c 0,0,1
EndSplineSet
EndChar

StartChar: y
Encoding: 121 121 92
Width: 1125
GlyphClass: 2
Flags: W
LayerCount: 2
Fore
SplineSet
546 -456 m 2,0,1
 544 -460 544 -460 541.5 -462.5 c 128,-1,2
 539 -465 539 -465 533 -465 c 256,3,4
 527 -465 527 -465 524 -464 c 0,5,6
 488 -451 488 -451 456 -442 c 128,-1,7
 424 -433 424 -433 392.5 -425.5 c 128,-1,8
 361 -418 361 -418 328 -411.5 c 128,-1,9
 295 -405 295 -405 258 -397 c 0,10,11
 248 -395 248 -395 242.5 -390.5 c 128,-1,12
 237 -386 237 -386 237 -375 c 0,13,14
 237 -372 237 -372 240.5 -360.5 c 128,-1,15
 244 -349 244 -349 258 -313.5 c 128,-1,16
 272 -278 272 -278 301 -210.5 c 128,-1,17
 330 -143 330 -143 381 -29 c 1,18,19
 366 21 366 21 347 91 c 128,-1,20
 328 161 328 161 306.5 244 c 128,-1,21
 285 327 285 327 262 419.5 c 128,-1,22
 239 512 239 512 215.5 606.5 c 128,-1,23
 192 701 192 701 168.5 793.5 c 128,-1,24
 145 886 145 886 123 970 c 1,25,26
 116 986 116 986 115 996.5 c 128,-1,27
 114 1007 114 1007 114 1014 c 0,28,29
 114 1028 114 1028 130 1032 c 0,30,31
 208 1049 208 1049 292 1067.5 c 128,-1,32
 376 1086 376 1086 451 1115 c 0,33,34
 454 1116 454 1116 460 1116 c 0,35,36
 473 1116 473 1116 474 1106 c 2,37,-1
 596 434 l 1,38,39
 600 446 600 446 611.5 477.5 c 128,-1,40
 623 509 623 509 638.5 553 c 128,-1,41
 654 597 654 597 673 650 c 128,-1,42
 692 703 692 703 712 758 c 128,-1,43
 732 813 732 813 751.5 867.5 c 128,-1,44
 771 922 771 922 788 969 c 128,-1,45
 805 1016 805 1016 817.5 1052 c 128,-1,46
 830 1088 830 1088 837 1106 c 0,47,48
 841 1116 841 1116 852 1116 c 0,49,50
 855 1116 855 1116 856 1115.5 c 128,-1,51
 857 1115 857 1115 860 1115 c 1,52,53
 935 1086 935 1086 1014 1067.5 c 128,-1,54
 1093 1049 1093 1049 1171 1032 c 0,55,56
 1190 1028 1190 1028 1190 1010 c 0,57,58
 1190 997 1190 997 1178 970 c 2,59,-1
 766 39 l 1,60,-1
 546 -456 l 2,0,1
EndSplineSet
EndChar

StartChar: z
Encoding: 122 122 93
Width: 992
GlyphClass: 2
Flags: W
LayerCount: 2
Fore
SplineSet
255 0 m 2,0,1
 235 0 235 0 212.5 2 c 128,-1,2
 190 4 190 4 171.5 9.5 c 128,-1,3
 153 15 153 15 140.5 24 c 128,-1,4
 128 33 128 33 128 48 c 0,5,6
 128 49 128 49 129 51 c 128,-1,7
 130 53 130 53 130 55 c 2,8,-1
 483 779 l 1,9,10
 441 779 441 779 389 777.5 c 128,-1,11
 337 776 337 776 284.5 774.5 c 128,-1,12
 232 773 232 773 184.5 772 c 128,-1,13
 137 771 137 771 104 771 c 0,14,15
 94 771 94 771 89 777.5 c 128,-1,16
 84 784 84 784 84 792 c 2,17,-1
 84 796 l 1,18,-1
 185 1037 l 1,19,20
 193 1064 193 1064 215 1072 c 128,-1,21
 237 1080 237 1080 259 1080 c 0,22,23
 435 1080 435 1080 604.5 1074 c 128,-1,24
 774 1068 774 1068 949 1068 c 0,25,26
 960 1068 960 1068 971.5 1061 c 128,-1,27
 983 1054 983 1054 983 1044 c 0,28,29
 983 1043 983 1043 981 1037 c 2,30,-1
 664 345 l 2,31,32
 664 343 664 343 669.5 342 c 128,-1,33
 675 341 675 341 683.5 340 c 128,-1,34
 692 339 692 339 700.5 339 c 128,-1,35
 709 339 709 339 715 339 c 0,36,37
 778 339 778 339 837 342 c 128,-1,38
 896 345 896 345 956 345 c 0,39,40
 967 345 967 345 975 340 c 128,-1,41
 983 335 983 335 983 320 c 0,42,43
 983 318 983 318 981 318 c 1,44,-1
 855 55 l 2,45,46
 846 36 846 36 823 25 c 128,-1,47
 800 14 800 14 767 8.5 c 128,-1,48
 734 3 734 3 693.5 1.5 c 128,-1,49
 653 0 653 0 610 0 c 2,50,-1
 255 0 l 2,0,1
EndSplineSet
EndChar

StartChar: braceleft
Encoding: 123 123 94
Width: 842
GlyphClass: 2
Flags: W
LayerCount: 2
Fore
SplineSet
166 929 m 0,0,1
 223 938 223 938 263 969 c 128,-1,2
 303 1000 303 1000 334 1045 c 128,-1,3
 365 1090 365 1090 391 1144.5 c 128,-1,4
 417 1199 417 1199 446 1255.5 c 128,-1,5
 475 1312 475 1312 511.5 1366.5 c 128,-1,6
 548 1421 548 1421 600.5 1464.5 c 128,-1,7
 653 1508 653 1508 725 1537.5 c 128,-1,8
 797 1567 797 1567 898 1574 c 1,9,-1
 902 1574 l 2,10,11
 911 1574 911 1574 915.5 1570.5 c 128,-1,12
 920 1567 920 1567 920 1556 c 1,13,14
 912 1500 912 1500 908 1457 c 128,-1,15
 904 1414 904 1414 900 1374 c 128,-1,16
 896 1334 896 1334 890 1291 c 128,-1,17
 884 1248 884 1248 872 1192 c 1,18,19
 869 1164 869 1164 859 1154 c 128,-1,20
 849 1144 849 1144 839 1143 c 0,21,22
 789 1137 789 1137 761.5 1106.5 c 128,-1,23
 734 1076 734 1076 716 1033 c 128,-1,24
 698 990 698 990 683.5 940.5 c 128,-1,25
 669 891 669 891 644.5 847 c 128,-1,26
 620 803 620 803 578.5 770 c 128,-1,27
 537 737 537 737 466 727 c 1,28,29
 560 676 560 676 603.5 616 c 128,-1,30
 647 556 647 556 647 487 c 0,31,32
 647 473 647 473 646.5 459.5 c 128,-1,33
 646 446 646 446 646 434 c 0,34,35
 646 327 646 327 675.5 267.5 c 128,-1,36
 705 208 705 208 757 182 c 1,37,38
 764 180 764 180 769.5 173.5 c 128,-1,39
 775 167 775 167 775 152 c 0,40,41
 775 148 775 148 774.5 143 c 128,-1,42
 774 138 774 138 773 133 c 0,43,44
 764 91 764 91 755.5 58.5 c 128,-1,45
 747 26 747 26 739 -4 c 128,-1,46
 731 -34 731 -34 722.5 -66.5 c 128,-1,47
 714 -99 714 -99 704 -141 c 0,48,49
 701 -152 701 -152 695.5 -156 c 128,-1,50
 690 -160 690 -160 682 -160 c 0,51,52
 680 -160 680 -160 679 -159.5 c 128,-1,53
 678 -159 678 -159 676 -159 c 0,54,55
 595 -146 595 -146 514.5 -107.5 c 128,-1,56
 434 -69 434 -69 370 -1.5 c 128,-1,57
 306 66 306 66 266 163.5 c 128,-1,58
 226 261 226 261 226 393 c 0,59,60
 226 407 226 407 226.5 421 c 128,-1,61
 227 435 227 435 227 449 c 0,62,63
 227 487 227 487 216 516 c 128,-1,64
 205 545 205 545 186 565.5 c 128,-1,65
 167 586 167 586 141 598.5 c 128,-1,66
 115 611 115 611 86 616 c 0,67,68
 72 618 72 618 65 622.5 c 128,-1,69
 58 627 58 627 58 644 c 0,70,71
 58 662 58 662 61 687.5 c 128,-1,72
 64 713 64 713 68.5 741 c 128,-1,73
 73 769 73 769 78.5 796.5 c 128,-1,74
 84 824 84 824 88.5 846 c 128,-1,75
 93 868 93 868 96 882 c 128,-1,76
 99 896 99 896 99 896 c 1,77,78
 105 916 105 916 120.5 920.5 c 128,-1,79
 136 925 136 925 166 929 c 0,0,1
EndSplineSet
EndChar

StartChar: bar
Encoding: 124 124 95
Width: 595
GlyphClass: 2
Flags: W
LayerCount: 2
Fore
SplineSet
193 846 m 1,0,1
 208 992 208 992 218 1137 c 128,-1,2
 228 1282 228 1282 239 1432 c 0,3,4
 241 1465 241 1465 245.5 1477.5 c 128,-1,5
 250 1490 250 1490 268 1494 c 1,6,7
 352 1500 352 1500 434 1507.5 c 128,-1,8
 516 1515 516 1515 601 1526 c 1,9,10
 609 1526 609 1526 610.5 1523.5 c 128,-1,11
 612 1521 612 1521 612 1516 c 2,12,-1
 482 14 l 1,13,-1
 482 -9 l 2,14,15
 482 -18 482 -18 475.5 -23.5 c 128,-1,16
 469 -29 469 -29 442 -36 c 2,17,-1
 220 -92 l 1,18,19
 209 -96 209 -96 191 -102 c 128,-1,20
 173 -108 173 -108 156 -108 c 0,21,22
 142 -108 142 -108 131.5 -101 c 128,-1,23
 121 -94 121 -94 121 -77 c 2,24,-1
 121 -71 l 1,25,26
 128 37 128 37 135.5 138.5 c 128,-1,27
 143 240 143 240 151 348 c 128,-1,28
 159 456 159 456 169.5 577 c 128,-1,29
 180 698 180 698 193 846 c 1,0,1
EndSplineSet
EndChar

